<svg xmlns="http://www.w3.org/2000/svg" viewBox="0 0 100 100">
<!-- SVG created with Arrow, by QuiverAI (https://quiver.ai) -->
  <style type="text/css">.cls-0 {fill:#A3C495;}
.cls-1 {fill:none;stroke:#020202;stroke-width:1.03;stroke-linecap:round;stroke-linejoin:round;stroke-miterlimit:10;}
.cls-2 {fill:none;stroke:#020202;stroke-width:0.9768;stroke-linecap:round;stroke-linejoin:round;stroke-miterlimit:10;stroke-dasharray:2.442,1.628;}
.cls-3 {fill:none;stroke:#020202;stroke-width:1.03;stroke-linecap:round;stroke-linejoin:round;stroke-miterlimit:10;stroke-dasharray:2.575,1.717;}
.cls-4 {fill:none;stroke:#020202;stroke-width:1.03;stroke-linecap:round;stroke-miterlimit:10;}
.cls-5 {fill:#FFFFFF;stroke:#020202;stroke-width:1.03;stroke-linecap:round;stroke-linejoin:round;stroke-miterlimit:10;}</style>
  <path class="cls-0" d="m64.4 19.5c-2.4-1.2-5.8-2.9-11.4-3.6-3.7-0.4-7.5 0-11.2 0.9-2.3 0.6-4.4 1.5-6.4 2.6l1.7 2.1 1.8 2.5-0.4 2.2 1.8 2.3-0.1 1.1-1.1 1-2 0.3-3-0.6 0.3 2.8-1.1 4.5-2.9 5-2 4.1-0.5 5.1 1.2 5.7 1.9 5.8 0.6 6-1.6 7.9c2.5 1.6 6.4 3.8 9.6 4.5 5.2 1.3 8.8 1.7 14.1 1.3 3.1-0.2 7.9-1.4 10.8-2.6 1.9-0.8 4.1-2.1 5.6-3.2l-1.6-5.3-0.2-5.4 1.2-5.6 2.1-5.8 0.5-4.2-0.7-4.6-2.1-4.1-2.6-4.5-1.1-4.5 0.2-2.9-2.3 0.6-2.4-0.2-1.4-1.3 0.1-1.1 1.8-2.1-0.5-1.5 0.5-1.7 2.8-3.5z"/>
  <path class="cls-0" d="m20.7 25.9 3 0.7 4.8-0.4 2.4 2.5c-1.4 0.3-2.6 1.3-3.6 2.4l-5.6 6.7-2.4 5.6-1.9 2.9c-1.1-1.1-2-3.9-2.1-6.4 0-1.7 0.6-3.9 1.4-5.2 1.4-2.1 3.6-5.4 4-8.8z"/>
  <path class="cls-0" d="m69.1 28.5 2.4-2.3 3.4 0.4 4.2-0.7c0.5 2.5 1.5 4.6 2.7 6.6 0.9 1.4 2 2.9 2.5 4.6 0.8 3.2 0 7.4-1.7 9.2l-2-2.9-2.2-5.2-4.3-5.4-2.7-3.2-2.3-1.1z"/>
  <path class="cls-1" d="m35.4 19.4c2-1 4.2-2 6.4-2.6 3.7-0.9 7.5-1.3 11.2-1 3.8 0.5 6.9 1.1 11.4 3.5"/>
  <path class="cls-1" d="m30 77.2c2.5 1.7 5.9 3.5 9.1 4.3 4.2 1.2 7.7 1.8 13 1.6 3.2-0.1 8-0.9 11.5-2.3 2.1-0.8 4.3-2 6.3-3.5"/>
  <path class="cls-1" d="m34.1 30.2c1.3 0.3 2.5 0.8 3.8 0.6 1.7-0.2 3-1.4 2.3-2.5-0.6-1-1.8-1.9-5.1-5.9-1.9-2.4-2.4-2.6-3.5-2.8-2.3-0.6-7.2-1.5-10.2-2.2-4-0.9-5.1 0-6.5 1.6-1.8 2.1-7.4 9.7-10.4 14.1-1.9 2.8-2 5.1-1.8 9.1 1.2 13.1 3.9 19.9 5 24.5 1.2 4.9 1.3 8.6-0.7 16.4"/>
  <path class="cls-5" d="m18.7 16.9c1.7-1.3 2.8-2.3 5-1.8 1.7 0.4 5.7 1.7 9.7 2.8 1 0.3 1.3 0.5 2 1.2 1 1.2 3.3 3.6 3.6 4.8 0.4 1.1 0 2.2-0.6 2.3"/>
  <path class="cls-1" d="m17.4 46.3c-1.3-1.4-3-6.2-1.4-10.4 0.9-2 3.8-4.8 4.7-10 2.4 0.7 3.7 1 7.8 0.3l2.5 2.5"/>
  <path class="cls-1" d="m13.6 49.1c3-1.2 5.5-4 7-8.5 1.1-3.5 3-4.5 5.5-8 2-2.5 3.5-4.2 5.9-3.9 3.6 0.6 2.9 5.4 1.1 9.4-2.1 4.2-5.2 6.5-5.2 13.3 0 5.7 3.5 9.7 3.5 17 0 7.5-4 11.5-5.3 17l-0.5 2.6"/>
  <path class="cls-4" d="m30.9 12 1.7 3.1"/>
  <path class="cls-4" d="m35.9 15.6 1.8-3.1"/>
  <path class="cls-1" d="m65.7 30.3c-1.1 0.3-2.3 0.8-3.7 0.5-1.6-0.2-2.9-1.5-2.2-2.6s2.1-2 5.3-6c2-2.6 2.5-2.6 3.5-2.8 2.3-0.5 7-1.5 10-2.1 4-0.8 5 0 6.5 1.6 1.8 2 7 9.3 10.4 14 2 2.8 2.4 4.8 2 10.5-1.1 11.2-3.6 18.2-4.9 22.7-1.5 5.5-1.5 9.2 0.8 17"/>
  <path class="cls-5" d="m81 16.8c-1.5-1.2-2.6-2.2-4.6-1.7-1.8 0.4-5.8 1.8-9.8 2.8-1 0.3-1.2 0.7-2 1.5l-3 3.5c-1 1.2-0.9 3.2 0 3.3"/>
  <path class="cls-1" d="m82.7 46.4c1.4-1.5 2.7-5 1.4-9.8-0.7-2-4-5.2-5-10.8-2.5 0.8-4 1.1-7.6 0.3l-2.5 2.5"/>
  <path class="cls-1" d="m86.4 49.2c-3-1.1-5.5-3.8-6.9-8.1-1.1-3-1.1-2.7-4.4-6.7-2-2.5-3.6-5.7-6.6-5.8-3.6 0.1-3.6 4-1.9 8.8 1.8 4.2 4.9 6.7 5.3 11.7 0.7 5.8-1.9 9.5-2.9 14.5-1.1 5.5-0.1 10 2.1 15 1.3 2.8 2.6 5.5 3 9.5"/>
  <path class="cls-4" d="m68.9 12-1.8 2.9"/>
  <path class="cls-4" d="m64 15.8-1.9-3.1"/>
  <path class="cls-3" d="m42.5 20.4-2.4 2.5"/>
  <path class="cls-2" d="m45.5 24.4-4.1 1.6"/>
  <path class="cls-1" d="m42.6 29.7 3.5 0.7"/>
  <path class="cls-1" d="m54.1 25.6 3.6 0.8"/>
  <path class="cls-1" d="m57 21.1 2.5 2.3"/>
  <path class="cls-2" d="m53.1 31.9 4.4-1.7"/>
  <path class="cls-3" d="m58.4 37.2 2.3-4"/>
  <path class="cls-1" d="m63.4 34.9 0.4 4.2"/>
  <path class="cls-1" d="m40.6 35.6 1.1 1.6"/>
  <path class="cls-2" d="m39.4 33.7 0.6 0.7"/>
  <path class="cls-1" d="m36.6 35.1-0.4 4.2"/>
  <path class="cls-3" d="m32.4 59 1.7 5.1-0.1 9-0.9 3"/>
  <path class="cls-1" d="m67.1 59.8c-0.7 2.1-1.5 4.8-1.5 9.8l1.1 6.5"/>
</svg>