<svg xmlns="http://www.w3.org/2000/svg" viewBox="0 0 150 150">
<!-- SVG created with Arrow, by QuiverAI (https://quiver.ai) -->
  <style type="text/css">.cls-0 {fill:none;stroke:#6E9471;stroke-width:1.9;stroke-linecap:round;stroke-linejoin:round;stroke-miterlimit:10;}
.cls-1 {fill:none;stroke:#1D1D1B;stroke-width:1.9;stroke-linecap:round;stroke-linejoin:round;stroke-miterlimit:10;}</style>
  <line class="cls-0" x1="74.9" x2="74.9" y1="10.4" y2="139.4"/>
  <path class="cls-1" d="m32.6 106.5-0.1-1.5c0-0.5-0.2-1-0.5-1.4-1.1-1.4-3.8-4.2-4.7-9.1-0.6-3.5-0.3-10.8-0.6-13.9l-4.4-19.3c-0.4-1.5 0.8-3.5 2.5-3.4 1.3 0 2.4 0.8 2.7 2.1l5.1 16.1c0.1 0.2 0.5 0.2 0.5-0.1l-3.1-24.6c-0.2-1.7 1.4-3.8 3.6-3.5 1.2 0.2 2.2 1.3 2.4 2.5l3.8 23.2 0.4-0.1-0.7-27.1c0-1.6 1.5-3 3.1-2.8 1.6 0.1 2.8 1.4 2.9 2.9l2.1 26.9h0.5c0.7-7 1.4-16.6 1.5-22.4 0.1-3.6 5.3-4.8 6.1-0.2l-0.3 24.7c0 1.9 0.2 6.8 0.4 7.7 0.2 0.7 0.8 0.9 1.2 0.3 1.3-2.1 3.4-6.1 4.2-7.8 1.2-2.3 3-4.8 5.4-4.8 1.8 0 3 1.6 2.2 3.6-1.3 3.6-2.5 6.5-3.5 9.8-1 2.8-1.9 5.7-2.8 8.8-1.8 6.1-5.9 9.5-9.5 11.9"/>
  <path class="cls-1" d="m117.4 106.4v-1.2c0-0.6 0.2-1.2 0.6-1.7 1.1-1.4 3.5-3.9 4.4-8.6 0.7-3.5 0.3-10.8 0.9-14.7l4.4-18.9c0.4-1.6-0.9-3.6-2.5-3.5-1.3 0-2.5 0.8-2.8 2.5l-4.9 15.8c-0.1 0.2-0.5 0.1-0.4-0.1l2.7-24.6c0.2-1.7-1.4-3.8-3.6-3.6-1.2 0.2-2.1 1.1-2.2 2.3l-3.8 23.4h-0.4c-0.1-6.2 0.6-21.8 0.7-27.1 0-1.6-1.5-3-3.1-2.8-1.5 0.2-2.8 1.4-2.9 2.9l-2.1 26.9-0.3-0.1-1.7-22.3c-0.1-3.6-5.3-4.8-6.1-0.2l0.5 24.2c0 1.9-0.2 7.3-0.6 8.4-0.1 0.5-0.6 0.5-0.8 0.2-1.3-2-3.6-6.5-4.4-8-1.2-2-2.8-4.6-5.3-4.6-1.8 0-3.4 1.3-2.7 3.4 1.4 3.6 2.6 6.9 3.7 10.2 0.9 2.8 1.8 5.7 2.8 8.8 1.8 5.5 5.7 9.2 9.4 11.6"/>
  <line class="cls-1" x1="17.5" x2="8.5" y1="59.1" y2="52.7"/>
  <line class="cls-1" x1="16.8" x2="3.5" y1="71.2" y2="71.2"/>
  <line class="cls-1" x1="18" x2="8.8" y1="82.7" y2="88.9"/>
  <line class="cls-1" x1="132.7" x2="141.6" y1="59.1" y2="52.6"/>
  <line class="cls-1" x1="133.5" x2="146.8" y1="71.2" y2="71.2"/>
  <line class="cls-1" x1="132.3" x2="141.2" y1="82.8" y2="88.9"/>
</svg>