<svg xmlns="http://www.w3.org/2000/svg" width="250" height="110" fill="none" viewBox="0 0 250 110">
<!-- SVG created with Arrow, by QuiverAI (https://quiver.ai) -->
  <path d="m244.8 60.89c-11.56 17.07-27.71 30-47.85 39.11" stroke="#1A1A1A" stroke-linecap="round" stroke-linejoin="round" stroke-width="1.7"/>
  <path d="m203.1 48.81c-0.39 7.1 0.37 13.26-12.13 21.91-4.17 3.01-9.23 6.64-8.18 13.42 0.84 5.67 8.26 8.72 16.67 3.47 6.5-4.04 8.43-7.32 20.4-15.13 7.53-5.03 15.94-12.84 15.94-20.54 0-8.9-9.9-19.75-18.89-20.05-8.15-0.28-13.31 6.87-13.81 16.92z" stroke="#1A1A1A" stroke-linecap="round" stroke-linejoin="round" stroke-width="1.7"/>
  <path d="m213.3 22.48c0.64-4.54 3.43-8.25 6.34-8.25 3.26 0 5.09 2.48 4.01 7.08-0.95 4.22-3.57 6.66-6.62 6.35-3.05-0.3-4.2-2.08-3.73-5.18z" stroke="#1A1A1A" stroke-linecap="round" stroke-linejoin="round" stroke-width="1.7"/>
  <path d="m226.2 26.02c0.94-3.59 2.87-5.93 5.92-5.83 2.83 0.1 3.63 2.79 2.4 6.22-1.15 3.43-3.65 4.7-5.65 4.1-1.69-0.56-3.3-1.73-2.67-4.49z" stroke="#1A1A1A" stroke-linecap="round" stroke-linejoin="round" stroke-width="1.7"/>
  <path d="m235.1 33.93c1.1-2.92 3.11-4.19 4.98-3.98 2.42 0.3 2.82 2.77 1.43 5.69-1.31 2.97-3.7 3.07-4.83 2.67-1.46-0.6-2.38-1.87-1.58-4.38z" stroke="#1A1A1A" stroke-linecap="round" stroke-linejoin="round" stroke-width="1.7"/>
  <path d="m239.3 42.68c1.24-2.62 3.1-3.77 4.65-3.47 2.07 0.4 2.67 2.71 1.28 5.53-1.4 2.82-3.9 2.72-4.89 2.32-1.51-0.71-2.15-1.87-1.04-4.38z" stroke="#1A1A1A" stroke-linecap="round" stroke-linejoin="round" stroke-width="1.7"/>
  <path d="m168.8 54.31c-4.86 0-6.72 3.63-6.72 4.8 0 2.11 1.66 4.32 6.72 4.32s6.93-3.12 6.93-5.33c0-1.98-1.75-3.79-6.93-3.79z" fill="#A4C6A8" stroke="#1A1A1A" stroke-linecap="round" stroke-linejoin="round" stroke-width="1.7"/>
  <path d="m169.5 67.36c-3.97 0.4-5.01 2.42-4.93 3.43 0.12 1.67 1.67 3.14 5.45 3.04s5.05-2.51 4.97-4.19c-0.12-1.47-1.55-2.63-5.49-2.28z" fill="#A4C6A8" stroke="#1A1A1A" stroke-linecap="round" stroke-linejoin="round" stroke-width="1.7"/>
  <path d="m165.7 78.31c-3.05 0-4.3 1.57-4.3 2.48 0 1.47 1.39 3.14 4.42 3.14 3.05 0 4.02-1.82 4.02-3.14 0-1.26-1.24-2.48-4.14-2.48z" fill="#A4C6A8" stroke="#1A1A1A" stroke-linecap="round" stroke-linejoin="round" stroke-width="1.7"/>
  <path d="m159.8 87.01c-3.05 0-4.04 1.47-4.04 2.48 0 1.46 1.39 2.57 4.32 2.57 2.95 0 3.9-1.56 3.9-2.72 0-1.27-1.23-2.33-4.18-2.33z" fill="#A4C6A8" stroke="#1A1A1A" stroke-linecap="round" stroke-linejoin="round" stroke-width="1.7"/>
  <path d="m159.2 67.16c-1.51-7.15-6.29-10.94-14.31-9.72-6.8 1.01-11.13 7.71-18.87 8.36-8.13 0.71-14.63-4.78-22.23-4.38-6.1 0.3-8.8 5.69-8.44 9.53 0.51 5.7 4.56 9.03 12.26 10.75 10.28 2.52 18.49 9.15 31.23 9.7 11.33 0.51 22.92-13.19 20.36-24.24z" fill="#A4C6A8" stroke="#1A1A1A" stroke-linecap="round" stroke-linejoin="round" stroke-width="1.7"/>
  <path d="m25.38 96.61c12.34-10.55 28.53-19.45 43.43-19.85 14.32-0.71 21.62 5.15 31 10.91 13.91 8.7 31 18.3 54.6 16.19" stroke="#1A1A1A" stroke-linecap="round" stroke-linejoin="round" stroke-width="1.7"/>
  <path d="m13.13 66.71c7.98-6.25 10.58-9.07 15.08-13.61 8.21-8.25 15.73-14.7 24.8-14.29 9.06 0.4 18.13 10.1 18.13 18.42 0 7.71-6.06 12.96-15.36 12.76-5.74-0.1-8.59-1.97-15.61-0.1-10.12 2.82-12.55 11-21.94 15.96-7.29 3.43-12.92-0.41-13.99-5.06-1.43-6.15 4.17-10.9 8.89-14.08z" stroke="#1A1A1A" stroke-linecap="round" stroke-linejoin="round" stroke-width="1.7"/>
  <path d="m60.98 31.26c2.75-1.62 5.23-1.16 5.63 0.41 0.71 2.51-1.49 4.88-4.38 5.38-3.05 0.56-4.32-1.16-4.04-2.82 0.24-1.31 1.03-2.06 2.79-2.97z" stroke="#1A1A1A" stroke-linecap="round" stroke-linejoin="round" stroke-width="1.7"/>
  <path d="m70.01 36.35c2.6-2.02 5.1-1.82 5.81-0.25 0.99 2.21-0.79 4.83-3.49 5.94-2.71 1.11-4.61 0.05-5.01-1.52-0.4-1.46 0.52-2.77 2.69-4.17z" stroke="#1A1A1A" stroke-linecap="round" stroke-linejoin="round" stroke-width="1.7"/>
  <path d="m77.71 43.84c2.7-2.11 5.62-2.01 6.7-0.44 1.31 2.11-0.12 4.93-3.6 6.45-3.06 1.31-5.7 0.4-6.33-1.27-0.76-1.86 0.63-3.17 3.23-4.74z" stroke="#1A1A1A" stroke-linecap="round" stroke-linejoin="round" stroke-width="1.7"/>
  <path d="m82.31 53.7c4.17-2.21 7.01-1.61 7.96 0.61 1.13 2.82-1.03 6.86-6.34 8.42-4.16 1.21-6.62-0.71-6.86-2.92-0.24-2.32 1.19-4.19 5.24-6.11z" stroke="#1A1A1A" stroke-linecap="round" stroke-linejoin="round" stroke-width="1.7"/>
  <path d="m81.59 17.77c5.64-4.75 12.8-5.96 19.14-5.96 11.55 0 24.13 7.1 37.1 11.39 8.29 2.92 13.35 3.63 19.89 3.33 11.09-0.61 21.25-4.65 29.94-14.01" stroke="#1A1A1A" stroke-linecap="round" stroke-linejoin="round" stroke-width="1.7"/>
  <path d="m128.2 13.33c9.19 2.42 15.25 5.34 25.77 5.34 8.81 0 12.47-4.54 12.47-7.97 0-3.63-2.71-5.85-5.52-5.7-2.92 0.1-4.23 2.02-4.23 4.84" stroke="#1A1A1A" stroke-linecap="round" stroke-linejoin="round" stroke-width="1.7"/>
</svg>