<svg xmlns="http://www.w3.org/2000/svg" width="255" height="152" fill="none" viewBox="0 0 255 152">
<!-- SVG created with Arrow, by QuiverAI (https://quiver.ai) -->
  <path d="m254.2 0h-253.3v152h253.3v-152z" fill="#FEFFFE" fill-opacity=".5"/>
  <path d="m0.84 149.2v2.77h9.06v-2.77h-9.06z" fill="#FEFFFE" fill-opacity=".5"/>
  <path d="m245.8 149.2v2.77h8.39v-2.77h-8.39z" fill="#FEFFFE" fill-opacity=".5"/>
  <path d="m9.9 149.2v2.77h7.02v-2.77h-7.02z" fill="#FEFFFE" fill-opacity=".5"/>
  <path d="m26.94 149.2v2.77h7.02v-2.77h-7.02z" fill="#FEFFFE" fill-opacity=".5"/>
  <path d="m44.66 149.2v2.77h8.39v-2.77h-8.39z" fill="#FEFFFE" fill-opacity=".5"/>
  <path d="m62.39 149.2v2.77h7.69v-2.77h-7.69z" fill="#FEFFFE" fill-opacity=".5"/>
  <path d="m79.43 149.2v2.77h7.02v-2.77h-7.02z" fill="#FEFFFE" fill-opacity=".5"/>
  <path d="m97.15 149.2v2.77h7.69v-2.77h-7.69z" fill="#FEFFFE" fill-opacity=".5"/>
  <path d="m114.9 149.2v2.77h8.39v-2.77h-8.39z" fill="#FEFFFE" fill-opacity=".5"/>
  <path d="m131.9 149.2v2.77h8.39v-2.77h-8.39z" fill="#FEFFFE" fill-opacity=".5"/>
  <path d="m149.6 149.2v2.77h7.69v-2.77h-7.69z" fill="#FEFFFE" fill-opacity=".5"/>
  <path d="m167.4 149.2v2.77h7.02v-2.77h-7.02z" fill="#FEFFFE" fill-opacity=".5"/>
  <path d="m185.1 149.2v2.77h7.69v-2.77h-7.69z" fill="#FEFFFE" fill-opacity=".5"/>
  <path d="m202.8 149.2v2.77h7.69v-2.77h-7.69z" fill="#FEFFFE" fill-opacity=".5"/>
  <path d="m220.6 149.2v2.77h7.02v-2.77h-7.02z" fill="#FEFFFE" fill-opacity=".5"/>
  <path d="m237.6 149.2v2.77h7.69v-2.77h-7.69z" fill="#FEFFFE" fill-opacity=".5"/>
  <path d="m0.84 138v4.78h8.39v-4.78h-8.39z" fill="#FEFFFE" fill-opacity=".5"/>
  <path d="m246.4 138v4.78h7.69v-4.78h-7.69z" fill="#FEFFFE" fill-opacity=".5"/>
  <path d="m0.84 126.9v6.39h8.39v-6.39h-8.39z" fill="#FEFFFE" fill-opacity=".5"/>
  <path d="m246.4 126.9v6.39h7.69v-6.39h-7.69z" fill="#FEFFFE" fill-opacity=".5"/>
  <path d="m0.84 114.3v7.03h8.39v-7.03h-8.39z" fill="#FEFFFE" fill-opacity=".5"/>
  <path d="m246.4 114.3v7.03h7.69v-7.03h-7.69z" fill="#FEFFFE" fill-opacity=".5"/>
  <path d="m0.84 101.8v6.39h8.39v-6.39h-8.39z" fill="#FEFFFE" fill-opacity=".5"/>
  <path d="m246.4 101.8v6.39h7.69v-6.39h-7.69z" fill="#FEFFFE" fill-opacity=".5"/>
  <path d="m0.84 89.25v7.03h8.39v-7.03h-8.39z" fill="#FEFFFE" fill-opacity=".5"/>
  <path d="m246.4 89.25v7.03h7.69v-7.03h-7.69z" fill="#FEFFFE" fill-opacity=".5"/>
  <path d="m0.84 76.71v6.39h8.39v-6.39h-8.39z" fill="#FEFFFE" fill-opacity=".5"/>
  <path d="m246.4 76.71v6.39h7.69v-6.39h-7.69z" fill="#FEFFFE" fill-opacity=".5"/>
  <path d="m0.84 64.17v6.39h8.39v-6.39h-8.39z" fill="#FEFFFE" fill-opacity=".5"/>
  <path d="m246.4 64.17v6.39h7.69v-6.39h-7.69z" fill="#FEFFFE" fill-opacity=".5"/>
  <path d="m0.84 52.31v6.39h8.39v-6.39h-8.39z" fill="#FEFFFE" fill-opacity=".5"/>
  <path d="m246.4 52.31v6.39h7.69v-6.39h-7.69z" fill="#FEFFFE" fill-opacity=".5"/>
  <path d="m0.84 39.77v6.39h8.39v-6.39h-8.39z" fill="#FEFFFE" fill-opacity=".5"/>
  <path d="m246.4 39.77v6.39h7.69v-6.39h-7.69z" fill="#FEFFFE" fill-opacity=".5"/>
  <path d="m0.84 27.23v6.39h8.39v-6.39h-8.39z" fill="#FEFFFE" fill-opacity=".5"/>
  <path d="m246.4 27.23v6.39h7.69v-6.39h-7.69z" fill="#FEFFFE" fill-opacity=".5"/>
  <path d="m0.84 14.69v6.39h8.39v-6.39h-8.39z" fill="#FEFFFE" fill-opacity=".5"/>
  <path d="m246.4 14.69v6.39h7.69v-6.39h-7.69z" fill="#FEFFFE" fill-opacity=".5"/>
  <path d="m0.84 2.15v6.39h8.39v-6.39h-8.39z" fill="#FEFFFE" fill-opacity=".5"/>
  <path d="m246.4 2.15v6.39h7.69v-6.39h-7.69z" fill="#FEFFFE" fill-opacity=".5"/>
  <path d="m141 27.09v6.39h7.69v-5.49l-7.69-0.9z" fill="#FEFFFE" fill-opacity=".5"/>
  <path d="m167.4 27.23v6.39h7.69v-8.51l-7.69 2.12z" fill="#FEFFFE" fill-opacity=".5"/>
  <path d="m121.6 8.23c8.66 12.76 20.18 20.68 36.13 20.68 16 0 29-8.59 37.01-23.45" stroke="#000" stroke-linecap="round" stroke-linejoin="round" stroke-width="4.6"/>
  <path d="m164.7 89.71c2.77-14.7 7.44-26.48 23.34-31.01 8.74-2.69 11.66-4.27 19.14-10.3 4.79-3.91 8.72-2.97 8.9 0.52 0.62 5.39-5.17 10.73-12.02 15.61-2.78 2.08-4.01 4.25 0.11 3.89 15.56-1.63 23.16-9.72 31.48-22.26 3.59-5.28 7.05-8.25 10.63-7.2 3.34 1 3.9 5.23 1.42 11.08-6.61 14.58-13.97 26.18-24.65 30.58-10.45 4.59-23.05 4.47-30.15 11.09-2.19 2.28-3.59 5.45-3.59 5.45" stroke="#000" stroke-linecap="round" stroke-linejoin="round" stroke-width="4.6"/>
  <path d="m151.5 89.94c-3.04-15.85-8.71-27.63-23.28-32.51-8.07-2.34-12.06-4.46-18.03-9.52-5.03-3.79-8.43-2.67-8.99 0.24-1.4 5.63 3.57 10.26 11.58 15.96 3.34 2.68 3.57 4.5-0.3 4.08-14.18-1.46-22.25-8.02-29.94-21.09-3.99-5.99-7.22-8.38-10.44-7.85-3.87 0.59-4.99 4.82-2.45 10.79 7.24 14.58 14.03 25.7 25.44 30.23 9.86 4.47 20.79 3.88 28.03 10.67 2.71 2.69 4.41 5.98 4.41 5.98" stroke="#000" stroke-linecap="round" stroke-linejoin="round" stroke-width="4.6"/>
</svg>