<svg xmlns="http://www.w3.org/2000/svg" viewBox="0 0 150 72">
<!-- SVG created with Arrow, by QuiverAI (https://quiver.ai) -->
  <style type="text/css">.cls-0 {fill:#1D1D1B;}</style>
  <path class="cls-0" d="m55.8 9.8c-1.8-1.4-4.4-3.7-6.7-5.8h-0.6c0.1 1.1 3.4 5.1 6.1 7.3 4.5 3.8 9.9 7.8 19.8 8.2 3.1 0 6.4-0.2 9-1 4.1-1.1 6.9-2.5 10.2-4.9 1.5-1.2 3.5-3.2 4.4-4.3 1.3-1.6 3.3-4.9 2.9-4.4 0.2-0.4 0.3-1-0.3-1-4.1 5.2-8.5 8.2-14 10.6-3 1-6.4 2.4-12.6 2.5-7.1-0.2-11.9-1.8-18.2-6.1v-1.1z"/>
  <path class="cls-0" d="m56.4 68.9 0.1-0.1 0.1-0.2c-3.1-4-8.6-6.7-15.4-8-7.6-1.3-12.8-1.9-18.7-5.9-5.9-3.8-11.3-10.8-14.4-15.2-2.5-3.6-5.4-7.7-4.7-9.5 0.2-0.7 1-1.1 1.8-1.1 2.2 0 6.1 3.6 9 6.7 4.9 5.4 9.9 9.6 14.9 11.3 3.5 1.3 7.8 2.2 12.1 2.4 1.4 0 2.7-0.1 3-0.5 0.4-0.3 0.5-0.8 0.4-1.2-0.3-1.2-2.7-2.4-5.2-3.2-4.5-1.4-9.3-4-10.4-7.2-0.3-0.9 0-1.8 0.6-2.3 0.9-0.6 2.3-0.3 4.1 0.5 2.7 1.1 5.7 2.6 9.4 3.4 5 0.9 8.8 1.1 11.5 2 11.3 3.3 15.5 13.9 18 25.1l0.3 1 0.4-0.1c0.1-2.4-2.4-15.7-10.7-22.4-3.2-2.4-6.2-4.2-11.1-5.1-5.9-0.9-9.4-1.3-12.5-2.4-3.5-1.3-7.8-4-9.9-2.8-1.2 0.7-1.6 2.4-0.5 4.5 1.9 3.6 6.3 5.5 10.8 7 2.2 0.6 4.1 1.8 4 2.4 0 0.4-3.5 0.7-7.9 0-9.1-1.3-14-5.4-21.1-13-1.9-2.1-6.2-5.7-8-6.4-1.5-0.6-2.9-0.7-3.8 0.4-1.4 1.2 0.3 3.6 1.8 6 6.3 9.1 13 18.4 21.2 21.9 5.3 2.5 10.3 3.3 15.5 4.3 7.5 1.2 11.4 2.9 14.9 6.2l0.1 1.5z"/>
  <path class="cls-0" d="m95.6 69c3.8-3.9 7-5.6 12-7.1 3.6-0.9 8-1.4 12-2.9 4.3-1.4 7.9-3.4 11-6 4.8-3.8 9.5-10.1 12.8-15 3-4.6 5.2-8 4.1-10-0.9-1.1-3.1-1.5-5.5-0.1-2.9 1.7-6.6 6.1-8.6 8.2-4.9 5.3-9.9 8.6-14.9 9.8-3.1 1-10.5 2-10.6 1.3 0-0.6 3.2-1.6 4.5-2 5-1.6 10.6-4.1 10.8-8.8 0.2-1.3-1-2.8-2.6-2.9-2-0.1-4.4 1.5-7.7 2.7-3.3 1.3-6.5 1.9-11.8 2.9-3.5 0.5-6.2 1.4-8.5 2.5-3 1.5-5.2 3.4-7.1 5.5-5 6-7.3 13.9-7.6 20l0.3 0.3 0.3-0.4c1.4-6.6 4-14.5 9.1-19.8 5.3-5 9.3-6 14.5-6.8 5-0.8 8.4-1.2 13.4-3.5 2.9-1.3 5-3 6.4-1.9 0.7 0.6 0.6 1.6 0.3 2.6-1.1 3-5.1 5.4-9.8 6.9-2.5 0.7-5.8 1.7-5.8 3.1 0 0.6 0.5 1 1.3 1.1 2.7 0.5 6.8 0 11.6-1.1 6.1-1.6 10.6-5 15-9.7 4.1-4.4 8-9.7 11.1-9.7 2.9-0.3 0.4 3.2-1.2 5.8-4.8 6.6-10.3 14-15.9 18.1-5.6 4.3-10.9 5.8-17.4 7.4-5.5 1.2-12.7 3.4-15.6 8.4l-0.1 1z"/>
</svg>