<svg xmlns="http://www.w3.org/2000/svg" width="250" height="250" fill="none" viewBox="0 0 250 250">
<!-- SVG created with Arrow, by QuiverAI (https://quiver.ai) -->
  <path d="m245.3 143.5c-6.87-15.28-12.66-29.48-21.29-44.39-8.62-14.92-18.18-32.26-23.5-46.23-3.46-9.07-9-20.71-13.64-33.36l-0.34-0.28-0.61-0.24-180.8 84.79-0.12 0.39c1.8 6.99 7.18 18.04 12.84 28.81 4.36 8.15 9.06 17.71 12.21 25.07 5.71 13.52 11.01 30.43 15.9 41.07 4.32 8.55 10.17 21.6 13.02 30.08l0.45 0.32 0.48-0.15c12-5.36 24.05-11.09 35.86-16.64 25.94-11.18 52.67-20.24 78.72-34.01 14.58-7.24 35.29-18.05 48.89-23.52 7.43-3 16.06-6.25 21.2-8.95 1.18-0.6 1.28-1.62 0.75-2.76zm-59.12-123.3c1.33 6.46 1.91 16.69-0.31 23.58-9.43 24.91-13.68 36.22-26.24 63.51l9.73 2.67 0.14 0.44c12.24 4.72 26.96 9.81 38.5 14.64l20.43 8.23c6.16 2.45 11.34 8.12 15.51 11.39 0.3 0.45 0.07 1.51-0.64 1.96-8.91 4.42-15.4 7.06-24.54 10.78-29.02 12.98-47.33 23.37-65.36 31.34-14.2 6.47-28.94 13.1-45.16 17.87l-47.2 21.33c-1.16 0.64-1.61-0.43-1.64-0.91-0.06-7.17 0.06-14.6 4.44-23.07 7.9-16.96 20.14-40.74 30-67.52 9.24 2.58 19.94 5.19 26.61 6l28.53-14.51c4.02-6.99 7.03-14.07 10.3-20.77l-0.07-0.02c8.6-16.62 18.99-41.68 26.98-62.01 3.72-7.97 2.45-17.85-0.01-24.93zm-179.3 82.72c24.03-14.26 70.84-32.01 115-53.71l-0.01 0.01c17.36-8.9 41.82-21.52 63.87-29.01 0.95-0.39 0.98 0.13 1.03 0.27 0.97 6.04 1.51 15.3-0.8 22.53-8.06 21.21-17.83 45.94-26.79 64.18l-0.31-0.09-0.44 0.92 10.37 2.79 0.05 0.15c11.93 4.48 28.14 10.35 37.24 14.23l21.03 8.25c6.74 2.51 11.73 8.1 16.37 11.7-5.15-10.71-10.65-23.83-17.41-37.98-5.88-11.69-16.84-29.78-23.13-43.82-3.68-8.15-8.08-18.82-9.73-23.4l0.21 0.01-1.41-2.55 0.66 0.54c-2.18-5.8-3.8-11-5.53-16.04 1.78 3.87 5.78 11.84 8.93 19.59l-0.22-0.1c1.07 2.38 2.02 5.57 3.33 8.26 6.87 16.14 14.48 31.29 24.19 47.77 9.86 16.87 16.11 32.14 21.16 45.54 0.53 1.45 0.48 2.16 0.24 2.61 0.14-0.57-0.1-1.21-0.6-1.7-4.29-3.65-10.25-9.1-16.55-11.52l-19.55-8.46c-13.84-5.35-30.6-10.96-39.15-14.55l-9.65-2.7c10.52-22.59 19.25-43.33 26.99-63.7 2.75-6.9 2.17-16.85 0.78-22.89l-0.34-0.64-0.44-0.28c-13.92 5.88-37.09 16.99-64.56 30.24l0.01-0.08c-43.29 21.57-90.53 39.73-115.4 53.51-0.38 0.07-0.03 0.52 0.54 0.12zm51.6 124.3c-2.16-4.35-6.09-14.68-11.06-23.51-6.85-11.63-12.04-29.94-18.8-43.64-4.78-11.63-10.93-24.27-15.43-33.58-3.16-6.16-5.76-13.46-7.47-20.73 4.52 4.33 9.39 8.68 15.85 10.77 18.23 5.47 31.84 8.16 48.54 12.91l22.99 6.23c-8.11 20.55-18.52 41.88-30.54 66.24-4.48 8.32-4.62 15.97-4.08 25.31z" fill="#111"/>
  <path d="m149.7 127.9c-2.52-4.83-9.54-6.35-12.64-0.97-2.11 3.25-2.44 5.26-3.02 8.56-4.08-3.77-12.12-5.58-14.51 0-3.27 8.02 5.17 14.27 17.71 18.8 2.99 1.17 5.95 1.99 6.39 2.02 1.62-1.1 9.99-18.84 6.07-28.41z" fill="#A66E72"/>
  <path d="m58.57 104.1 8.76-6.47c2.26-1.77 4-7.17 2.68-9.42-1.79-0.71-2.49 3.4-2.9 8-0.54 6.33-1.31 9.6-2.72 11.61-0.57 0.72 0.55 0.95 0.92 0.36 1.1-1.86 0.95-5.46 8-5.19 3.11 0.09 6.65-4.29 8.4-7.98" stroke="#111" stroke-linecap="round" stroke-linejoin="round" stroke-width=".5"/>
  <path d="m82.32 94.65c-1.36 1.46-0.54 4.55 0.78 4.55 1.46 0 3.19-3.96 1.98-6.11-0.54-0.57-1.26 0.14-1.26 0.14" stroke="#111" stroke-linecap="round" stroke-linejoin="round" stroke-width=".5"/>
  <path d="m87.61 91.88-0.21 2.02c0 0.87 0.43 0.68 1.13 0.42 1.8-0.69 3.29-2.65 4.55-4.61" stroke="#111" stroke-linecap="round" stroke-linejoin="round" stroke-width=".5"/>
  <path d="m95.33 90.83c0.76 0.86 1.52 0.3 2.32-0.9 1.16-1.62 2.29-3.37 2.36-4.73 0.17-0.92 0.81-0.41 0.81 0 0 1.02-0.19 1.88 0.57 2.21 0.89 0.08 1.84-2.78 2.56-3.11 0.84-0.39 1.86 0.48 3.02 0.41 1.7-0.22 4.24-2.13 6.48-4.89" stroke="#111" stroke-linecap="round" stroke-linejoin="round" stroke-width=".5"/>
  <path d="m123.2 70v0.45" stroke="#111" stroke-linecap="round" stroke-linejoin="round" stroke-width=".5"/>
  <path d="m123 74.04c-0.57 2.38 0.89 4 1.78 3 1.7-1.87 3.09-4.74 3.54-5.83 0.22-0.49 1.29-0.9 1.29 0-0.07 1.8 0.07 2.52 0.64 2.74 1.03 0.21 4.64-3.28 5.99-6.04 1-0.9 0.82 0.66 1 1.31 0.76 1.8 2.67 0 4.31-2.75 0.45-0.72 1.39-2.73 1.46-1.64 0 1.4 1.77 1.89 3.06-0.26 0.81-1.27 1.78-2.8 2.61-3.77 0.64-0.72 1.21 0.14 1.35 0.48 0.22 0.65 1.99-0.84 3.22-1.86 0.86-0.72 1.08 0.21 2.93-0.14 2.76-0.58 4.9-2.17 6.5-3.19" stroke="#111" stroke-linecap="round" stroke-linejoin="round" stroke-width=".5"/>
  <path d="m128.1 71.64c-0.25 2.24-0.55 7.24-0.34 11.34 0.07 0.86 0.79 0 1.04-1.56 0.45-2.38 1.2-6.37 2.39-8.41" stroke="#111" stroke-linecap="round" stroke-linejoin="round" stroke-width=".5"/>
  <path d="m139 82.1 0.31 0.45" stroke="#111" stroke-linecap="round" stroke-linejoin="round" stroke-width=".5"/>
  <path d="m130.6 93.82c1.5 0.21 3.35-3.81 4.97-5.24 0.89-0.67 1.33 0.34 1.55 1.23 0.35 1.3 2.29 0.73 3.15-0.6 1.27-2.01 3.62-6.45 4.64-9.6 0.34-0.86 0.7-0.36 0.43 1.1-0.27 1.32-0.36 2.7-0.57 4.12l5.44-3.58" stroke="#111" stroke-linecap="round" stroke-linejoin="round" stroke-width=".5"/>
  <path d="m143.3 103.9 0.22-0.15" stroke="#111" stroke-linecap="round" stroke-linejoin="round" stroke-width=".5"/>
  <path d="m110.7 121.2c1.96-3.25 4.79-6.4 6.28-7.19 1.14-0.32 0.69 2.55 1.95 2.18 1.17-0.41 3.62-2.98 5.14-4.21 1.46-1.16 2.92-1.6 4.08-1.95 1.96-0.72 6.23-1.29 10.01-3.86" stroke="#111" stroke-linecap="round" stroke-linejoin="round" stroke-width=".5"/>
  <path d="m86.59 114.7c-0.48-1.81 0.75-3.93 2.13-4.48 1.02-0.5 1.88 0.3 2.19 1.75 0.5 1.87 2.58-2.18 3.38-4.72 0.79-2.25 2.25-2.82 2.9-1.95 0.93 1.33 0.28 3.77-1.08 3.67-1.61-0.13-1.54-2.79-0.96-3.88 0.93-1.87 3.57-3.59 4.54-5.32 1.29-2.25 2.42-1.48 2.12-0.16-0.45 2.01-0.73 3.4-0.16 4.54 1.16 2.44 4.71-1.43 6.17-5.09 0.93-2.2 2.4-1.37 2.69-0.52 0.57 1.45 1.68 1.14 2.8 0.62 1.89-0.87 3.51-1.53 5.21-2.42" stroke="#111" stroke-linecap="round" stroke-linejoin="round" stroke-width=".5"/>
  <path d="m91.19 104.6-1.62 8.18" stroke="#111" stroke-linecap="round" stroke-linejoin="round" stroke-width=".5"/>
</svg>