<svg xmlns="http://www.w3.org/2000/svg" width="250" height="195" fill="none" viewBox="0 0 250 195">
<!-- SVG created with Arrow, by QuiverAI (https://quiver.ai) -->
  <path d="m250 0h-250v195h250v-195z" fill="#FEFFFE" fill-opacity=".5"/>
  <path d="m34.72 12.72c6.59 8.37 15.54 16.11 19.4 17.04 3.86 0.92 11.06-1.5 18.95 5.93 4.8 4.63 8.11 12.22 14.29 17.17 11.51-3.71 18.85-16.15 35.76-16.79 11.51-0.45 18.06 2.69 28.79 8.54 6.02-4.83 12.88-16.35 18.45-20.98 6.86-4.95 14.75-4.95 20.77-6.21 7.78-1.64 17.49-9.84 22.11-13.55 0.93-0.8 0.85 0.84 0 1.56-5.05 4.95-13.46 11.91-21.35 13.25-7.33 1.26-15.74 1.72-21.76 8.68-6.86 8.26-11.48 15.22-17.99 20.17-5.05 3.71-7.33 11.97-11.95 17.95s-6.88 10.93-3.17 14.64c4.62 4.63 12.04 4.17 18.06 1.99 8.84-3.28 13.97-14.1 21.3-21.95 2.27-2.55 7.33-6.71 9.09-6.71 0.93 0 0 0.86-0.91 1.32-1.84 0.93-4.1 2.25-5.01 3.57 2.77 0.93 7.16 1.82 9.42 1.82 0.46 0 0 0.46-1.35 0.46-2.26 0-5.77-1.35-8.07-2.28 0.91 3.21 8.8 8.17 11.06 11.88 1.35 2.49 1.81 5.1 2.72 6.82 0.91-3.28 1.37-8.7 1.82-11.32 0.46-1.33 0.46-0.87 0.46 0-0.91 3.08-2.28 8.04-1.82 11.75 1.82-3.25 4.08-6.01 5.43-7.33 0.46-0.46 0.91-0.46 0 0.43-2.26 3.19-5.43 8.22-6.34 15.58l-1.35 9.66c1.83-1.32 3.62-3.1 4.97-3.56 0.91-0.47 0.91 0.46 0.46 0.92-6.47 4.95-10.64 13.64-13.81 21.06-1.38 2.62-8.32 5.23-16.66 13.93-2.77 2.18-8.27 2.18-17.58 10.45-5.5 4.95-5.5 10.93-3.68 13.62 1.83 2.18 10.24-0.47 16.68-1.8 2.77-0.46 4.12-1.35 5.47-2.28-5.5 5.98-17.01 9.2-21.63 17.04-2.77 4.96-1.86 9.91 1.37 12.09 4.17 2.18 9.26-2.18 13.43-3.11-2.27 2.18-1.36 8.16 1.36 10.34 3.23 2.18 9.74-4.26 16.6-6.95 8.31-3.22 10.1-4.15 18.45-12 6.45-5.42 13.78-9.13 16.55-16.98 4.17-12.45 7.34-21.15 14.2-31.3 1.35-2.18 1.81-4.8 1.81-7.98 0.91 2.72 0.46 7.35-2.27 11.06-5.53 7.36-9.63 23.76-13.34 32.52-2.77 5.98-12.48 12.45-21.79 20.72-5.05 4.5-13.5 5.86-21.84 12.29-4.62 3.22-10.15 1.43-11.06-3.56-8.85 5.98-17.26 8.6-31.21 8.6-9.31 0-18.15-3.21-22.77-5.47 0 3.65-3.23 5.9-6.46 5.01-5.53-1.76-12.39-2.22-17.45-3.15-6.86-1.29-11.91-4.99-21.22-8.21-7.89-2.73-12.95-5.51-15.71-9.66-7.43-10.16-11.14-17.12-19.98-27.81-3.23-3.22-6.4-7.38-6.86-11.53-2.27-2.68-6.44-5.9-5.53-15.2 1.83-13.35 3.18-22.6 3.18-39.89 0-4.95-6.45-12.38-10.62-16.09-1.35-1.32-0.89-1.78 0-1.32 4.62 2.72 9.67 9.68 11.02 12.9 0-2.73-0.46-4.98-0.46-6.32 0-0.92 0.46-0.92 0.46-0.46 0.91 4.15 0.91 9.64 0.45 16.09-0.91 10.16-1.82 18.43-3.64 32.27-1.35 9.26 1.87 13.89 9.79 21.25 0.91 1.32 0.45 1.78-0.9 0.86-0.94-0.86-2.29-2.19-3.64-3.11 0.46 3.18 3.18 7.33 6.89 11.04 7.89 8.27 12.06 16.11 19.39 25.83 4.17 5.45 8.34 7.21 17.18 10.86 9.31 3.71 12.54 6.4 22.28 7.73 4.17 0.46 6.9 0.92 9.66 1.37-1.82-1.37-4.08-4.59-1.36-6.38 2.76-1.79 7.38-0.89 9.65 0 2.26 0.89 3.17 4.57 2.26 5.9 1.82-0.93 2.73-4.11 1.82-7.32 3.71 0.46 8.77-0.9 9.68-5.85 0.91-6.96-4.14-11.46-13.45-15.17-6.02-2.25-12.53-1.79-20.42-6.74 3.71 0.46 8.77 1.35 13.39 0.89 6.44-0.46 12.95 0.46 16.18-3.71 1.35-2.72 0-8.7-6.44-12.41-6.45-3.71-11.5-3.25-17.03-4.61-3.71-0.89-5.53-4.11-15.3-6.86-4.62-1.33-4.62-2.25-6.44-5.44-1.83-3.18-7.36-9.65-11.07-11.83-1.82-0.93-3.65-3.18-7.36-4.07-0.91-0.46-0.45-0.92 0.46-0.46 2.77 0.46 4.12 1.35 5.94 2.68-1.35-6.44-5.06-16.13-10.56-19.84-1.35-0.92-0.89-0.92 0-0.46 3.23 0.92 6.94 4.14 8.76 7.33-0.46-7.85-1.37-12-4.6-16.96-0.45-0.89 0-0.43 0.46 0 3.23 4.15 4.58 8.71 5.49 14.13 0.91-8.26 3.64-13.21 10.5-19.65-2.27-2.68-4.56-4.93-7.32-5.82-1.35-0.46-1.35-1.35 0-1.35 4.17 0.46 9.22 5.02 11.95 10.51 5.05 9.2 12.38 17.96 21.69 19.28 4.62 0.46 6.89-2.69 11.51-7.19 3.71-3.71 1.88-8.7-2.29-14.68-3.71-5.45-6-11.43-11.53-16.82-5.53-4.6-10.58-13.36-14.29-17.99-4.62-4.95-9.67-6.74-15.2-6.74-3.71 0-9.24-0.46-12.47-0.92-1.35-0.46-0.44-0.46 0-0.46 2.77 0 4.56-0.46 6.83-0.89-5.53-3.25-13.39-10.68-17.79-15.3z" fill="#B1BCA1" stroke="#222" stroke-linecap="round" stroke-linejoin="round" stroke-miterlimit="10" stroke-width="1.2"/>
  <path d="m177.3 58.41c0.46 3.21 8.35 8.17 10.61 11.88 5.05 7.85 1.34 17.57-0.48 24.04-1.83 6.44-3.65 11.46-6.42 16.95-2.73 4.95-8.75 6.28-14.77 14.54-1.35 1.76-5.06 1.76-8.77 4.01-1.82 0.89-6.88 4.05-9.14 6.3-3.23 3.22-4.58 6.44-3.67 11.39 0.46 2.19 1.81 2.64 3.63 2.19 5.06-1.33 10.59-2.69 14.3-3.58 4.62-0.93 9.67-5.88 17.06-9.59 6.89-3.71 15.23-5.5 19.4-10 6.02-6.44 10.64-18.42 16.2-23.94 0.91-0.92 0.91 0 0.45 0.93-6.89 10.16-11.06 22.61-18.39 28.59-5.53 4.15-13.42 6.81-22.73 14.2-6.02 4.96-7.37 5.85-14.26 9.56-6.86 3.22-12.88 7.37-14.67 12.33-0.91 3.21-0.45 7.37 2.28 9.13s6.44-0.93 10.61-2.72c3.71-1.79 7.88-2.25 12.93-5.47 8.34-4.95 17.65-11.91 26.5-17.43 7.42-4.6 9.68-12.44 21.65-30.64 0.46-0.92 1.37-0.92 0.46 0.44-6.86 11.09-8.68 23.07-13.74 31.83-2.76 4.56-12.95 11.46-19.84 17.44-4.62 4.53-9.24 6.32-13.86 8.57-4.17 1.76-6.43 5.47-8.73 5.93-2.76 0.46-4.58-1.33-5.04-5.48-0.45-3.71 1.81-6.4 5.52-7.76-3.23 0.46-8.76 2.71-11.99 4.5-3.71 1.79-7.42-0.46-8.33-4.17-1.35-5.98 2.36-11.5 9.69-16.1 6.02-3.71 10.64-5.96 13.41-9.18-2.27 1.36-7.32 2.72-11.98 3.61-4.62 0.89-8.79 2.68-10.61-0.47-1.83-3.28 0.44-10.71 8.33-15.27 5.53-3.25 8.76-4.61 11.52-5.93 4.17-2.18 6.9-7.63 15.24-12.59 3.71-2.18 3.71-8.16 9.73-15.12 2.77-3.71 5.03-5.5 6.85-7.29 0.91-0.93 0.46-1.82-0.45-0.93-1.83 1.33-3.18 2.65-4.53 3.98l1.35-11.98c0.46-4.56-1.81-12.86-5.04-17.39-2.26-3.22-5.49-5.94-8.76-9.65-0.91-0.46-1.37-0.46-1.52 0.34z" fill="#98A888" stroke="#222" stroke-linecap="round" stroke-linejoin="round" stroke-miterlimit="10" stroke-width="1.2"/>
  <path d="m231.3 54.01c-2.73 10.62-4.11 18.01-2.73 28.63 1.35 10.62 4.58 15.61 1.82 22.97-1.82 4.53-5.05 8.68-6.87 10.9" stroke="#222" stroke-linecap="round" stroke-linejoin="round" stroke-miterlimit="10" stroke-width="1.2"/>
  <path d="m245.7 50.27c-7.89 6.89-15.28 12.87-16.19 20.71" stroke="#222" stroke-linecap="round" stroke-linejoin="round" stroke-miterlimit="10" stroke-width="1.2"/>
  <path d="m184.1 69.82c-6.86-4.16-10.12 0.8-17.08 5.33-6.45 4.12-9.68 8.68-19.45 8.68 9.31 1.33 13.02-0.46 18.08-2.25" fill="#98A888"/>
  <path d="m131.4 84.75c4.17 4.96 8.34 5.88 14.36 6.34" stroke="#222" stroke-linecap="round" stroke-linejoin="round" stroke-miterlimit="10" stroke-width=".8"/>
  <path d="m174 107.5c-5.53 9.69-10.58 14.65-21.16 18.8" stroke="#222" stroke-linecap="round" stroke-linejoin="round" stroke-miterlimit="10" stroke-width=".8"/>
  <path d="m180 98.21c-1.35 5.45-1.81 7.24-3.16 9" stroke="#222" stroke-linecap="round" stroke-linejoin="round" stroke-miterlimit="10" stroke-width=".8"/>
  <path d="m192 122.6c2.26 1.36 3.17 3.12 3.63 6.83" stroke="#222" stroke-linecap="round" stroke-linejoin="round" stroke-miterlimit="10" stroke-width=".8"/>
  <path d="m195.2 121.2c1.82 1.36 2.28 2.72 2.28 5.97" stroke="#222" stroke-linecap="round" stroke-linejoin="round" stroke-miterlimit="10" stroke-width=".8"/>
  <path d="m198.5 147.1c0.46-2.25 0.92-3.61 2.27-4.97" stroke="#222" stroke-linecap="round" stroke-linejoin="round" stroke-miterlimit="10" stroke-width=".8"/>
  <path d="m201.2 146.7c0.45-1.36 0.45-2.28 1.37-3.15" stroke="#222" stroke-linecap="round" stroke-linejoin="round" stroke-miterlimit="10" stroke-width=".8"/>
  <path d="m223.4 80.12c0.91 4.16 0.45 8.31-1.37 12.02" stroke="#222" stroke-linecap="round" stroke-linejoin="round" stroke-miterlimit="10" stroke-width=".8"/>
  <path d="m117.8 162.8c4.62 2.69 8.33 2.23 12.04 1.34" stroke="#222" stroke-linecap="round" stroke-linejoin="round" stroke-miterlimit="10" stroke-width=".8"/>
  <path d="m64.55 89.92c-3.23 4.56-2.32 14.72 0.91 18.87" stroke="#222" stroke-linecap="round" stroke-linejoin="round" stroke-miterlimit="10" stroke-width=".8"/>
  <path d="m77.58 96.81c8.84 0.92 15.73-1.87 19.9-5.58 7.33-5.98 11.95-12.45 11.95-20.75" stroke="#222" stroke-linecap="round" stroke-linejoin="round" stroke-miterlimit="10" stroke-width="1.2"/>
  <path d="m105.3 53.45"/>
</svg>