<svg xmlns="http://www.w3.org/2000/svg" width="250" height="142" fill="none" viewBox="0 0 250 142">
<!-- SVG created with Arrow, by QuiverAI (https://quiver.ai) -->
  <path d="m250 141.8h-250v-141.8h249.9l0.09 141.8z" fill="#FEFFFE" fill-opacity=".69"/>
  <path d="m163.9 26.45c0.81 10.46-2.76 21.51-13.82 26.34-5.88 2.73-12.02 3.45-16.81 10.14-6.26 8.53-6.35 19.86-17.9 30.98-2.32 2.27-4.26 3.36-5.86 4.17 9.76-5.1 16.54-15.47 20.24-25.37 3.96-10.64 10.1-13.73 18.15-16.73 12.8-4.57 16.85-12.92 16-29.53z" stroke="#1D1D1B" stroke-miterlimit="10" stroke-width=".6"/>
  <path d="m194.6 15.81c-6.96 4.57-12.92 11.88-15.7 21.37-3.44 12.08-5.8 20.52-19.29 23.52s-20.9 5.09-28.86 22.36c-8.57 19.06-25.64 28.91-43.65 32.09-8.84 1.65-13.72 1.83-23.39-2.38-11.81-5.23-21.31-16.05-24-28.86-3.56-16.43 3.49-31.48 17.99-37.75 9.41-4.12 18.43-3.01 26.12 5.61 6.44 7.4 5.59 18.22-1.55 25.35-5.61 5.58-11.39 5.85-16 1.7-4.14-3.79-6.07-7.63-3.47-13.12 1.37-3.18 6.25-3.36 7.62-0.63 1.09 2.36 0.46 3.91-1.47 4.27-1.74 0.37-3.2-0.72-3.74-2.9" stroke="#1D1D1B" stroke-miterlimit="10" stroke-width=".6"/>
  <path d="m241 2.22c-18.01 3.49-38.8 13.95-49.77 35.41-5.87 11.63-7.33 23.53-20.17 29.8-8.75 4.39-15.89 3.2-28.82 13.66-11.71 9.66-16.96 23.52-34.48 33.01-1.74 0.92-3.29 1.64-4.66 2.27 12.75-3.96 23.06-12.58 31.62-24.21 9.32-12.98 19.45-13.07 33.59-16.48 16.6-4.22 21.66-11.62 31.42-27.53 9.41-15.47 22.53-23.46 38.95-25.2h8.28c0.85 0.09 0.22 1-0.96 1-19.14 3.83-32.82 13.23-44.89 34.86-8.28 15.36-17.03 20.83-33.74 23.89-14.96 2.91-22.37 7.65-32.04 21-11.36 15.55-33.34 22.41-47.84 22.41-13.02 0-21.3-1-29.36-5.05 12.08 4.96 26.4 5.87 37.95 4.96 16.8-1.36 27.94-9.04 41.95-21.87 9.5-9.39 15.95-17.07 33.3-19.08 15.69-1.92 20.23-4.88 30.24-18.82 7.7-11.1 14.66-11.01 21.33-12.74l12.07-0.91c-12.84 2.46-22.07 4.11-32.01 19.04-7.79 12.07-13.66 15.57-23.23 15.02-7.61-0.45-14.37-1.64-20.72 2.03 7.23-2.9 12.1-0.98 19.95-0.35 9.85 0.82 16.4-2.23 24-13.48 6.77-9.84 13.54-3.67 23.94-1.85" stroke="#1D1D1B" stroke-miterlimit="10" stroke-width=".6"/>
  <path d="m219 89.8c-6.86 11.05-16.97 19.49-31.74 19.49-10.12 0-15.63-4.23-26.13-3.87-14.05 0.55-19.92 9.64-32.26 19.49-13.93 11.72-22.77 14.55-37 14.28-22.7-0.37-37.57-4.2-51.8-18.58-13.02-13.35-20.98-27.9-23.01-44.5-2.78-22.05 7.07-40.39 24.14-52.2 12.65-8.63 24.2-15.49 40.08-13.66 14.96 1.82 25.83 14.65 34.76 32.57 7.32 14.8 4.06 33.13-9.06 44.26-10.88 9.14-21.94 16.71-34.87 13.04-11.15-3.4-19.11-12.14-22.07-24.17-2.87-11.63 3.69-20.89 14.39-21.62 6.76-0.45 11.46 3.93 11.1 9.18-0.28 4.47-3.84 6.75-7.29 5.56-2.12-0.72-2.57-2.55-1.39-4.01" stroke="#1D1D1B" stroke-miterlimit="10" stroke-width=".6"/>
  <path d="m210.1 50.81c0.63 12.12-4.88 26.67-14.73 36.27-8.84 8.73-14.18 6.63-21.6 4.63-10.69-3-21.39-1.82-30.62 9.51-11.97 14.8-25.92 26.61-45.7 29.56-16.42 2.55-34.13-1.4-47.43-13.76-12.93-12.14-19.98-27.68-21.82-42.32-2.51-20.46 7.89-36.52 23.67-46.57 11.72-7.47 24.93-8.11 36.2-2.02 11.55 6.45 19.06 18.17 21.75 33.06 2.78 14.91-5.87 28.81-17.33 36.28-9.76 6.58-19.88 6.76-28.62 0.18-8.84-6.87-13.17-15.31-11.89-26.47 1.09-9.45 8.89-13.01 15.03-11.45 5.87 1.55 7.42 5.61 5.87 9.27-1.46 3.38-5.25 3.1-6.8 1.46" stroke="#1D1D1B" stroke-miterlimit="10" stroke-width=".6"/>
  <path d="m197.7 118.4c-3.69 2.36-10.55 3.18-15.6 0.82-7.7-3.5-11.84-7.06-18.1-6.79-8.18 0.27-13.69 3.56-18.57 7.7 4.52-5.47 11.57-8.11 18.62-8.11s12.83 6.56 21.11 8.2c4.6 0.91 9.85-0.27 12.54-1.82z" fill="#1D1D1B"/>
  <path d="m8.02 60.7c-0.76-19.33 6.1-35.44 22.71-45.29 12.43-7.46 23.98-7.19 33.22-4.35 9.76 3.05 12.17 10.95 20.12 20.35 9.14 11.05 15.1 17.4 15.29 22.74 0.27 7.37-5.98 16.77-12.12 24.76-8.18 10.71-15.23 12.16-22.93 7.21-7.32-4.75-7.23-13.29-4.36-20.15 1.83-4.82 7.51-4.91 10.02-2.27 2.13 2.27 1.04 5.11-1.19 5.56" stroke="#1D1D1B" stroke-miterlimit="10" stroke-width=".6"/>
  <path d="m8.02 60.7c-4.88 10.22-8.14 23.01-3.26 34.74 6.56 15.64 19.31 22.54 34.17 24.63" stroke="#1D1D1B" stroke-miterlimit="10" stroke-width=".6"/>
  <path d="m8.48 60.15c2.23-12.98 8.99-24.03 22.67-33.43 12.93-9.06 17.81-17.6 32.76-23.07 7.05-2.73 19.12-3 27.3 2.06 9.95 5.47 13.41 12.33 16.96 21.72" stroke="#1D1D1B" stroke-miterlimit="10" stroke-width=".6"/>
  <path d="m105.5 30.04c-7.32-12.37-18.87-21.1-34.47-25.03" stroke="#1D1D1B" stroke-miterlimit="10" stroke-width=".6"/>
  <path d="m36.43 22.19c-13.58 10.04-25.39 21.95-27.32 37.24" stroke="#1D1D1B" stroke-miterlimit="10" stroke-width=".6"/>
  <path d="m8.93 62.06c0.85 12.88 6.36 27.28 19.21 35.9 10.12 7.1 18.49 9.3 28.25 9.3 14.62 0 27.54-4.59 37.56-18.01 9.02-12.35 11.16-24.83 6.11-39.08-5.15-14.54-15.94-24.09-29.99-27.49-12.93-3.38-27.79 1-38.1 11.63-10.7 11.24-17.15 24.77-15.5 39.41" stroke="#1D1D1B" stroke-miterlimit="10" stroke-width=".6"/>
  <path d="m18.12 75.31c0 13.58 5.5 28.84 18.43 38.43 10.6 8.32 19.83 9.32 29.59 8.32" stroke="#1D1D1B" stroke-miterlimit="10" stroke-width=".6"/>
  <path d="m27.05 70.26c0-15.2 7.79-30.74 21.37-41.21 9.51-7.46 20.55-8.67 30.4-4.92 12.07 4.74 20.12 13.09 24.15 27.19 4.34 14.93-1.91 30.66-12.96 41.12-9.5 9.14-21.75 10.78-32.2 6.31-12.16-5.32-19.77-15.55-22.55-29.68-2.87-13.92 5.78-27.82 17.33-36.44 8.84-6.96 19.24-7.77 27.99-2.81 9.75 5.63 15.63 14.69 17 27.25 1.27 12.14-6.87 23.66-17.37 30.05-8.28 5.23-17.12 3.04-23.47-3.82-6.86-7.63-8.6-16.59-4.96-26.88 3.36-9.4 12.49-11.4 19.26-8.67 6.54 2.73 10.23 9 9.28 17.36-0.95 8.35-7.2 12.82-11.98 12.01" stroke="#1D1D1B" stroke-miterlimit="10" stroke-width=".6"/>
</svg>