<svg xmlns="http://www.w3.org/2000/svg" viewBox="0 0 150 150">
<!-- SVG created with Arrow, by QuiverAI (https://quiver.ai) -->
  <style type="text/css">.cls-0 {fill:#97B28D;}
.cls-1 {fill:none;stroke:#555454;stroke-width:0.85;stroke-linecap:round;stroke-linejoin:round;stroke-miterlimit:10;}
.cls-2 {fill:none;stroke:#555454;stroke-width:1.42;stroke-linecap:round;stroke-linejoin:round;stroke-miterlimit:10;}
.cls-3 {fill:none;stroke:#555454;stroke-width:0.85;stroke-linecap:round;stroke-miterlimit:10;}</style>
  <path class="cls-0" d="m93.9 54.6c-0.6 0.4-4.8-7.8-0.4-14.6 4.8-7.4 13.3-8.7 17.4-9.9 3.7-1.1 8.6-3.8 8.6-3.8s2.3 10.8-2.4 18.9c-4.8 8.7-12.4 11.5-19.2 11.9l-4-2.5z"/>
  <path class="cls-2" d="m3.1 85.4c9.2 0.1 19.8-0.9 28.5-3.2 8.1-2 13.6-5.2 22-5.5 6.5-0.2 11.5 1.3 15.7 2.9 5.5 2.1 10.5 4.6 17.1 6.3 3.7 0.9 7.8 1.8 11.5 2.3 1.7 0.2 3.5 0.4 3.3 2.3"/>
  <path class="cls-3" d="m6.6 124.5c8.7-3.1 19.6-6.6 30.4-6.2 9.7 0.3 19.1 3 28.4 5 5.9 1.3 11.8 2.6 17.9 2.3 6.8-0.3 13.4-2.1 19.9-3.9 5.2-1.5 10.4-3.2 15.3-5.5 5.6-2.6 10.8-5.9 16-9.1 3.4-2.2 6.9-4.3 10.2-6.6 1.9-1.4 2.9-2.2 1.2-3.9-1-1-2.5-2.7-6-2.7-4.4 0-8.5 2.1-12.4 3.9-6.9 3.1-13.7 6.4-21.1 8-3.7 0.7-8.9 1.2-12.9 0.6"/>
  <path class="cls-3" d="m85.6 49.9c0.9 5.6 5.8 12.5 7.9 19.1 2.6 7.9 4.7 19.3 2.1 28.2-0.6 2.1-1.7 4.4-3.5 6.8-1.4 1.9-2.2 1.4-4.5 1-5.3-0.9-10.4-2.1-15.9-1.5-4 0.4-6.7 2.2-4.8 3.3"/>
  <path class="cls-1" d="m98.3 50.7c-3.1 6.9-4.7 13.9-3.4 22.7"/>
  <path class="cls-3" d="m99.4 91.3"/>
  <path class="cls-1" d="m95 90.8c-5.7-1.2-19.9-3.1-27-3.5-3.2-0.1-10.6-0.7-10.7 3.4 0 3.6 5.8 3.8 8.8 4 8.5 0.2 15.2 0.9 23.5 2.4 2.9 0.4 6.5 1.2 10.2 1.5 2.1 0 4.4-0.2 6.6-0.7"/>
  <path class="cls-3" d="m93.5 106.1c-2.4 1.2-5.3 4.2-7.9 6.6"/>
  <path class="cls-1" d="m98.4 50.7c-1.6 3-3.3 6.4-4.1 5.4-0.8-1.1-4.4-9.9 0.3-16.1 4.9-6.3 13.5-7.7 18.2-10.7 2.3-1.3 4.3-3.2 5.1-4.8 0.5-1.3 0.7 0 0.8 1.1 0.8 5.8 0.9 15.6-4.1 22.1-4.5 5.8-11.5 9.2-16.2 9.5-0.8 0 0.5-4.8 2.1-7.5 2.7-5 4.6-6.7 7.4-9.7 1-0.9 0.3 0-1.7 1.7-3 2.4-5.7 5.5-7.8 9z"/>
  <path class="cls-3" d="m98.4 50.7c-2.8 5.4-4.9 13.9-3.5 22.7"/>
  <path class="cls-1" d="m93.1 106.3c2.8-1.9 8.1-0.2 10.6-1.7 1.9-1 3.8-5 2.5-8.7-1.3-2.8-5.8-4.2-6.2-4.5-0.4-0.7 1.2 0 8.1-0.5 6.8-0.5 15.5-1.4 23.8-3.3 4.2-0.9 8.5-2.1 11.7-0.8 3 1.1 4.3 3.9 3.8 4.8"/>
  <path class="cls-1" d="m146.6 92.7c0.6-0.8-1.4-2.8-4.5-2.8-3.7 0-6.7 1.2-11.2 2.5-6.3 2-14.8 4.1-22.8 5"/>
  <path class="cls-1" d="m91.4 93.4c0 1.5-1.2 2.5-2.7 2.3-5.6-0.8-12.1-1.7-18-2-1.6-0.1-1.6-1.3-1.5-2.7 0.2-1.3 0.9-1.9 1.9-1.9 3.1 0 12.6 1 17.9 2 1.4 0.3 2.4 1.1 2.4 2.3z"/>
  <path class="cls-3" d="m144.1 94.1c0.8-0.2 2.5-1 2.5-1.4"/>
</svg>