<svg xmlns="http://www.w3.org/2000/svg" width="250" height="205" viewBox="0 0 250 205">
<!-- SVG created with Arrow, by QuiverAI (https://quiver.ai) -->
  <path d="m2.87 0h246.2v204h-246.2v-204z" fill="#FEFFFE" fill-opacity=".75" opacity=".6"/>
  <path d="m221.9 203.7 9.42-9.42h-8.6l-0.82 9.42z" fill="#F1F2F2"/>
  <path d="m197.8 15.01c-0.69-2.89-1.69-2.82-2.43-2.49-1.13 0.51-2.13 2.99-2.51 3.79-3.89 8.55-13.99 7.87-24.82 16.77-10.84 8.9-13.07 19.73-10.03 37.1 0.26 1.43 4.8 0.63 5.83 0.31 11.77-3.71 24.99-8.41 32.2-22.57 4.73-9.03 4.18-22.86 1.76-32.91z" fill="#9DBBAF"/>
  <path d="m244.8 140.5c-24.9-8.37-43.68-14.82-58.77-24.92-9.94-6.44-19.63-13.83-29.63-20.99-1.57-1.19-3.15-2.39-4.73-3.58 0.12 7.24 1.21 14.43 3.86 23.68 0.33 1.17-0.43 2.04-1.38 2.09-0.82 0.05-1.52-0.53-1.73-1.33-1.19-4.3-2.03-8.2-2.62-11.9-1.87 1.76-6.8 7.33-12.6 20.34-4.01 9.11-9.08 15.35-17.1 15.35-8.71 0-13.11-8.06-12.93-15.3 0.26-10.2 15.09-30.01 23.59-37.25 2.63-2.36 5.71-3.28 8.57-3.21-23.11-16.13-49.25-29.33-84.21-43.55-1.13-0.45-1.44-1.4-1.1-2.4 0.38-0.95 1.38-1.21 2.28-0.84 33.52 13.64 62.03 27.27 92.69 49.45 0.54-6.45 1.73-12.22 2.99-16.71-3.25-11.57-4.15-28.15 10.04-40.86 4.55-4.12 8.71-6.48 12.4-9.08 6.91-4.6 13.4-8.94 14.98-14.33 0.32-1.05 0.9-1.9 1.8-2.16s1.62 0.58 1.62 1.48c3.35 18.2 3.18 35.4-7.7 48.56-7.27 8.95-19.04 13.55-28.88 16.25-2.04 6.61-3.22 13.39-3.72 19.52 2.2 1.63 4.4 3.29 6.6 4.96 9.95 7.16 19.55 14.5 29.34 20.84 14.72 9.89 33.23 16.28 57.29 24.45 0.9 0.32 1.39 1.17 1.01 2.22-0.32 0.95-1.22 0.9-1.96-0.78zm-105-53.81c-2.76 0-5.44 1-7.69 3.11-8.34 7.39-21.53 25.6-21.69 33.93-0.16 7.05 4.34 12.55 10.94 12.34 7.21-0.21 11.01-7.66 14.31-14.71-5.9-1.33-13.47-6.38-14.61-8-2.69-3.86 5.82-15.27 9.4-17.87 3.4-1.33 12.5 1.65 16.51 10.39 1-0.9 2.05-2 2.43-2.43-0.64-4.5-0.9-8.57-1.01-12.38-2.81-2.05-5.23-3.91-8.59-4.38zm-16.03 24.72c1.37 1.9 9.14 6.61 13.27 6.87 2.86-5.13 5.72-8.68 7.97-11.09-3.35-8.01-10.26-10.21-12.79-9.31-3.35 2-9.35 11.83-8.45 13.53zm30.09-45.93c8.9-2.75 19.16-7.3 27.23-16.3 8.72-9.48 10.3-22.09 9.04-39.1-3.8 5.72-10.29 9.94-16.67 14.43-3.63 2.53-7.7 4.84-11.72 8.7-8.91 8.48-10.33 19.68-8.41 29.89 5.63-13.01 11.53-20.98 22.26-30.82 0.85-0.85 1.89-0.8 2.58 0s0.48 1.95-0.37 2.75c-10.51 10.15-17.11 18.65-23.94 30.45z" fill="#222325"/>
  <path d="m208.2 200.3c-37.35-2.36-65.11-10.69-91.84-28.48-12.23-8.01-20.2-15.21-27.98-21.55-16.68-13.97-25.59-22.15-48.28-25.37-11.1-1.57-19.66-4.74-26.15-11.4-7.97-8.17-9.96-18.48-8.87-27.92 0.11-1.14 0.38-1.62 1.28-1.78 1.14-0.21 1.99 0.84 1.83 1.94-1.73 9.28 0.9 19.16 8.31 26.4 6.18 6 13.7 8.36 24.16 9.88 23.53 3.12 32.29 10.12 50.03 24.83 7.67 6.39 15.5 13.49 27.51 21.4 25.46 17.68 51.47 25.59 89.79 29.05 1 0.11 1.58 0.74 1.53 1.74 0 0.8-0.53 1.33-1.32 1.26z" fill="#222325"/>
  <path d="m190.9 188.4c-22.62-2.36-42.63-10.42-65.36-25.18-0.9-0.58-1.17-1.68-0.63-2.63 0.53-0.85 1.67-0.9 2.57-0.21 20.84 13.92 40.48 22.4 63.63 25.02 1.01 0.11 1.59 0.8 1.48 1.85-0.1 0.8-0.84 1.27-1.69 1.15z" fill="#222325"/>
</svg>