<svg xmlns="http://www.w3.org/2000/svg" width="200" height="200" fill="none" viewBox="0 0 200 200">
<!-- SVG created with Arrow, by QuiverAI (https://quiver.ai) -->
  <path d="m172.9 52.97c5.28-13.83-4-30.24-18.3-34.2-9.49-2.8-19.33-0.48-25.83 5.94-4.85-12.29-15.12-20.36-30.61-20.99-17.32-0.71-31.43 11.76-33.01 28.54-2.73-1.87-6.17-3.1-9.85-3.1-10.01 0-18.08 8.15-18.08 17.98 0 0.94 0.13 1.89 0.25 2.83-2.12-0.7-4.37-1.3-6.86-1.3-13.43 0-24.47 11.64-24.47 24.24 0 10.07 6.5 18.01 16.64 19.76-0.49 1.75-0.98 3.49-0.98 5.24 0 10.8 9.92 20.99 26.15 21.5 7.47 0.25 13.25-2.78 16.94-6.19 4.73 10.55 13.88 18.25 29.37 18.25 14.43 0 25.47-6.68 30.71-17.11 5.11 5.8 11.61 8.25 18.84 8.13 12.33-0.24 23.01-9.71 22.87-22.43 13.3 0.85 27.37-9.58 27.37-23.89 0-11.4-8.81-22.56-21.15-23.2z" fill="#fff" stroke="#0F1214" stroke-linecap="round" stroke-linejoin="round" stroke-miterlimit="10" stroke-width="2"/>
  <path d="m172.7 54.45c4.04-8.63 0.61-21.23-7.84-28.93-9.92-9.23-26.76-9.84-36.17-0.49l-0.49 0.49c-4.36-12.47-15.4-15.39-27.25-13.4-12.83-0.95-24.68 7.92-30.83 22.83l-0.98 2.8c-2.97-3.54-7.33-4.14-11.49-3.19-8.57 1.22-15.92 7.55-17.38 17.62-0.25 0.94-0.37 1.43-0.37 1.43-1.58-0.49-3.4-0.85-5.1-0.85-11.61 0-20.17 10.43-20.17 21.33 0 5.96 2.59 9.62 2.59 9.62l-0.37 0.63c2.37 3.42 3.71 5.41 7.51 6.81l3.57 1.75c-0.61 9.95 5.85 19.06 16.15 21.26 5.98 1.45 12.25 0.12 16.86-3.3l5.63-1.23c5.51 10.07 11.63 17.76 25.3 19.63 12.09 0.49 25.27-5.37 31.54-15.92l1.23 1.37c5.6 5.98 14.05 7.97 22.24 6.4 9.92-2.1 19.23-10.85 19.23-21.05v-0.97c11.61 0.73 23.82-6.84 27.02-17.86 3.78-13.07-6.26-26.17-20.43-26.78z" fill="#B5C8CC"/>
  <path d="m179.1 59.11c-3.31-1.12-7-0.87-9.85-1.99 1.7-2.67 1.58-6.98-0.5-10.22-0.98-1.66-1.59-3.41-2.08-5.28-2.59-9.48-7.84-14.38-19.37-14.75-7.71-0.24-13.1 2.32-17.83 6.39-2.73-6.39-8.47-15.15-19.03-18.31-4.99-1.53-9.98-2.89-14.22-2.14-1.1 0.24-1.47 1.98-0.73 2.71 0.86 0.94 2.2 1.76 4.69 2 4.61 0.37 6.82 3.41 8.28 7.08 0.61 1.57 3.2 2.19 4.9 3.23 3.09 1.86 5.46 5.9 6.56 9.92 0.25 0.94-1.22 1.98-2.27 1.49-1.34-0.73-3.04-0.98-4.5-0.73-0.73-3.31-3.2-6.45-8.07-8.02-3.31-1.05-6.74-0.68-9.47 0.46-1.58-0.84-2.92-2.32-3.65-4.66-0.37-1.14-2.72-1.26-3.58-0.2-3.18 3.67-6.15 6.99-8.23 11.02-3.31 1.05-4.04 4.2-5.09 9.22-0.13 0.81-1.82 1.06-2.8 0.45s-3.07-0.48-3.93 0.46c-1.58 1.79-2.79 2.73-4.88 3.82-0.73-1.87 1.86-3.23 3.56-4.89 0.49-0.49 0.24-1.43-0.49-1.31-8.07 0.73-15.42 2.28-18.77 11.15-0.49 1.31 0.61 3.18-0.37 4.75-1.46 2.55-3.93 4.01-6.9 4.62-4.34 1.06-6.83 5.59-7.32 9.88-0.25 1.75 1.84 3.5 3.17 4.71-1.1 0.37-2.31 0.98-3.17 1.71-3.69-2.32-9.81-2.44-13.11-5.59-2.49-2.45-3.95-5.49-4.68-8.64-1.46 5.74-0.61 11.67 1.86 16.26l-0.37 0.63c2.37 3.42 3.71 5.41 7.51 6.81l3.57 1.75c-0.61 8.51 4.22 16.61 12.34 20.03-1.1-1.22-2.44-2.77-3.65-4.64 1.96 0.61 4.21 1.1 6.45 1.22 1.46 0.12 2.8-1.34 4.38-1.22 5.98 0.49 11.84-2.18 16.45-8.03 2.61-3.32 7.05-7.48 12.41-2.1 1.73 1.75 1.48 4.2 2.58 4.2 4.52 0 8.86 4.78 16.1 5.39 7.22 0.61 14.7-2.7 18.62-8.3 2.25-3.29 5.56-3.04 8.15-1.74 1.58 0.81 3.94-0.57 5.04-2.32 0.61 2.32 1.83 5.48 3.29 6.7 4.73 1.56 11.72 0.52 16.06-3.69 2.36-2.32 6.05-3.62 7.15-6.93-1.84-0.24-4.33 0.12-6.54-0.24-0.86-0.12-0.61-2.44-1.22-3.17-0.86-1.05-3.1 0.11-4.2-0.93s-3.06 1.28-4.04 3.03c-1.46 2.8-4.55 4.25-8.1 4.25-1.22 0-2.07-2.2-3.05-3.26-0.86-0.95-2.44 1.04-2.56 2.4-0.12 1.23 1.46 2.05 2.56 1.56 0.89-0.43 1.64 0.2 1.69 1.18 0.12 1.74 1.22 3.49 2.32 4.31 3.79 1.99 10.06 1.62 14.53-2 3.09-2.68 7.01-3.49 8.73-8.16 1.34-3.79 4.43-4.16 8.35-6.13 4.52-2.22 6.36-8.43 7.46-13.46 0.98-1.87 2.44-3.44 1.71-5.89-0.61-2.22-3.58-2.34-3.46-4.89 1.84 0.24 3.8-0.37 5.26-1.83 3.09 0.73 6.64 0.48 9.37 2.23 1.34 0.83 2.55 1.89 3.53 3.11 0.73-1.67-2.7-3.23-6.55-4.47z" fill="#D3E4E8" opacity=".3"/>
  <path d="m96.43 9.89c-11.73 0.36-22.77 8.18-24.86 19.46" stroke="#0F1214" stroke-linecap="round" stroke-linejoin="round" stroke-miterlimit="10" stroke-width=".75"/>
  <path d="m139.2 25.8c9.51-3.66 21.72 0 27.47 13.93" stroke="#0F1214" stroke-linecap="round" stroke-linejoin="round" stroke-miterlimit="10" stroke-width=".75"/>
  <path d="m167.7 45.36c-0.12 0.73-0.24 1.34-0.48 1.7" stroke="#0F1214" stroke-linecap="round" stroke-linejoin="round" stroke-miterlimit="10" stroke-width=".75"/>
  <path d="m47.71 36.27c-4.3 1.87-5.4 6.36-5.28 10.75" stroke="#0F1214" stroke-linecap="round" stroke-linejoin="round" stroke-miterlimit="10" stroke-width=".75"/>
  <path d="m15.94 59.72c-5.51 5.62-6.61 16.53 0.49 23.38" stroke="#0F1214" stroke-linecap="round" stroke-linejoin="round" stroke-miterlimit="10" stroke-width=".75"/>
  <path d="m27.45 97.09c-0.49 9 9.31 18.47 22.37 17.66" stroke="#0F1214" stroke-linecap="round" stroke-linejoin="round" stroke-miterlimit="10" stroke-width=".75"/>
  <path d="m55.92 112c0.73-0.61 0.85-0.74 1.09-0.86" stroke="#0F1214" stroke-linecap="round" stroke-linejoin="round" stroke-miterlimit="10" stroke-width="1.5"/>
  <path d="m94.6 125.8c9.54-0.25 18.69-4.78 23.15-12.85" stroke="#0F1214" stroke-linecap="round" stroke-linejoin="round" stroke-miterlimit="10" stroke-width=".75"/>
  <path d="m135.3 115.1c7.47 3.66 16.04 0.12 21.2-6.3" stroke="#0F1214" stroke-linecap="round" stroke-linejoin="round" stroke-miterlimit="10" stroke-width=".75"/>
  <path d="m183.4 64.89c5.99 6.32 4.77 17.72 0.13 22.75" stroke="#0F1214" stroke-linecap="round" stroke-linejoin="round" stroke-miterlimit="10" stroke-width=".75"/>
  <path d="m64.18 188.9c-1.46-2.11-3.04-3.17-5.63-3.17" stroke="#0F1214" stroke-linecap="round" stroke-linejoin="round" stroke-miterlimit="10" stroke-width=".75"/>
  <path d="m53.41 188-0.62-0.49" stroke="#0F1214" stroke-linecap="round" stroke-linejoin="round" stroke-miterlimit="10" stroke-width=".75"/>
  <path d="m104.3 196.3-2.25 0.49" stroke="#0F1214" stroke-linecap="round" stroke-linejoin="round" stroke-miterlimit="10" stroke-width="1.5"/>
  <path d="m126.2 188.3 0.49-0.37" stroke="#0F1214" stroke-linecap="round" stroke-linejoin="round" stroke-miterlimit="10" stroke-width="1.5"/>
  <path d="m121.8 186.2-1.96 1.87" stroke="#0F1214" stroke-linecap="round" stroke-linejoin="round" stroke-miterlimit="10" stroke-width="1.5"/>
  <path d="m126.5 135.6 1.22-0.49" stroke="#0F1214" stroke-linecap="round" stroke-linejoin="round" stroke-miterlimit="10" stroke-width="1.5"/>
  <path d="m123.4 133.7 2.73-1.87" stroke="#0F1214" stroke-linecap="round" stroke-linejoin="round" stroke-miterlimit="10" stroke-width="1.5"/>
  <path d="m121.7 145.1-1.46 0.61" stroke="#0F1214" stroke-linecap="round" stroke-linejoin="round" stroke-miterlimit="10" stroke-width="1.5"/>
  <path d="m123.2 147.9-0.24 0.24" stroke="#0F1214" stroke-linecap="round" stroke-linejoin="round" stroke-miterlimit="10" stroke-width=".75"/>
  <path d="m113.7 154.9-1.96 1.75" stroke="#0F1214" stroke-linecap="round" stroke-linejoin="round" stroke-miterlimit="10" stroke-width="1.5"/>
  <path d="m93.74 165c-13.3 0-26.48 9.47-26.48 17.54 0 5.72 6.5 8.18 17.89 8.18 9.63 0 30.47 0 30.47-8.54 0-7-10.92-17.18-21.88-17.18z" fill="#fff" stroke="#0F1214" stroke-linecap="round" stroke-linejoin="round" stroke-miterlimit="10" stroke-width="1.5"/>
  <path d="m73.12 179.2c-0.98 1.22-1.1 2.87-0.86 4.5" stroke="#0F1214" stroke-linecap="round" stroke-linejoin="round" stroke-miterlimit="10" stroke-width=".5"/>
  <path d="m75.48 180.3c-0.37 1.04-0.49 2.26-0.37 3.4" stroke="#0F1214" stroke-linecap="round" stroke-linejoin="round" stroke-miterlimit="10" stroke-width=".5"/>
  <path d="m78.07 175c-0.86 0.73-1.23 1.34-1.59 2.07" stroke="#0F1214" stroke-linecap="round" stroke-linejoin="round" stroke-miterlimit="10" stroke-width=".5"/>
  <path d="m82.81 171.9-1.58 1.75" stroke="#0F1214" stroke-linecap="round" stroke-linejoin="round" stroke-miterlimit="10" stroke-width=".75"/>
  <path d="m81.47 170.6c-2.36 0.73-4.32 2.18-5.42 3.93" stroke="#0F1214" stroke-linecap="round" stroke-linejoin="round" stroke-miterlimit="10" stroke-width=".5"/>
  <path d="m77.8 184.9-0.12 0.49" stroke="#0F1214" stroke-linecap="round" stroke-linejoin="round" stroke-miterlimit="10" stroke-width=".5"/>
  <path d="m80.77 185-0.12 0.49" stroke="#0F1214" stroke-linecap="round" stroke-linejoin="round" stroke-miterlimit="10" stroke-width=".5"/>
  <path d="m86.63 169.3 1.1-0.12" stroke="#0F1214" stroke-linecap="round" stroke-linejoin="round" stroke-miterlimit="10" stroke-width=".5"/>
  <path d="m91.55 175.5 0.12 0.24" stroke="#0F1214" stroke-linecap="round" stroke-linejoin="round" stroke-miterlimit="10" stroke-width=".5"/>
  <path d="m96.43 169.6 0.24 0.12" stroke="#0F1214" stroke-linecap="round" stroke-linejoin="round" stroke-miterlimit="10" stroke-width=".5"/>
  <path d="m102.1 170.9 0.61 0.24" stroke="#0F1214" stroke-linecap="round" stroke-linejoin="round" stroke-miterlimit="10" stroke-width=".5"/>
  <path d="m102.8 175.2 0.12 0.12" stroke="#0F1214" stroke-linecap="round" stroke-linejoin="round" stroke-miterlimit="10" stroke-width=".5"/>
  <path d="m107.1 174.8 0.12 0.37" stroke="#0F1214" stroke-linecap="round" stroke-linejoin="round" stroke-miterlimit="10" stroke-width=".75"/>
  <path d="m102.8 184.4-1.1 2.44" stroke="#0F1214" stroke-linecap="round" stroke-linejoin="round" stroke-miterlimit="10" stroke-width=".75"/>
  <path d="m105.6 184.4-1.22 2.22" stroke="#0F1214" stroke-linecap="round" stroke-linejoin="round" stroke-miterlimit="10" stroke-width=".75"/>
  <path d="m108.2 183.7-0.61 2.44" stroke="#0F1214" stroke-linecap="round" stroke-linejoin="round" stroke-miterlimit="10" stroke-width=".75"/>
  <path d="m110.5 182.6-0.37 2.55" stroke="#0F1214" stroke-linecap="round" stroke-linejoin="round" stroke-miterlimit="10" stroke-width=".75"/>
  <path d="m94.88 186.8-0.49 1.36" stroke="#0F1214" stroke-linecap="round" stroke-linejoin="round" stroke-miterlimit="10" stroke-width=".75"/>
  <path d="m91.57 186.8-0.37 0.94" stroke="#0F1214" stroke-linecap="round" stroke-linejoin="round" stroke-miterlimit="10" stroke-width=".75"/>
  <path d="m89.21 186.8-0.25 0.73" stroke="#0F1214" stroke-linecap="round" stroke-linejoin="round" stroke-miterlimit="10" stroke-width=".75"/>
  <path d="m98.79 187.1-0.37 0.61" stroke="#0F1214" stroke-linecap="round" stroke-linejoin="round" stroke-miterlimit="10" stroke-width=".75"/>
</svg>