<svg xmlns="http://www.w3.org/2000/svg" viewBox="0 0 150 150">
<!-- SVG created with Arrow, by QuiverAI (https://quiver.ai) -->
  <style type="text/css">.cls-0 {fill:#FFFFFF;}
.cls-1 {fill:none;stroke:#4D4D4F;stroke-width:1.688;stroke-linecap:round;stroke-linejoin:round;stroke-miterlimit:10;}
.cls-2 {fill:#B6D3A9;stroke:#4D4D4F;stroke-width:0.996;stroke-linecap:round;stroke-linejoin:round;stroke-miterlimit:10;}
.cls-3 {fill:#A9C99C;stroke:#4D4D4F;stroke-width:0.996;stroke-linecap:round;stroke-linejoin:round;stroke-miterlimit:10;}
.cls-4 {fill:#A9C99C;stroke:#4D4D4F;stroke-width:0.948;stroke-linecap:round;stroke-linejoin:round;stroke-miterlimit:10;}</style>
  <rect class="cls-0" width="150" height="150"/>
  <path class="cls-1" d="m144.9 7.4c-0.4-2.9-1.5-3.4-3.2-3.7-4.4-0.8-26.8-0.8-46.7-0.8-21.4 0-72.1 0.1-85 1.1-3.9 0.3-4.4 1.9-4.7 3.4-2.4 10.2-2.4 125.1 0.1 135.2 0.6 2.4 1.9 3 4.6 3.3 7.1 0.8 41.7 1.2 67.4 1.1 19.9-0.1 59.1-0.5 64.3-1.6 2-0.4 2.9-1.3 3.2-3.5 1.8-13.1 1.4-126.4 0-134.5z"/>
  <path class="cls-1" d="m16.3 16.1c-1.2 14.4-0.8 101.3 0.3 116.3 12.5 0.4 26.1 0.5 39.8 0.4l47.2-0.4c9.1 0 20.9-0.2 30.2-0.7 1.1-14.1 0.6-110.8-0.4-116-18.6-0.7-40.1-0.6-57.9-0.4-16.1 0-43.2 0.2-59.2 0.8z"/>
  <path class="cls-2" d="m38.5 129.1 28.4-10.6 40.3 5.1-26.9 15.3-13.5-3.6z"/>
  <path class="cls-3" d="m37.9 124.6c6.4-2 19.4-6.7 29.5-14.2 6.7 1.9 22.5 5.5 39.3 6.8-2.2 3.9-15.2 13.4-26.5 18.9-5.1-0.7-12.7-2.5-20.1-4.2-7.4-1.6-16.7-4.6-22.2-7.3z"/>
  <path class="cls-4" d="m80.3 136.2 26.9-12.6-5.8-0.9c-2.8 2.6-8 6.3-12.8 8.9l-8.3 4.6z"/>
</svg>