<svg xmlns="http://www.w3.org/2000/svg" width="250" height="250" fill="none" viewBox="0 0 250 250">
<!-- SVG created with Arrow, by QuiverAI (https://quiver.ai) -->
  <path d="m5.25 157.1c-0.36-17.06 7.97-34.02 29.06-39.49 12.41-3.36 26.97-2.84 37.48 6.1 12.12 9.84 13.4 21.06 12.02 35.19-1.79 13.21-13.1 28.21-31.9 32.71-20.73 5.19-45.73-8.16-46.66-34.51z" fill="#99BC9F"/>
  <path d="m9.32 142.8c-1.41 4.34-2.13 8.85-2.24 13.39 0.46-4.5 1.21-8.98 2.24-13.39z" fill="#FEFFFE"/>
  <path d="m29.11 123.1c4.87-3.77 10.68-5.88 16.65-5.95-6.05 0.74-11.78 2.87-16.65 5.95z" fill="#FEFFFE"/>
  <path d="m61.25 120c2.06 0.77 4.02 1.83 5.82 3.16-1.8-1.29-3.76-2.36-5.82-3.16z" fill="#FEFFFE"/>
  <path d="m79.01 138.1c0.96 3.8 1.52 7.69 1.74 11.61 0.22-3.95-0.38-7.94-1.74-11.61z" fill="#FEFFFE"/>
  <path d="m46.01 190.1c6.8-0.15 13.5-2 19.3-5.28-6.1 2.84-12.65 4.65-19.3 5.28z" fill="#FEFFFE"/>
  <path d="m244.1 129.2h-2.33c-4.52-10.3-10.48-22.21-14.75-32.69-6.8-16.56-12.95-34.26-21.91-54.24 5.88-3.57 10.04-8.37 10.23-11.62 0.18-3-3.57-4.89-5.32-1.89-4.27 7.47-7.98 8.99-18.3 8.7-10.85-0.32-19.5-5.05-34.71-5.05-10.85 0-17.87 1.94-26.56 8.46-1.31-2.62 0-3.75 0.3-5.74 1.01-6.28-3.91-17.42-6.24-19.57-0.56-0.51-0.75-0.52-1.31 0-4.11 3.93-7.31 14.32-5.56 19.38 0.82 2.62 2.33 3.81 0.53 7.01-0.33 0.62-0.62 1.28-0.86 1.94-8.21-2.73-24.17-0.74-38.68 10.06-11.24 8.45-21.61 18.7-32.99 16.81-6.92-1.14-7.06-3.61-9.49-3.32-3.11 0.39-3.93 5.55 0.8 7.44 2.57 1.02 4.27 1.64 6.99 1.69-10.8 23.38-25.7 49.15-35.88 86.53-1.7 0-2.42-0.29-3.19 0.74-0.92 1.23 0.29 10.27 4.91 18.91 7.97 14.98 23.17 18.4 34.26 18.01 27.1-0.97 39.9-22.27 41.7-35.54 0.33-2.37-0.24-2.79-1.45-2.74-0.67 0.05-1.54 0-1.54 0-8.91-26.43-20.53-45.53-32.6-76.33-0.73-1.89-1.7-4.08-2.76-8.71 8.86-0.34 16.54-3.76 28.76-11.18 12.7-7.99 21.9-11.09 34.7-10.33 2.86 0.19 5.49 0.53 7.23 1.95 1.94 2.47 2.27 8.09 0.96 24.89-1.69 23.98-2.46 83.42-2.7 116.3-0.1 12.11-5.92 14.89-24.07 17.99-10.99 1.94-20.23 3.78-24.7 13.48-0.82 1.94-0.43 3.17 0.58 3.03 0.87-0.14 0.82-0.24 0.97-0.24 28.84 0 68.85-0.85 112.6-0.85 1.41 0 0.58-4.69-2.76-7.59-5.25-4.53-11.03-5.35-20.83-6.95-13.44-1.99-26.49-3.07-26.49-17.85 0-6.13 0.78-5.32-0.24-23.22-1.41-25.77-2.67-72.54-2.86-116.6 1.21-1.08 1.59-3.07 2.42-4.91 7.42-7.22 16.33-11.65 33.86-11.65 10.12 0 20.1 2.57 35 0.96 1.31-0.14 2.57-0.43 3.83-0.86-10.32 24.08-25.72 53.53-37.15 86.97-0.77 0-2.47-0.29-3.04 0.58-1.31 2.04 1.46 14.82 11.26 25.71 9.1 9.95 20.53 12.42 30.23 12.13 22.97-0.72 38.26-18.33 40.4-34.23 0.38-2.89 0.19-5.75-1.27-5.75z" stroke="#1A1A1A" stroke-linecap="round" stroke-linejoin="round" stroke-miterlimit="10" stroke-width="2"/>
  <path d="m129 52.74c0.48-3.93-0.09-7.93-1.74-11.52-1.16-2.47 1.36-4.21 1.98-6.78 1.12-4.73-2.94-14.33-4.99-17.43-0.48-0.72-0.67-0.67-1.14 0-3.11 4.53-5.93 12.7-4.37 17.81 0.77 2.72 2.18 3.39 0.72 6.3-2.53 5.1-3.45 13-0.72 17.01" stroke="#1A1A1A" stroke-linecap="round" stroke-linejoin="round" stroke-miterlimit="10" stroke-width="2"/>
  <path d="m166.2 130.9c18.7 0.44 50.17-1.7 73.71-1.85" stroke="#1A1A1A" stroke-linecap="round" stroke-linejoin="round" stroke-miterlimit="10" stroke-width="2"/>
  <path d="m7.74 163.9c10.47 0.77 49.44-0.83 76.42-0.88" stroke="#1A1A1A" stroke-linecap="round" stroke-linejoin="round" stroke-miterlimit="10" stroke-width="2"/>
  <path d="m236 139.4c-3.85 9.75-7.14 13.87-15.83 19.17" stroke="#1A1A1A" stroke-linecap="round" stroke-linejoin="round" stroke-miterlimit="10" stroke-width="1.5"/>
  <path d="m13.71 172.1c4.01 8.59 8.23 13.5 16.4 16.7" stroke="#1A1A1A" stroke-linecap="round" stroke-linejoin="round" stroke-miterlimit="10" stroke-width="2"/>
</svg>