<svg xmlns="http://www.w3.org/2000/svg" width="250" height="161" fill="none" viewBox="0 0 250 161">
<!-- SVG created with Arrow, by QuiverAI (https://quiver.ai) -->
  <path d="m75.77 54.09c-33.06 0-62.45 24.53-70.09 51.82-5.56 20.4 5.06 35.9 30.44 42.4 15.59 4.32 32.74 8.75 64.61 8.75 38.73 0 77.39-7.08 87.88-24.63 9.51-15.96-8.62-36.02-31.9-51.51-23.09-14.88-50.52-26.83-80.94-26.83z" fill="#A8CCAC" stroke="#000" stroke-miterlimit="10" stroke-width="3.2"/>
  <path d="m22.01 39.81c13.08-10.08 27.73-15.88 44.08-16.21 20.03-0.4 30.14 6.47 45.97 12.44 10.72 3.74 23.25 7.7 36.85 7.7 13.95 0 24.24-4.5 33.18-13.63" stroke="#000" stroke-linecap="round" stroke-linejoin="round" stroke-width="3.5"/>
  <path d="m69.81 14.31c3.35-0.37 6.73-0.41 10.09-0.12 14.19 1.19 26.02 7.95 36.46 11 6.85 2.12 13.65 1.42 17.95-1.1" stroke="#000" stroke-linecap="round" stroke-linejoin="round" stroke-width="3.5"/>
  <path d="m161.4 4.09c-8.39 0-13.25 6.83-13.25 13.03 0 7.35 5.63 11.94 12.94 11.94 8.05 0 12.75-7.43 12.75-12.53 0-7.12-5.94-12.44-12.44-12.44z" stroke="#000" stroke-miterlimit="10" stroke-width="3.5"/>
  <path d="m28.64 95.21c10.72-17.32 27.09-27.13 47.21-27.95 0.63-0.03 0.27-0.01 0.46-0.02" stroke="#000" stroke-linecap="round" stroke-linejoin="round" stroke-width="3.5"/>
</svg>