<svg xmlns="http://www.w3.org/2000/svg" width="250" height="250" fill="none" viewBox="0 0 250 250">
<!-- SVG created with Arrow, by QuiverAI (https://quiver.ai) -->
  <rect width="250" height="250" fill="#fff" fill-opacity=".6"/>
  <path d="m12.92 146.3c2.77 6.98 6.8 12.36 16.14 14.45 8.55 1.95 12.15 4.9 10.12 13.93-0.99 4.49 6.53 8.47 9.11 2.39 1.96-4.66 4.98-2.39 6.84 2.98 3.7 11 10.75 17.27 19.86 18.34-3.81 5.36-14.64 10.57-28.11 10.84-14.9 0.32-30.1-7.53-36.33-21.57-6.84-15.44-1.48-31.15 2.37-41.36z" fill="#8CB298" stroke="#1D1D1B" stroke-linecap="round" stroke-linejoin="round" stroke-width="2.6"/>
  <path d="m17.77 195.8c2.35-0.62 2.84-0.57 5.21-0.62" stroke="#1D1D1B" stroke-linecap="round" stroke-linejoin="round" stroke-width="2.6"/>
  <path d="m21.77 174.9c8.72 16.27 23.12 24.81 41.22 24.98 3.74 0.03 6.92-0.33 12-1.54" stroke="#1D1D1B" stroke-linecap="round" stroke-linejoin="round" stroke-width="2.6"/>
  <path d="m120.7 212.1c4.48-4.87 8.34-5.91 15.13-5.53 8.75 0.51 14.85 7.82 14.66 14.66-0.24 8.72-8.74 13.53-16.8 12.37-3.96-0.55-5.91-1.23-7.66-2.53 1.75-7.92-1.39-13.28-5.33-18.97z" fill="#FEFEFE" stroke="#1D1D1B" stroke-linecap="round" stroke-linejoin="round" stroke-width="2.6"/>
  <path d="m128.6 211.9c2.71-1.11 6.16-1.66 9.2-0.41" stroke="#1D1D1B" stroke-linecap="round" stroke-linejoin="round" stroke-width="2.6"/>
  <path d="m141.7 213.8c0.61-0.12 1.13 0.1 1.13 0.49" stroke="#1D1D1B" stroke-linecap="round" stroke-linejoin="round" stroke-width="2.6"/>
  <path d="m120.7 212.1c-5.74-5.36-10.62-7.45-18.24-6.99-9.64 0.59-18.77 6.94-25.8 13.26-7.91 7.24-9.67 19.32 3.37 22.8 6.02 1.77 9.56 1.34 17.02 1.34 11.84-0.07 26.54-2.24 29.03-11.44 1.7-7.31-2.2-14.38-5.38-18.97z" fill="#FEFEFE" stroke="#1D1D1B" stroke-linecap="round" stroke-linejoin="round" stroke-width="2.6"/>
  <path d="m78.93 226.1c3.65-5.78 9.01-9.03 14.37-11.38" stroke="#1D1D1B" stroke-linecap="round" stroke-linejoin="round" stroke-width="2.6"/>
  <path d="m106.5 235.2c5.36-0.55 11.31-3.59 13.66-8.37" stroke="#1D1D1B" stroke-linecap="round" stroke-linejoin="round" stroke-width="2.6"/>
  <path d="m98.27 186.4c-6.56 7.92-15.1 11.53-23.28 12.73" stroke="#1D1D1B" stroke-linecap="round" stroke-linejoin="round" stroke-width="2.6"/>
  <path d="m100.1 212.1c-1.04 0.35-1.71 0.54-2.65 0.66" stroke="#1D1D1B" stroke-linecap="round" stroke-linejoin="round" stroke-width="2.6"/>
  <path d="m149.3 187c-3.28-13.33 4.93-25.04 19.32-25.9 2.77-0.33 5.3-0.4 6.6-0.2 1.47 0.25 0.61 9.37-6.23 17.22-5.36 5.69-11.21 6.99-19.69 8.88z" fill="#8CB298" stroke="#1D1D1B" stroke-linecap="round" stroke-linejoin="round" stroke-width="2.6"/>
  <path d="m148.7 186.6c-2.26-15.44-10.31-23.98-24.95-23.7-1.86 0-3.16 0.16-3.62 0.28-0.94 0.28 0 10.33 6.51 17.31 6.37 6.43 13.45 7.12 22.06 7.12" fill="#8CB298"/>
  <path d="m148.7 186.6c-2.26-15.44-10.31-23.98-24.95-23.7-1.86 0-3.16 0.16-3.62 0.28-0.94 0.28 0 10.33 6.51 17.31 6.37 6.43 13.45 7.12 22.06 7.12" stroke="#1D1D1B" stroke-linecap="round" stroke-linejoin="round" stroke-width="2.6"/>
  <path d="m133.5 174.2c6.37 3.25 11.73 10.22 15.2 13.43-2.34 6.97-2.81 13.22 0 21.14 2.19 6.15 3.41 10.3 0 16.72" stroke="#1D1D1B" stroke-linecap="round" stroke-linejoin="round" stroke-width="2.6"/>
  <path d="m148.7 227.4c2.85 0.47 4.97 1.44 5.44 5.74 1.38 0.97 2.85 1.2 4.15 3.75" stroke="#1D1D1B" stroke-linecap="round" stroke-linejoin="round" stroke-width="2.6"/>
  <path d="m147.4 228.6c0.7 3.55 1.3 6.61-1.19 9.3-1.38 1.55 0 4.62 0.59 6.71" stroke="#1D1D1B" stroke-linecap="round" stroke-linejoin="round" stroke-width="2.6"/>
  <path d="m143.5 232.2c-0.59 2.09-1.79 2.78-3.02 4.87" stroke="#1D1D1B" stroke-linecap="round" stroke-linejoin="round" stroke-width="2.6"/>
  <path d="m149.9 183.8c4.48-6.43 8.97-10.3 14.33-13.41" stroke="#1D1D1B" stroke-linecap="round" stroke-linejoin="round" stroke-width="2.6"/>
  <path d="m172.2 114.6 12.73 13.33-8.06 8.54-13.3-13.33" fill="#FEFEFE"/>
  <path d="m172.2 114.6 12.73 13.33-8.06 8.54-13.3-13.33" stroke="#1D1D1B" stroke-linecap="round" stroke-linejoin="round" stroke-width="2.6"/>
  <path d="m184.4 128.5c3.55-2.95 7.87-1.18 11.73 2.69 12.73 10.64 26.61 21.8 42.45 39.94 5.95 5.86 6.11 14.4 0.16 19.18-4.8 4.16-12.86 3.47-17.35-1.02-13.87-11.89-27.21-25.82-43.64-42.72-3.55-3.87-4.02-8.36-0.16-12.23l6.81-5.84z" fill="#FEFEFE" stroke="#1D1D1B" stroke-linecap="round" stroke-linejoin="round" stroke-width="2.6"/>
  <path d="m219.3 163.8c7.56 6.98 14.67 12.84 12.81 19.81-0.31 0.9-0.55 1.18-0.72 1.18" stroke="#1D1D1B" stroke-linecap="round" stroke-linejoin="round" stroke-width="2.6"/>
  <path d="m212.4 155c0.94 0.36 1.89 1.43 2.75 2.33" stroke="#1D1D1B" stroke-linecap="round" stroke-linejoin="round" stroke-width="2.6"/>
  <path d="m165.2 23.01c24.75 25.45 27.6 63.48 6.7 90.16-21.5 28.31-61.83 31.26-89.52 12.5-28.28-18.14-39.41-53.03-26.11-80.66 16.43-34.89 52.85-46.78 82.34-37.65 10.22 2.96 19.12 8.32 26.59 15.65z" fill="#FEFEFE" stroke="#1D1D1B" stroke-linecap="round" stroke-linejoin="round" stroke-width="2.6"/>
  <path d="m153.6 38.91c18.33 19.15 21.26 48.05 3.49 69.1-16.42 19.15-44.71 17.26-63.04 4.21-20.9-14.81-30.35-37.61-23.98-60.01 6.37-21.05 23.38-31.69 41.1-31.69 16.43-0.32 31.3 6.66 42.43 18.39z" fill="#FEFEFE" stroke="#1D1D1B" stroke-linecap="round" stroke-linejoin="round" stroke-width="2.6"/>
  <path d="m76.16 63.94c-0.59 8.54 1.67 16.7 7.32 23.96" stroke="#1D1D1B" stroke-linecap="round" stroke-linejoin="round" stroke-width="2.6"/>
  <path d="m111.6 33.15c13.88-1.07 27.18 4.79 36.64 17.67 0.59 0.59 0.75 0.99 0.35 0.4" stroke="#1D1D1B" stroke-linecap="round" stroke-linejoin="round" stroke-width="2.6"/>
  <path d="m153.9 59.09c1.15 1.55 1.82 3.64 2.49 6.59" stroke="#1D1D1B" stroke-linecap="round" stroke-linejoin="round" stroke-width="2.6"/>
  <path d="m192.3 107.8c0.47-0.59 1.04-1.34 1.36-1.81" stroke="#1D1D1B" stroke-linecap="round" stroke-linejoin="round" stroke-width="2.6"/>
  <path d="m196.8 100.7c0.67-1.55 1.16-3.1 1.47-3.65" stroke="#1D1D1B" stroke-linecap="round" stroke-linejoin="round" stroke-width="2.6"/>
  <path d="m200 89.43c0.32-1.77 0.47-3.32 0.47-4.22" stroke="#1D1D1B" stroke-linecap="round" stroke-linejoin="round" stroke-width="2.6"/>
  <path d="m200 73.36c0.16 0.9 0.32 1.85 0.47 2.75" stroke="#1D1D1B" stroke-linecap="round" stroke-linejoin="round" stroke-width="2.6"/>
  <path d="m38.87 105.8c-3.95 8.54 0.54 20.19 9.04 23.45 3.86 1.55 8.95 0 9.81-2.95 0.95-2.95-0.91-4.5-3.25-4.5-3.86-0.32-5.09 4.77-3.56 9.87 2.12 5.86 6.6 8.48 13.36 8.71" stroke="#1D1D1B" stroke-linecap="round" stroke-linejoin="round" stroke-width="2.1"/>
  <path d="m40.34 52.91c0 0.97 1.47 1.4 1.87 0.27 0.49-1.21-0.6-2.44-1.55-1.77-0.39 0.32-0.39 0.91-0.32 1.5z" fill="#1D1D1B"/>
  <path d="m43.01 42.11c0 0.97 1.48 1.4 1.87 0.27 0.5-1.21-0.59-2.44-1.54-1.77-0.4 0.32-0.4 0.91-0.33 1.5z" fill="#1D1D1B"/>
  <path d="m46.21 35.21c0 0.97 1.47 1.4 1.87 0.27 0.49-1.21-0.6-2.44-1.55-1.77-0.39 0.32-0.39 0.91-0.32 1.5z" fill="#1D1D1B"/>
  <path d="m50.06 30.21c0 0.97 1.48 1.4 1.87 0.27 0.5-1.21-0.59-2.44-1.54-1.77-0.4 0.32-0.4 0.91-0.33 1.5z" fill="#1D1D1B"/>
  <path d="m53.92 25.21c0 0.97 1.47 1.4 1.87 0.27 0.49-1.21-0.6-2.44-1.54-1.77-0.4 0.32-0.4 0.91-0.33 1.5z" fill="#1D1D1B"/>
  <path d="m56.98 21.34c0 0.97 1.47 1.4 1.87 0.27 0.49-1.21-0.6-2.44-1.54-1.77-0.4 0.32-0.4 0.91-0.33 1.5z" fill="#1D1D1B"/>
  <path d="m61.91 16.56c0 0.97 1.47 1.4 1.87 0.27 0.49-1.21-0.6-2.44-1.54-1.77-0.4 0.32-0.4 0.91-0.33 1.5z" fill="#1D1D1B"/>
</svg>