<svg xmlns="http://www.w3.org/2000/svg" width="200" height="200" fill="none" viewBox="0 0 200 200">
<!-- SVG created with Arrow, by QuiverAI (https://quiver.ai) -->
  <rect width="200" height="200" fill="#fff" fill-opacity=".75"/>
  <path d="m195.4 161.5c-1.11-19.84-10.68-58.4-30.21-84.12-6.38-8.38-11.8-14.08-20.17-20.43-9.96-7.53-17.03-20.89-21.26-35-0.87-2.95-2.24-3.91-4.79-3.73-3.08 0.21-4.22 1.53-3.5 5.26 1.33 6.18 3.79 13.35 6.26 20.15-13.72-5.67-27.76-8.42-42.59-8.28-8.04 0.08-13.14 1.06-18.98 2.08-9.99 1.83-24.09-1.63-34.17-10.17-3.22-2.83-5.94-1.43-7.2 0.86-1.07 2.1-0.68 4.1 1.8 6.28 4.7 4.1 9.3 7.36 16.11 9.94-10.91 4.74-20.35 10.52-28.61 16.92-4.86 3.5-3.15 8.79 0.4 9.87 2.6 0.82 4.64-0.51 7.3-2.37 18.18-12.4 36.9-18.95 60.12-19.1 41.35 0 90.13 21.5 91.78 84.69" stroke="#191919" stroke-linecap="round" stroke-linejoin="round" stroke-width="3.3"/>
  <path d="m126 61.09c-11.05-12.07-24.24-19.33-49.07-18.98" stroke="#191919" stroke-linecap="round" stroke-linejoin="round" stroke-width="2.5"/>
  <path d="m166.3 92.71c8.41 16.1 10.78 32.1 6.97 51" stroke="#191919" stroke-linecap="round" stroke-linejoin="round" stroke-width="2.5"/>
  <path d="m170.1 170.9c5.08 4.36 11.94 5.34 17.11 3.4 4.94-1.85 8.61-6.38 8.08-14.32" stroke="#191919" stroke-linecap="round" stroke-linejoin="round" stroke-width="3.3"/>
  <path d="m130 118.4c-14.79 0.78-39.21 17.77-45.08 33.3-4.57 12.28 2.09 22.38 20.23 26.81 11.7 3.1 42.7 1.87 56.77-3.85 12.18-5.03 16.07-12.2 15.07-19.35-1.83-13.24-20.94-37.63-46.99-36.91z" stroke="#191919" stroke-linecap="round" stroke-linejoin="round" stroke-width="3.3"/>
  <path d="m133.8 129.5c12.22 0 22.49 8.23 28.61 19.57" stroke="#191919" stroke-linecap="round" stroke-linejoin="round" stroke-width="3.3"/>
  <path d="m64.88 125.4c-3.97-17.6 3.11-32.05 22.84-36.5 7.2-1.69 14.4-1.9 21.76-5.63 0.31 13.73-6.45 39.73-36.42 41.34l-8.18 0.79z" fill="#8CC09E" stroke="#191919" stroke-linecap="round" stroke-linejoin="round" stroke-width="3.3"/>
  <path d="m89.96 99.73c-12.75 6.9-23.03 17.98-26.25 27.01-4.98 8.98-5.8 19.69-4.98 37.13" stroke="#191919" stroke-linecap="round" stroke-linejoin="round" stroke-width="3.3"/>
  <path d="m52.12 138c2.76-14.1-3.21-27.9-21.7-31.79-6.38-1.36-10.31-1.21-19.2-4.61 0 12.4 5.36 33.5 27.39 35.58l13.51 0.82z" fill="#8CC09E" stroke="#191919" stroke-linecap="round" stroke-linejoin="round" stroke-width="3.3"/>
  <path d="m34.45 119.7c7.66 3.89 14.73 11.18 19.18 18.98 3.78 6.15 4.98 14.5 5.1 25.16-11.05 0.79-21.52 4.59-30.52 10.75" stroke="#191919" stroke-linecap="round" stroke-linejoin="round" stroke-width="3.3"/>
  <path d="m59.26 164.2c9.46-0.56 18.65 1.48 26.85 5.24" stroke="#191919" stroke-linecap="round" stroke-linejoin="round" stroke-width="3.3"/>
</svg>