<svg xmlns="http://www.w3.org/2000/svg" width="250" height="250" fill="none" viewBox="0 0 250 250">
<!-- SVG created with Arrow, by QuiverAI (https://quiver.ai) -->
  <rect width="250" height="250" fill="#FEFFFE" fill-opacity=".502"/>
  <path d="m122.5 5h1.08v7.11h-1.08v-7.11z" fill="#FEFFFE"/>
  <path d="m122.2 15.3h1.08v5.54h-1.08v-5.54z" fill="#FEFFFE"/>
  <path d="m122 26.41h1.35v15.93h-1.35v-15.93z" fill="#FEFFFE"/>
  <path d="m225.8 143h16.25v5.07h-16.25v-5.07z" fill="#FEFFFE" fill-opacity=".302"/>
  <path d="m226.7 145h13.05v2.2h-13.05v-2.2z" fill="#FEFFFE" fill-opacity=".102"/>
  <path d="m94.17 96.76 9.92-1.35 9.16 9.57c6.76 7.16 13.44 9.96 23.12 12.5 12.11 3.37 16.76 9.31 18.85 21.53 1.66 9.38 1.71 20.63 9.8 23.23 5.3 1.74 8.76-1.96 11.96-5.91l5.63 0.32 9.07-7.49-10.6-27.97-4.95-12.18c-5.35-8.94-11.16-7.6-21.06-9.82-9.4-2.15-19.18-1.2-29.1-7.07-7.59-4.59-11-8.94-20.94-7.77-6.11 0.71-11.85 3.76-11.51 10.31l0.65 2.1z" fill="#9A95BC"/>
  <path d="m54.63 155.1c3.25 9.29 12.98 14.07 29.46 15.28 12.22 0.9 17.03 1.97 19.86 4.44l-0.19 3.86 15.2 5.32h10.66c6.16 0 10.27-3.05 11.27-4.83l6.14-5.85c2.68-4.59 8.98-11.34 13.69-12.59l7.8 1.31 8.68-5.85 2.53-3.16 5.18-0.77 4.4-5.13-11.9-31.02c-4.94-10.16-8.6-13.81-21.52-15.85l-16.78-2.33c-9.04-1.42-11.83-2.81-17.97-7.4-6.43-4.89-10.76-7.17-20.13-4.32-6.9 2.2-6.84 3.85-7.27 5.93-0.45 2.11 0.1 3.05 0.1 3.05-12.53 2.82-24.33 10.76-30.88 20.1l-9.6 22.61c-2.09 5.24-1.15 11.21 1.27 17.2z" fill="#FEFFFE"/>
  <path d="m43.04 148.2c4.03-21.08 13.97-38.19 36.02-51.05 8.89-5 15-7.36 18.35-7.79 5.62-0.72 9.22 0.32 16.7 6.73 7.75 6.7 13.86 9.18 22.08 10.66 16.16 2.99 22.63 8.44 29.84 33.13 2.59 8.76 5.85 15.96 5.63 18.38-0.33 3.69-6.01 8.85-10.17 10.7-8.41 3.6-12.51 8.82-15.51 16.13-3.93 7.79-11.09 11.11-20.17 9-4.67-1.34-10.25-5.93-19.65-7.97-9.63-2.22-14.47-1.3-28.85-6.16-8.5-3.09-16.5-8.55-25.33-14.57-6.72-2.81-10.54-8.95-8.94-17.19z" stroke="#000" stroke-miterlimit="10" stroke-width="3"/>
  <path d="m93.95 90.13c0.77-4.76 5.44-6.84 13.62-7.94 8.54-1.48 14.6-0.62 24.22 4.28 7.22 3.77 12.01 6.24 23.62 7.05 13.43 1.12 21.51 4.61 27.62 19.6l9.68 26.14c2.65 6.7 1.95 11.5-2.49 16.69-6.23 7.31-12.02 11.21-16.56 7.14-1.67-1.28-2.59-3.09-2.44-4.9 0.27-2.95-3.37-9.67-6.2-19.18-6.5-21.87-12.31-27.39-28.7-30.49-8.93-1.48-14.13-3.78-22.96-11.43-6.11-5.39-10.27-7.07-18.48-6.03" stroke="#000" stroke-miterlimit="10" stroke-width="3"/>
  <path d="m128.4 69.58c-0.82-5.32 0.87-10.7 5.62-10.7 3.35 0 5.11 5.69 7.6 6.24 2.2 0.53 3.54-0.6 10.9-0.6 11.45 0 19.76 3.87 27.45 8.94 2.83 1.93 4.31 1.55 7.2 0.75 3.6-0.91 8.36-0.64 8.36 2.51 0 3.11-3.46 3.91-6.29 7.02-1.86 1.64-1.72 4.02-2.66 8.97-0.94 5.42-4.88 10.55-7.71 12.82" stroke="#000" stroke-miterlimit="10" stroke-width="3"/>
  <path d="m122.8 82.7c0.94-5.62 4.01-9.21 11.4-14.95" stroke="#000" stroke-linecap="round" stroke-miterlimit="10" stroke-width="2"/>
  <path d="m184.9 81.74c-5.76 4.34-10.15 13.38-10.94 17.87" stroke="#000" stroke-linecap="round" stroke-miterlimit="10" stroke-width="2"/>
  <path d="m186.9 96.98c4.67 1.2 10.3 3.28 12.2 4.77 3.23 2.42 3.72 11.17 3.5 16.34-0.22 4.53-3.82 7-9.44 12.17-2.09 1.48-3.99 2.35-4.2 1.41" stroke="#000" stroke-miterlimit="10" stroke-width="3"/>
  <path d="m199.4 104.1c-1.34 3.05-10.4 11.05-11.79 12.03" stroke="#000" stroke-linecap="round" stroke-miterlimit="10" stroke-width="2"/>
  <path d="m169.1 128.9c3.93 6.4 6.06 9.86 7.26 16.42 0.64 3.3 1.88 6.74 1.55 7.63" stroke="#000" stroke-linecap="round" stroke-miterlimit="10" stroke-width="1.08"/>
  <path d="m140.7 157c2.15 8.37 6.02 15.55 5.52 24.57" stroke="#000" stroke-linecap="round" stroke-miterlimit="10" stroke-width="1.08"/>
  <path d="m118.3 147c-2.59 5.61-3.24 11.97-2.55 20.79 0.6 6.29-0.1 9.49-0.92 12.18" stroke="#000" stroke-linecap="round" stroke-miterlimit="10" stroke-width="1.08"/>
  <path d="m55.23 131.8c-1.98 4.95-5.05 17.9-5.22 21.14" stroke="#000" stroke-linecap="round" stroke-miterlimit="10" stroke-width="1.5"/>
  <path d="m130.6 139.3c4.08 4.38 5.42 6.75 5.58 9.64" stroke="#000" stroke-linecap="round" stroke-miterlimit="10" stroke-width="1.5"/>
  <path d="m67.73 116.1c-3.35 2.73-7.64 7.08-8.85 9.73" stroke="#000" stroke-linecap="round" stroke-miterlimit="10" stroke-width="1.08"/>
  <path d="m139.3 84.35c2.73-2.9 7.73-3.92 12.39-5.98 0.35-0.15 0.21-0.96-0.27-0.74-4 1.88-10.01 2.85-12.65 5.71-0.59 0.62-0.19 1.63 0.53 1.01z" fill="#000"/>
  <path d="m148.8 85.61c4.54-4.13 9.55-4.7 16.27-5.12 1.39-0.11 1.23 1.43 0.17 1.54-6.34 0.54-10.39 1.03-15.57 4.24-0.94 0.59-1.45 0-0.87-0.66z" fill="#000"/>
</svg>