<svg xmlns="http://www.w3.org/2000/svg" width="250" height="250" fill="none" viewBox="0 0 250 250">
<!-- SVG created with Arrow, by QuiverAI (https://quiver.ai) -->
  <path d="m244.9 200c-10.92-11.05-19.97-23.08-24.84-37.56-5.18-15.47-8.75-31.45-11.78-47.51-1.54-8.04-6.04-17.04-8.59-25.29-4.64-15.24-8.62-28.67-12.82-42.4-1.76-5.84-5.17-10.93-10.94-10.5-7.29 0.54-10.46 9.17-10.03 15.18-9.3-13.01-17.5-25.75-28.98-41.71-3.22-4.45-6.74-5.77-9.82-5.52-5.95 0.48-10.38 6.95-11.34 12.7-1.29 7.98 2.08 15.9 5.95 21.56-9.61-5.04-21.05-11.86-31.2-17.29-3.71-2.04-9.39-2.45-12.75 0.24-7.66 5.94-7.53 18.04 1.86 28.11 7.19 7.74 18.48 10.58 28.08 16.92 5.62 3.71 11.07 7.88 15.1 11.57-8.63-2.39-17.9-0.75-26.62 0.89-9.39 1.87-19.38 4.87-28.37 8.35-7.11 2.8-17.26 6.68-19.81 13.21-2.76 7.35 3.75 12.53 9.7 14.24-13.53 1.02-26.5 5.11-30.95 16.8-3.52 9.25 3.01 16.5 15.42 17.97 5.89 0.85 10 1.06 16 0.92-5.77 2.93-8.96 10.28-6.5 16.29 2.81 5.47 8.04 7.47 14.61 9.23 11.44 3.34 21.8 7.05 30.57 11.49 11.11 5.76 19.1 16.09 32.2 21.47 9.03 3.92 18.66 5.05 27.19 9.78 10.36 5.75 17.03 14.06 23.36 25.92 1.55 2.88 5.38 1.31 3.74-1.82-7.19-13.01-17.34-25.65-33.07-30.85-7.99-2.9-16.17-4.1-23.56-8.44-11.34-6.51-20.33-16.13-34.95-22.26-4.72-2.04-9.16-3.82-15.05-6.32 2.81-8.2-2.42-15.41-12.57-16.14-2.71-0.22-5.43 0.15-7.07 0.89 3.22-4.83 9.93-8.78 20.84-8.78 11.91 0 20.77 6.87 30.86 11.23 8.14 2.97 18.33 1.87 24.63-6.93 7.3-10.33 6.63-25.85-2.4-35.39-6.1-6.39-12.09-12.14-20.9-12.14-7.3 0-18.78 1.39-27.9 2.82-8.59 1.71-21.73 4.01-29.12-3.78-0.86-1-1.41-2.11-1.67-3.11 8.81 1.82 18.86-5.14 18-12.93 13.49-5.43 29-8.47 40.69-9.36 15.21-1.11 29.78 8.96 45.51 20.49 2.9 2.24 4.54-1.68 2.19-3.15-9.6-7.35-16.4-12.44-29.2-18.92-5.63-8.03-23.83-18.73-35.4-25.16-10.1-5.75-18.3-12.57-17.44-23.27 0.26-2.55 1.3-4.6 3.15-6.32 1.29 6.82 15.35 14.12 22.37 7.64 1.04-0.95 1.43-1.54 1.93-2.08 12.19 6.77 24.39 13.06 35.49 20.36 8.54 5.51 13.41 13.44 19.4 22.3l12.2 20.3c1.75 3 5.02 1.34 3.42-1.85-8.24-13.78-19.01-31.78-28.61-40.03-5.67-4.99-11.03-7.49-16.98-10.83-5.67-7.98-10.81-17.72-8.5-27.46 0.77-2.99 2.52-5.28 5.47-5.97-0.59 7.35 4 15.56 11.1 16.15 2.5 0.2 3.88-0.8 4.78-1.85 11.13 17 22.27 32.06 32.63 47.53 4.59 6.82 8.09 15.45 11.27 24.03 1.18 3.28 4.69 1.86 2.89-1.92-5.27-12.69-10.67-23.44-18.66-35.49-1.19-6.1 1.16-13.98 6.79-15.8-0.86 6.82 2.04 17.2 10.8 16.51 0.5-0.05 0.9-0.2 1.21-0.41 6.19 19.09 11.91 39.29 17.72 55.2 6.33 17.99 8.42 39.23 17.45 61.02 4.68 11.19 12.12 21.08 19.42 28.05 1.8 1.77 4 0.5 2.4-0.82z" fill="#0A0B0D"/>
  <path d="m127.1 9.14c-0.45 5.71 3.08 11.77 9.07 12.02 1.55 0.05 2.41-0.64 3-1.7-3.27-4.49-7.05-10.01-10.57-11.34-0.72-0.3-1.45 0-1.5 1.02z" fill="#FEFFFE"/>
  <path d="m177.2 41.11c-0.54 4.98 1.67 12.05 6.81 12.41 1 0.05 1.55-0.34 1.65-1.08-1.7-5.29-3.7-10.67-7.22-11.93-0.68-0.25-1.13-0.15-1.24 0.6z" fill="#FEFFFE"/>
  <path d="m82.31 25.09c1.8 4.62 9.51 8.94 14.96 6.99 1.35-0.49 2.25-1.44 2.65-2.47-4.94-2.79-10.44-5.78-14.73-5.78-1.7 0-3.18 0.25-2.88 1.26z" fill="#FEFFFE"/>
  <path d="m51.83 102.6c7.19 0 15.08-4.49 14.88-10.97-5.67 2.09-14.2 5.22-15.59 10-0.3 0.74-0.3 0.97 0.71 0.97z" fill="#FEFFFE"/>
  <path d="m56.78 163.1c1.14 5.47 8.18 7.97 16.99 10.71 1.05 0.34 1.35-0.87 1.35-2.29 0-6.82-6.23-10.36-13.03-9.87-3.07 0.2-5.67 0.1-5.31 1.45z" fill="#FEFFFE"/>
  <path d="m31.11 134.8c2.1-9.69 14.3-17.38 34.9-17.38 13.8 0 27.86 3.59 27.86 13.33 0 9.1-13.05 16.69-30.17 16.69-15.21 0-35.19-1.62-32.59-12.64z" fill="#86C9AB" stroke="#0A0B0D" stroke-miterlimit="10" stroke-width="3.5"/>
  <path d="m170.8 118c4.24 2.7 5.64 8.71 6 12.64 0.2 2.49 1.6 1.54 0.9-0.15" stroke="#0A0B0D" stroke-linecap="round" stroke-miterlimit="10" stroke-width="3.5"/>
  <path d="m115.9 125.4c2.2 4.02 1.15 8.85-0.15 11.25" stroke="#0A0B0D" stroke-linecap="round" stroke-miterlimit="10" stroke-width="3"/>
  <path d="m105.1 122.8c4.77 4.31 3.97 14.54 1 18.13" stroke="#0A0B0D" stroke-linecap="round" stroke-miterlimit="10" stroke-width="3"/>
  <path d="m38.72 133c4.39-6.07 11.49-8.31 18.2-9.06" stroke="#0A0B0D" stroke-linecap="round" stroke-miterlimit="10" stroke-width="3"/>
  <path d="m18.13 124.9c-6 7.83-3.29 19.07 1.9 24.54" stroke="#0A0B0D" stroke-linecap="round" stroke-miterlimit="10" stroke-width="3"/>
  <path d="m7.09 135.9c-2.35 4.83-0.15 9.32 2.15 12.01" stroke="#0A0B0D" stroke-linecap="round" stroke-miterlimit="10" stroke-width="2.5"/>
  <path d="m75.27 140.1c5.67-1.37 9.19-4.31 10.94-8.29" stroke="#0A0B0D" stroke-linecap="round" stroke-miterlimit="10" stroke-width="3"/>
</svg>