<svg xmlns="http://www.w3.org/2000/svg" width="200" height="200" viewBox="0 0 200 200">
<!-- SVG created with Arrow, by QuiverAI (https://quiver.ai) -->
  <path d="m161.9 133.5c-1.34-5.74-3.75-14.82-3.94-15.22-0.44-1.12-1.62-1.48-2.61-1.03s-1.25 1.55-0.84 2.58c0.2 0.5 2.54 8.01 4.3 16.76 2.35 11.63 2.72 28.44-6.65 43.09-6.01 9.22-13.68 14.15-23.7 14.15-11.51 0-19.66-8.95-19.66-20.96 0-17.15 10.97-30.89 23.1-42.11 13.75-12.88 25.8-21.82 31.4-37.07 5.1-13.84 4.67-33.76-1.23-46.11-4.29-8.75-10.37-11.9-18.37-11.9-2.55 0-3.6-0.53-3.6-2.9-0.5-15.3-11.16-29.81-34.83-29.81-26.12 0-45.27 18.98-45.27 41.52 0 6.82 1.75 12.74 3.88 18.57 0.83 2.47 0.83 5.04-2.13 5.04-2.85 0-4.7-0.55-8.5-0.55-5.27 0-14.13 2.47-17.94 10.73-4.3 9.04-2.35 16.88 0.87 24.77 0.52 1.31 1.53 1.57 2.42 1.17 0.91-0.42 1.1-1.62 0.67-2.64-3.09-7.22-4.23-15.2-0.42-22.12 3.1-5.73 10.56-8 14.86-8 3.49 0 4.79 0.55 7.74 0.55 5.9 0 6.95-5.03 5.61-9.56-1.85-6.33-3.36-10.33-3.36-17.96 0-20.31 16.4-38.44 41.41-38.44 20.62 0 31.45 12.88 31.71 26.63 0.09 4.43 2.13 6.08 7.05 6.08 8 0 12.21 3.91 15.28 11.23 5.68 14.15 4.77 33.86-1.29 45.88-7.46 14.85-19.74 23.01-29.75 33.03-11.97 12.02-23.24 25-23.24 43.97 0 13.38 9.63 24.4 23.74 24.4 11.1 0 20.19-5.14 26.74-15.56 8.57-13.64 9.56-31.64 6.55-48.21z" fill="#99BEA4"/>
  <path d="m149.1 60.92c-0.66-7.74-2.88-11.96-6.5-11.96-6.37 0-7.2 8.75-9.32 27.82l-0.75 8.65c-0.25-2.37-0.25-4.44-0.25-6.71v-35.61c0-8.35-1.6-16.29-7.74-16.29-6.46 0-7.96 7.94-8.13 16.29l-1.51 33.02c-0.09 0.65-0.17 1.2-0.17 0.3l-1.17-47.44c-0.66-6.62-2.78-13.14-8.57-13.14-7.81 0-8.56 10.27-8.9 23.05l-0.51 38.68c0 0.34-0.09 0.49-0.17-0.45l-2.97-34.02c-0.98-8.05-3.11-15.27-8.55-15.27-6.14 0-7.99 6.82-8.07 15.27l0.51 48.6c0 5.04-0.09 11.37-1 15.7-2.12-2.37-5.2-12.27-8.91-18.2-3.99-6.33-8.63-8.15-12.73-8.15-5.99 0-8.53 3.52-8.36 6.29 0.25 3.06 2.46 7.29 4.4 12.02 3.41 8.04 5.96 14.57 8.31 24.59 2.72 11.32 7.91 20.66 15.58 29.51 5.57 6.43 9.48 11.46 10.63 21.58 0.91 7.84 0.33 14.17 0 18.81-0.09 1.2 0.66 2.05 1.64 2.05 0.99 0 1.74-0.75 1.74-1.75 0.57-7.33 1.08-17.91-1.89-27.45-2.64-8.45-10.01-14.58-14.84-22.09-6.29-8.85-7.88-16.48-9.9-23.5-2.87-10.42-7.22-20.11-11.02-29.81-1.67-4.26-1.33-6.23 3.16-6.48 3.89-0.2 8.45 3.82 11.4 9.95 5.44 11.42 7.56 18.24 10.94 18.24 3.58 0 3.75-6.92 3.75-21.31l-0.25-39.46c0-9.14 0-20.01 5.1-20.01 4.38 0 4.96 8.55 5.62 16.39l2.96 32.43c0.57 5.03 1.23 6.69 3.35 6.69 2.72 0 2.72-3.82 2.97-11.66l0.66-37.79c0.25-9.24 0.74-18.88 5.49-18.88 3.62 0 4.61 5.63 4.69 10.66l0.98 45.01c0.34 8.74 0.51 12.66 3.68 12.66 2.72 0 2.89-4.43 3.72-16.55l1.43-28.09c0.42-8.35 1.76-12.78 4.85-12.78 3.81 0 4.3 6.92 4.3 12.78v35.61c0 7.74 0.34 12.27 0.92 14.64 0.42 1.45 1.41 1.83 2.58 1.83 2.95 0 3.61-7.44 5.65-24.09 1.42-11.91 2.17-18.54 5.26-18.54 3.2 0 3.54 8.05 3.54 14.47v6.73c0 12.36-0.66 25.43-0.66 39.17 0 12.37-1.94 26.86-8.99 44.08-4.38 10.72-3.39 21.94-2.73 28.27 0.08 1.1 0.83 1.55 1.9 1.45 1.07-0.15 1.59-1.05 1.51-2.15-0.76-8.35-0.42-18.47 3.39-27.22 6.54-15.25 7.69-26.22 8.03-44.43 0.25-12.37 0.42-22.64 0.42-39.17v-6.73c-0.08-1.41-0.17-3.38-0.5-6.11z" fill="#000"/>
</svg>