<svg xmlns="http://www.w3.org/2000/svg" width="250" height="250" fill="none" viewBox="0 0 250 250">
<!-- SVG created with Arrow, by QuiverAI (https://quiver.ai) -->
  <path d="m147.7 103c0 29.19-14.77 50.74-38.7 61.12-15.11 6.7-28.87 7.65-44.94 3.92-7.33 9.73-16.67 17.17-28.89 19.92 5.94-7.92 8.4-15.25 7.87-26.74-21.2-7.48-39.24-25.47-39.24-55.07 0-31.91 27.19-60.06 74.33-60.06 38.83 0 69.57 17.23 69.57 56.91z" fill="#A9CCB2"/>
  <path d="m141.7 80.3c-9.29-22.22-31.56-33.29-63.69-33.29-43.95 0-72.84 25.83-72.84 58.8 0 22.12 12.88 42.05 34.77 50.25 0.56 0.23 1.06 0.45 1.17 1.05 1.06 6.2-2.41 19.86-11.05 28.28 8.14-1.26 21.55-7.51 31.34-21.22 0.6-0.83 1.31-0.54 1.96-0.38 5.75 1.47 10.91 1.97 16.74 1.97 28.1 0 38.74-17.67 45.57-44.74 6.73-26.73 22.39-48.74 61.31-49.15 32.13-0.35 59.1 23 59.1 53.96 0 20.95-12.67 38.93-33.41 48.29-0.83 0.39-1.3 0.64-1.24 1.62 0.57 9.31 5.4 19.17 13.07 26.6-11.83-2.46-22.8-8.93-32.14-18.28-8.75 3.07-15.25 4-23.44 3.8-18.85-0.46-34.21-6.93-44.15-21.65" stroke="#000" stroke-linecap="round" stroke-linejoin="round" stroke-width="2.6"/>
  <path d="m146.5 102.7c1.13 18.92-4.75 36.15-17.99 49.93" stroke="#000" stroke-linecap="round" stroke-linejoin="round" stroke-width="2.6"/>
  <path d="m237.8 115.3c4.15 14.35-0.31 31.9-12.34 43.44" stroke="#000" stroke-linecap="round" stroke-linejoin="round" stroke-width="1.6"/>
  <path d="m231 100.1c1.84 2.85 2.8 4.63 3.73 6.74" stroke="#000" stroke-linecap="round" stroke-linejoin="round" stroke-width="1.6"/>
  <path d="m35.46 63.97c-14.35 8.91-24.75 22.74-24.75 41.66" stroke="#000" stroke-linecap="round" stroke-linejoin="round" stroke-width="1.6"/>
  <path d="m43.41 60.01c3.71-1.73 6.37-2.45 8.53-3" stroke="#000" stroke-linecap="round" stroke-linejoin="round" stroke-width="1.6"/>
</svg>