<svg xmlns="http://www.w3.org/2000/svg" width="200" height="200" fill="none" viewBox="0 0 200 200">
<!-- SVG created with Arrow, by QuiverAI (https://quiver.ai) -->
  <path d="m197.3 99.78c0-17.1-11.01-31.52-26.52-36.09 0.15-1.21 0.24-2.45 0.24-3.7 0-12.68-10.25-24.86-23.29-24.86-5.55 0-10.66 1.73-14.74 4.72-9.01-14.64-23.92-26.89-45.82-26.89-27.85 0-49.1 22.95-49.1 50.49 0 1.74 0.1 3.46 0.28 5.16-17.31 4.67-30.05 20.31-30.05 38.1 0 19.1 14.73 36.3 35.69 37.19 1.74 11.82 10.3 21.97 22.25 25.31h5.21c0.27-4.3 2.53-13.38 7.27-26.55 4.57-12.72 6.78-22.49 5.28-25.02-3.04-5-11.02 20.28-15.78 24.66-3.29 3.08-4.49-1.01-2.89-7.49 6.85-23.6 13.94-34.69 27.66-36.7 15.24-2.38 25.76 2.26 32.13 14.11 3.67 6.71 6.97 15.85 9 22.59 2.02 6.75 0.68 11.6-2.61 9.61-4.44-2.59-11.03-23.35-15.12-26.78-3.63-3.11-2.87 5.55 1.43 19.19 5.21 16.78 10.97 33.05 10.97 46.08 0 5.25-2.17 8.13-5.47 8.13-3.29 0-7.39-4.23-10.95-18.03-4.24-16.26-7.33-25.07-12.58-25.07s-8.64 10-12.62 25.87c-2.84 11.09-6.21 17.23-9.77 17.23-3.91 0-5.95-3.43-5.95-8.68h-5.21c10.73 3.25 12.79 6.68 26.38 6.68h68.33c6.37-14.86 2.28-23.17 2.28-49.65 19.35-2.56 34.07-19.33 34.07-39.61z" fill="#D7BCE5"/>
  <path d="m191 95.49c0-16.38-11.18-30.81-29.21-35.48 0.31-1.55 0.48-3.15 0.48-4.79 0-12.68-9.7-25.88-23.95-25.88-5.89 0-10.25 1.52-13.64 4.61-9.01-15.67-22.88-24.99-41.81-24.99-26.6 0-49.35 21.22-49.35 48.76 0 2.04 0.16 4.04 0.41 6.01-16.86 4.21-28.92 19.39-28.92 37.18 0 18.32 13.61 36.47 34.99 37.2 1.22 11.35 8.7 23.3 23.73 28.14" stroke="#000" stroke-linecap="round" stroke-linejoin="round" stroke-miterlimit="10" stroke-width="4.3"/>
  <path d="m136.1 154.3c8.86 8.81 19.59 13.47 33.68 13.98-9.35-11.42-12.64-21.77-12.9-35.17 18.31-2.3 34.08-18.56 34.08-37.62" stroke="#000" stroke-linecap="round" stroke-linejoin="round" stroke-miterlimit="10" stroke-width="4.3"/>
  <path d="m99.78 86.17c8.34 0 14.13-7.66 14.13-14.41 0-8.34-7.02-14.85-14.13-14.85-8.86 0-14.11 7.8-14.11 14.85 0 8.35 7.02 14.41 14.11 14.41z" stroke="#000" stroke-linecap="round" stroke-linejoin="round" stroke-miterlimit="10" stroke-width="4.3"/>
  <path d="m123.3 190.7c3.84 0 5.47-4.19 5.47-8.35 0-12.48-6.72-30.8-10.97-45.86-4.3-15.06-4.55-21.12-1.43-19.88 3.84 1.55 10.93 23 15.53 26.04 3.56 2.3 4.22-3.5 2.2-9.72-6.99-22.79-13.3-39.05-34.33-39.05-17.62 0-25.06 8.08-33.04 35.3-3.29 9.32-3.02 13.47 1.05 13.47 5.08 0 12.42-26.04 16.79-26.55 3.56-0.44 0.54 11.51-5.48 28.8-5.13 15.06-7.97 26.75-7.97 37.45 0 5.25 2.35 8.68 5.71 8.68 4.57 0 7.87-6.98 11.43-21.52 4.01-15.75 7.74-22.6 11.51-22.6 5.76 0 8.6 9.32 13.17 27.64 3.3 12.48 7.34 16.15 10.36 16.15z" stroke="#000" stroke-linecap="round" stroke-linejoin="round" stroke-miterlimit="10" stroke-width="4.3"/>
</svg>