<svg xmlns="http://www.w3.org/2000/svg" width="200" height="200" fill="none" viewBox="0 0 200 200">
<!-- SVG created with Arrow, by QuiverAI (https://quiver.ai) -->
  <rect width="200" height="200" fill="#FAFFFE" fill-opacity=".6"/>
  <path d="m114.6 31.72c-5.65-3.05-14.13-1.63-22.74-1.24-14.01 0.68-23.14 3.9-35.63 14.73-2.92 2.63-3.86 5.04-6.36 8.9-6.92 10.88-15.27 21.45-19.74 33.6-2.17 5.92-3.31 12.3-2.88 18.4 0.4 5.6 6.98 11.55 10.5 11.55 5.2 0 10.4-1.88 16.4-1.44 6-1.16 9.6 0.96 13.8 3.84 7.2 4.8 11.31 12.42 11.31 20.65-1.01 7.98 0.49 17.22 5.49 26.6 5 8.4 13.2 11.31 22.6 10.87 11.2 0 17.9-1.47 29.6-7.92 10.3-4.35 20.1-10.8 28.3-22.55 7.2-9.85 14.4-17.6 15.8-34.65 0.9-15.15-4.2-30.3-13.1-41.6-3.6-4.35-8.7-7.7-14.7-7.7s-11.1-0.55-16.2-3.4c-3.1-1-6.7 0-9.4-3.85-1.8-1.9-2.3-4.75-3.2-7.15-2.3-6-4.2-14.3-9.85-17.64z" fill="#A2BEB0"/>
  <path d="m41.22 95.11-1.44 2.4 1.9 1.9 1.9-1.9-2.36-2.4z" fill="#A9C5B6"/>
  <path d="m41.68 84.26-0.95 0.95 0.95 0.95 0.95-0.95-0.95-0.95z" fill="#A9C5B6"/>
  <path d="m61.11 46.56-2.4 2.35 1.9 1.45 4.25-2.85-3.75-0.95z" fill="#A9C5B6"/>
  <path d="m145.8 62.81 12.7 1.4-1.45 0.95-8.4-0.45-2.85-1.9z" fill="#94B1A1"/>
  <path d="m164.7 67.06 2.35 0.95 0.45-1.4-2.8 0.45z" fill="#94B1A1"/>
  <path d="m109.8 17.66 6 0.95 0.45-1.4-6-0.45-0.45 0.9z" fill="#94B1A1"/>
  <path d="m63.86 31.91c10.35-4.75 22.55-6.15 35.2-6.15 0.9 0 0.9-0.95 0-0.95-12.2 0-24.4 1.4-35.2 6.15-0.45 0-0.45 0.95 0 0.95z" fill="#000"/>
  <path d="m196.7 30.01c-7.9-4.3-13.1-4.3-19.6-4.75-8.4-0.45-21.1-8.35-31.45-9.3-4.25-0.45-7.55 0.45-11.8 0.45-7.85 0-13.45 0.95-21.8-0.45-2.85-0.45-5.7-0.95-5.7 2.3-0.45 5.6 6.95 8.4 13.85 9.35-7.85 1.4-13 0.95-19 1.4-12.7 1.4-30.2 5.25-47.7 18.85-0.95 0.95 0 0.95 0.95 0 10.8-9.85 32.65-14.6 43.95-16.95 7.9-1.9 15.2-0.95 23.55-2.85 5.1-1.4 7.9-3.3 13.5-3.3 4.2 0 8.35-0.45 12.5-2.35 0.9-0.45 0.45-0.9-0.45-0.45-4.65 1.9-10.25 0.95-14.95 1.4-5.1 0.45-7.9 2.35-12.1 3.3-4.7-0.45-12.1-2.8-12.6-7.95 0-0.95 0.45-1.4 1.4-1.4 2.35 0.95 3.75 1.4 6.1 1.4 1.4 0 1.4-1.4 0.45-1.4-1.9 0-3.3-0.45-5.2-0.9 3.75 0 7 1.4 10.75 1.4 6 0 11.15-0.45 16.3-0.9 4.7-0.45 7.95-0.45 12.15 0.95 7.4 2.35 17.7 7.5 26.05 8.45 7.4 0.45 13 0.45 20.4 3.7 1.35 0.95 1.85 0.5 0.45 0z" fill="#000"/>
  <path d="m120.8 37.96c-4.7 0.45-8.4 0.9-13.1 2.3-6.9 2.35-13.4 4.7-20.3 7.05-3.75 1.4-7.05 0-6.6-3.3 0.95-4.25 9.3-7.05 15.3-8.95 5.15-1.9 8.85-3.3 12.1-4.7 0.95-0.45 0.5-0.9-0.45-0.45-4.25 1.4-7.5 2.8-12.2 4.7-6 2.35-13.4 5.15-14.8 9.85-0.95 3.3 2.8 4.7 6.5 3.75 7.85-1.9 15.25-5.2 23.6-7.55 6.45-1.85 19.6-2.8 22.4-7.05 0.45-0.95 0-0.95-0.95 0-1.85 2.4-7 3.8-11.5 4.35z" fill="#000"/>
  <path d="m134.4 47.31c-7.9-0.45-16.25 1.45-24.1 3.35-7.9 1.9-16.75 3.3-24.6 5.65-3.3 0.95-8 2.35-8-0.45 0-2.85 3.75-5.65 6.55-5.65 1.4 0 2.35 0.45 2.35 1.85 0 2.35-3.3 4.7-5.2 5.65-0.45 0.45 0 0.45 0.45 0.45 3.25-0.95 5.6-3.3 5.6-5.65 0-1.9-1.9-2.85-3.8-2.85-3.75 0-7.5 3.75-7.5 6.1 0 3.25 3.25 3.25 6.05 2.8 5.6-0.95 12.05-2.85 17.65-3.8 6.9-1.4 13.8-3.3 20.7-5.2 4.2-0.95 7.9-0.95 13.05-1.4 1.75-0.35 2.2-0.85 0.8-0.85z" fill="#000"/>
  <path d="m143.3 58.11c-4.7-0.95-8.9-0.5-14.05 0.45-8.35 1.9-17.25 3.8-25.6 6.15-3.75 0.95-7.5 2.35-10.8 1.9-2.85-0.45-4.25-2.8-2.35-4.2 1.4-0.95 3.3-1.45 5.15-1.45 1.4 0 2.35 1.4 1.4 2.85-0.45 0.95-1.85 1.4-3.25 1.85-0.45 0-0.45 0.45 0 0.45 1.9-0.45 3.75-1.4 4.2-3.3s-1.45-2.35-2.85-2.35c-2.35 0-6.1 0.95-7.05 3.3s1.4 4.7 4.2 4.7c5.15 0.45 11.15-1.45 16.3-2.4 7.4-1.4 15.75-2.8 22.65-5.65 2.35-0.95 5.65-1.9 6.1-1.4 0.95 0.45 0 1.4-0.95 1.85-5.15 2.8-12.1 4.7-18.55 6.15-5.15 1.4-9.85 4.2-9.85 7s2.8 3.25 5.6 3.25c8.85 0 17.7-3.75 26.05-6.1 5.6-1.4 10.75-0.95 16.75-1.9 7.9-0.95 15.75-3.75 23.15-8.9 3.25-1.9 7.45-3.8 12.15-3.35 0.95 0 0.95-1.4 0-1.4-5.15-0.45-9.4 1.45-13.1 3.8-7.4 5.15-14.8 7.95-24.1 8.4-5.55 0.45-9.8 0.45-15.4 1.85-8.35 2.85-16.25 5.65-24.6 5.65-2.35 0-5.15-0.45-5.15-1.85 0-1.9 3.3-3.8 6.1-4.25 6.9-1.4 15.25-3.75 21.25-7.05 1.4-0.95 1.85-2.35 0.45-2.8 1.4-0.45 3.3-0.45 5.15 0 1.45 0.5 1.9-0.9 1-1.25z" fill="#000"/>
  <path d="m164.2 73.96c-5.15 2.35-9.85 1.9-15.4 2.35-6.95 0.45-13.4 5.6-21.25 6.05-0.45 0-0.45 0 0 0 7.9-0.95 13.9-5.65 21.3-6.1 5.6-0.45 10.25 0 15.4-1.9 0.85-0.4 0.85-0.85-0.05-0.4z" fill="#000"/>
  <path d="m167.5 67.96c-0.45-0.95-1.4-0.5-0.95 0.45 6.9 17.05 12.9 30.2 11.95 50.6s-10.8 40.3-26.35 52.5c-4.25 3.3-8.5 6.1-11.75 8.5-0.95 0.45 0 0.45 0.45 0 20.4-10.35 36.95-29.8 39.3-56.9 1.8-19.9-2.85-35.5-12.65-55.15z" fill="#000"/>
  <path d="m196.7 120.4c-0.45 13.15-5.15 28.25-11.15 38.55-6.9 11.25-14.8 19.6-27.5 27l3.7-11.25c0.45-1.4-1.9-1.85-2.35-0.45l-5.15 13.6c-0.45 0.95 0 2.35 0.95 1.9l15.55-1.4c1.9 0 1.4-1.9-0.5-1.9l-10.8 1.4c17.9-11.75 34.9-31.65 38.15-61.65 0.05-1.45 0.5-4.3 0.05-5.7-0.05-1-0.95-1-0.95-0.1z" fill="#000"/>
  <path d="m3.41 120.8c-0.45 0.45 0 1.4 0.95 2.35 5.15 6.45 11.15 12.9 14.9 18.5 3.75 4.7 10.65 7.05 16.65 9.85 6.9 3.3 12.5 8.45 19.4 12.2 5.15 2.8 11.15 4.2 16.7 7.05 8.35 4.7 17.2 7.5 27.5 8.45 3.75 0.45 6.55-0.95 6.1-3.75-0.45-2.85-5.15-4.25-9.4-5.2-7.4-1.4-12.1-4.7-19-7.55-2.35-0.45-3.75-0.45-6.1-0.45-0.45 0-0.9 0.45 0 0.45 6 0.95 9.7 3.75 15.3 6.1 5.15 1.9 9.85 1.9 14.55 3.8 2.35 0.95 4.7 4.25 1.4 5.2-1.9 0.45-4.25-0.5-4.7-1.45-0.95-1.4 0.45-2.8 1.85-2.8 0.95-0.45 0.45-0.9-0.45-0.45-1.9 0.45-2.85 2.35-1.9 3.75-4.25-0.95-9.85-1.9-14.05-3.3-6.9-3.3-13.8-6.6-21.2-8.95-8.35-2.8-14.85-10.2-25.65-15.8-4.7-1.4-10.7-3.3-13.5-6.6-5.15-6.45-10.3-12.9-16.3-19.35-1.15-1.55-2.1-2.5-3.05-2.05z" fill="#000"/>
  <path d="m39.21 160.8c10.3 5.6 19.15 15.45 36.15 18.7 2.8 0.5 5.15 0.95 8.4 0.95 0.95 0 0.95-0.5 0-0.5-16.55-2.8-25.9-9.7-37.65-17.6-2.35-1.45-4.7-2.4-6.6-2.85-0.75 0-0.75 0.45-0.3 1.3z" fill="#000"/>
  <path d="m10.41 124.6c6.5 5.15 9.3 12.55 16.2 17.7 0.95 0.45 1.4 0.45 0.45 0-6.45-4.25-8.8-12.1-16.2-17.7-0.45-0.45-0.9-0.45-0.45 0z" fill="#000"/>
  <path d="m173.9 117.7c-0.45 13.15-5.15 27.25-13.5 37.55-3.75 4.25-7.5 8-12.2 11.75-0.95 0.95-0.5 0.95 0.45 0 13.6-10.35 25.8-25.45 26.25-48.4-0.05-1.35-0.5-1.8-1-0.9z" fill="#000"/>
  <path d="m182.3 60.41c3.7 0 6.95 1.4 10.65 3.3 1.4 0.95 0.45 2.85-1.45 1.9-3.75-2.35-7.5-3.75-11.25-4.25-0.95-0.45-0.5-1.4 0.45-1.4l1.6 0.45z" fill="#000"/>
  <path d="m13.71 88.46c3.75 8.35 9.75 17.7 18.1 25.1 3.75 3.3 6.5 4.25 10.75 2.35 8.35-3.3 17.7-6.1 25.1-7.5 3.75-0.45 7 0.95 10.75 1.9 6 1.4 12 2.35 18.9-109.3"/>
</svg>