<svg xmlns="http://www.w3.org/2000/svg" viewBox="0 0 150 150">
<!-- SVG created with Arrow, by QuiverAI (https://quiver.ai) -->
  <style type="text/css">.cls-0 {fill:#A9D4A5;}
.cls-1 {fill:none;stroke:#1D1D1B;stroke-linecap:round;stroke-linejoin:round;stroke-miterlimit:10;}
.cls-2 {fill:none;stroke:#1D1D1B;stroke-linecap:round;stroke-linejoin:round;stroke-miterlimit:10;}
.cls-3 {fill:#FFFFFF;}
.cls-4 {fill:#FFFFFF;}</style>
  <path class="cls-0" d="m128.1 23.4-0.4-3.1c1.3-3.8 2.6-9.7 1.4-12.9-0.7-1.8-2.4-3.4-5.3-3.2-1.6 0.1-3.5 0.6-5.6 0.6-5.1 0-10.1-1.8-16.8-2.1-6.9-0.3-12.8 0.2-21 2.8l-2.4 0.7c-4.1-1.4-8.6-2.3-14.8-2.3-8.6 0-15.6 1.9-25.8 5.9-2.5-0.3-9.3-0.6-13.8-0.1-2.9 0.4-6.3 2.1-6.2 6.6 0.1 4 1.6 7.8 2.9 10.4-0.5 2.6-0.9 5.6-0.9 8.2 0 4.5 1 9.6 3 13.2l0.1 0.1c3.3-4 7.6-8.4 10.2-10.9 2-2 3.5-3.3 4.6-2.3 0.6 0.5 0.9 1.3 1.1 2.2 2.7-2.6 6.2-6.3 7.7-6.5 1.5-0.1 2.8 1.8 2.5 4.3l-0.2 1.8 2.3-1.8c1.8-1 3.9 0.1 3.4 4.3-0.6 6.1-7 11.8-11 17.6-2.2 3.2-3.2 9-4.5 14.5-0.8 3.7-1 6.7-0.2 9.9 0.9 3.3 3 6.2 5.5 7.9h0.6c2.2-4.8 2.4-10.6 3.6-14.3 2-6.3 5.6-9.3 8.4-9.1 2 0.2 2.6 2.1 2.5 4.6-0.1 8-1.7 13-2.1 19.5-0.3 6.5 0.8 15.2-2 23.5-2.3 6-8.5 11.5-11 17.7 3.5 1.5 7.7 2.5 13 2.5 6 0 11-1.2 15.7-3.7l0.5-0.3c3.5 0.5 10.5 2.8 18.5 2.8 5 0 9.8-0.5 13.8-2.5l0.2-0.5c-3.2-5.8-9.2-9.8-11.5-16.5-2.5-7.3-1.7-18.5-3.5-28-1-5-2-11.8-2-14.5 0-2.5 1-4 3-4 3 0 7 3.5 8.8 10 1.2 4.2 1.7 10.2 4 13.2h0.2c2-0.7 3.8-3.2 4.5-7.2 1.3-6-0.5-13.8-2.7-20.3-1.5-4.5-4.5-6.7-7.8-11-3.5-4.5-6.7-8.5-6.7-13.2 0-1.5 1.2-3 2.2-2.8 1 0.3 2 1 3.3 2.3l-0.5-2.8c-0.3-2.2 0.7-4.5 2.5-4 1.2 0.3 4.2 3.3 7 5.8h0.2c0.3-1.3 1-2.8 2.3-2.8 1.2 0 2.7 1.8 4.5 3.5 2.5 2.5 6 6.5 8.7 8.8h1l3.5 3.2c1.8-4 3.5-10 3.5-15.5 0-3.2-1-8-2-10.2z"/>
  <path class="cls-3" d="M38.4 37.6 C38.1 36.1 37.4 34.6 36.1 34.9 C34.9 35.1 33.1 37.1 31.6 38.6 C28.4 41.9 21.1 49.1 18.9 53.6 C17.1 57.1 16.1 64.6 12.9 74.6 C10.9 80.4 12.1 84.6 13.4 90.6 C16.1 103.1 19.1 110.9 19.1 118.1 C19.1 125.6 14.9 135.4 12.2 142.4 L38.7 147.4 C38.7 147.4 40.6 138.1 42.6 133.1 C45.4 125.6 50.1 122.1 53.6 115.6 C58.1 107.1 56.4 97.1 56.9 89.6 C57.4 82.1 58.9 78.1 58.9 70.1 C58.9 67.4 57.9 65.9 55.6 65.9 C52.1 65.9 48.6 70.4 47.1 76.9 C45.9 82.9 45.4 89.1 40.1 94.2 L23.6 76.4 C26.9 70.6 29.9 58.1 33.1 53.6 C35.1 50.9 41.1 44.9 43.4 42.4 C45.4 40.4 49.1 36.4 51.1 35.1 C52.9 34.1 54.1 36.1 54.1 38.4 C54.1 42.6 52.1 45.9 48.1 50.9 C44.1 55.9 42.1 57.4 40.6 63.4 C39.6 67.9 37.9 73.6 37.9 77.6 C37.9 82.9 40.6 86.9 43.9 89.1 L38.4 37.4 C37.1 38.6 33.6 42.1 30.6 45.6 C27.1 49.6 25.1 51.9 23.9 55.1 C22.4 58.9 19.6 68.9 16.9 74.7 L38.4 37.4 C41.1 34.6 44.6 31.1 46.1 30.7 C47.9 30.6 49.4 33.1 47.9 37.6 Z"/>
  <path class="cls-3" d="M106.6 36.4 C106.6 35.1 107.4 33.6 108.6 33.6 C109.9 33.6 111.6 35.6 113.4 37.4 C117.6 42.1 124.9 48.6 128.6 53.1 C131.6 56.9 132.1 57.9 135.1 72.6 C136.9 81.1 134.6 88.9 131.1 108.1 C129.4 116.6 130.6 123.6 137.9 140.6 L110.6 145.6 C110.6 142.6 108.6 134.4 106.1 129.6 C103.4 123.9 97.1 120.6 94.1 112.9 C91.4 105.4 92.6 93.9 90.6 84.6 C89.6 80.1 88.6 73.1 88.6 70.4 C88.6 68.1 89.6 66.4 91.9 66.4 C95.6 66.4 99.6 71.1 101.1 78.6 C102.1 83.9 103.1 89.9 108.1 93.9 L123.7 74.1 C119.6 66.4 116.4 55.4 112.6 51.6 C109.6 48.4 103.1 42.9 99.4 39.1 C96.9 37.1 95.6 35.4 94.1 35.1 C93.1 34.9 91.9 36.4 91.9 37.9 C91.9 42.6 95.1 46.6 98.6 51.1 C103.4 56.9 104.9 57.6 106.4 62.1 C108.6 68.6 110.4 76.4 109.1 82.4 C108.4 86.6 106.6 88.9 104.4 89.6 L133.4 70.4 C131.6 65.9 129.1 57.9 127.4 53.9 C126.4 51.6 124.4 49.1 122.4 46.9 L113.9 37.1 C112.1 35.4 110.6 33.6 109.4 33.6 C108.1 33.6 107.4 35.1 107.6 36.6 Z"/>
  <path class="cls-4" d="M42.3 33.8 L50.4 33.1 L45.8 44.6 Z"/>
  <path class="cls-4" d="M38.7 38.8 L45.9 39.4 L47.3 91.2 L43.3 146.6 L37.7 139.8 L40.2 91.1 Z"/>
  <path class="cls-4" d="M114.2 38.4 L121.8 43.8 L131.3 72.9 L136.6 93.2 L132.5 95 L126.6 73.8 L118.9 48.6 Z"/>
  <path class="cls-4" d="M119.1 121.7 L132.2 99.9 L138.6 105.5 L126.2 135.8 Z"/>
  <path class="cls-1" d="m37.4 9.8c-2.8-0.4-9.3-0.7-13.8-0.2-3 0.4-6.2 2-6.2 6.5 0.1 3.8 1.5 7.5 2.9 10.5"/>
  <path class="cls-1" d="m78.1 6.4c4.5-1.8 10.8-3.7 18.8-3.7 7.5-0.1 11.5 1.2 17.2 1.9 6.3 0.8 7.8-0.5 10.5-0.2 2 0.2 4 1.2 4.8 4 0.7 3.2-0.5 8.5-2 12.2-1.3 3.3-2.8 6-3 9.3"/>
  <path class="cls-1" d="m127.7 20.4c1.2 3 2.4 8 2.2 14.2-0.2 5.5-1.3 10-3.3 14.5"/>
  <path class="cls-1" d="m20.3 26.6c-0.4 2.5-0.9 5.5-0.9 8.3 0 5 1 9.7 3 13.2"/>
  <path class="cls-1" d="m31.3 12.4c6.6-2.4 15.6-7.4 26.8-8.3 9.8-1 16.8 0.5 22 2.3 3.3 1 5.3 2.2 6.8 2.2"/>
  <path class="cls-2" d="m24.1 29.9c-1-1.8-1.5-6.8-3-6.8-0.5 0-0.7 1-0.7 1"/>
  <path class="cls-1" d="m43.9 89.1c-3.3-2.2-6-6.2-6-11.5 0-4 1.7-9.7 2.7-14.2 1.5-6 3.5-7.5 7.5-12.5s6-8.3 6-12.5c0-2.3-1.2-4.3-3-3.3-2 1.3-5.7 5.3-7.7 7.3-2.3 2.5-8.3 8.5-10.3 11.2-3.2 4.5-6.2 17-9.5 22.8"/>
  <path class="cls-2" d="m38.4 37.6c-0.3-1.5-1-3-2.3-2.7-1.2 0.2-3 2.2-4.5 3.7-3.2 3.3-10.5 10.5-12.7 15-1.8 3.5-2.8 11-6 21-2 5.8-0.8 10 0.5 16 2.7 12.5 5.7 20.3 5.7 27.5 0 7.5-4.2 17.3-6.9 24.3"/>
  <path class="cls-2" d="m16.9 74.7c2.7-5.8 5.5-15.8 7-19.6 1.2-3.2 3.2-5.5 6.7-9.5 3-3.5 6.5-7 7.8-8.2"/>
  <path class="cls-2" d="m40.1 94.2c5.3-5.1 5.8-11.3 7-17.3 1.5-6.5 5-11 8.5-11 2.3 0 3.3 1.5 3.3 4.2 0 8-1.5 12-2 19.5s1.2 17.5-3.3 26c-3.5 6.5-8.2 10-11 17.5-2 5-3.9 14.3-3.9 14.3"/>
  <path class="cls-1" d="m44.1 131.1c3.5 1.5 7.8 2.5 12.8 2.5 6 0 11-1 15.7-3.5 3.8-2 6.8-4.7 8.8-4.7 2.2 0 1.7 1.7-1.4 2.7"/>
  <path class="cls-1" d="m72.6 129.6c3.5 0.3 9 2.8 19 2.8 5 0 9.8-0.5 13.8-2.3"/>
  <path class="cls-1" d="m47.9 37.6c1.5-4.5 0-7-1.8-6.9-1.5 0.4-5 3.9-7.7 6.7"/>
  <path class="cls-1" d="m104.4 89.6c2.2-0.7 4-3 4.7-7.2 1.3-6-0.5-13.8-2.7-20.3-1.5-4.5-3-5.2-7.8-11-3.5-4.5-6.7-8.5-6.7-13.2 0-1.5 1.2-3 2.2-2.8 1.5 0.3 2.8 2 5.3 4 3.7 3.8 10.2 9.3 13.2 12.5 3.8 3.8 7 14.8 11.1 22.5"/>
  <path class="cls-2" d="m106.6 36.4c0-1.3 0.8-2.8 2-2.8 1.3 0 3 2 4.8 3.8 4.2 4.7 11.5 11.2 15.2 15.7 3 3.8 3.5 4.8 6.5 19.5 1.8 8.5-0.5 16.3-4 35.5-1.7 8.5-0.5 15.5 6.8 32.5"/>
  <path class="cls-1" d="m97.6 37.4c-1.5-4.8-0.2-7.3 1.5-6.8 1.5 0.3 4.3 3.3 7.5 6.3 3.3 3.2 7.5 7 11 10.5s4 4.7 5.3 7.7c2 5 3.7 11.3 7.2 17"/>
  <path class="cls-2" d="m107.6 36.6c-0.2-1.5 0.5-3 1.8-3 1.2 0 2.7 1.8 4.5 3.5"/>
  <path class="cls-1" d="m108.1 93.9c-5-4-6-10-7-15.3-1.5-7.5-5.5-12.2-9.2-12.2-2.3 0-3.3 1.7-3.3 4 0 2.7 1 9.7 2 14.2 2 9.3 0.8 20.8 3.5 28.3 3 7.7 9.3 11 12 16.7 2.5 4.8 4.5 13 4.5 16"/>
  <path class="cls-1" d="m122.4 46.9c2 2.2 4 4.7 5 7 1.7 4 4.2 12 6 16.5"/>
  <path class="cls-1" d="m54.3 60.1c-0.2 1 0 2.3 0.4 2.8"/>
  <path class="cls-1" d="m61.4 59.4c-1 0.7-2.3 2.7-2.4 4.2"/>
  <path class="cls-1" d="m61.6 67.1c0.8-0.7 2-1.2 3.5-1.2"/>
  <path class="cls-1" d="m61.4 73.1c0.5 0.8 1.5 1.3 2.5 1.1"/>
  <path class="cls-1" d="m53 30.9c-0.4-1-0.1-2.5 0.4-3.4"/>
  <path class="cls-1" d="m55.9 33.1c0.5-2 2.2-3.7 4-4.6"/>
  <path class="cls-1" d="m57.1 37.6c0.8-1 2-1.9 4-1.9"/>
  <path class="cls-1" d="m82.1 66.6c1.3 0 3 0.8 3.8 2"/>
  <path class="cls-1" d="m82.6 73.7c0.8-0.5 2-0.8 3-0.6"/>
  <path class="cls-1" d="m86.9 61.6c0.7 0.5 1.7 1.8 1.7 3"/>
  <path class="cls-1" d="m93.6 61.4c0.3 0.7 0 2.2-0.2 2.3"/>
  <path class="cls-1" d="m90.1 25.9c1.3 1.5 2.3 3.7 2.1 6.3"/>
  <path class="cls-1" d="m84.6 33.6c2 0 4 1.3 4.8 3.3"/>
  <path class="cls-1" d="m95.6 29.4c1.3-1 1-3.3 1-3.3"/>
  <path class="cls-1" d="m96.6 28.6c0.8-1.2 3-1.5 3.8-2.7"/>
</svg>