<svg xmlns="http://www.w3.org/2000/svg" width="200" height="200" fill="none" viewBox="0 0 200 200">
<!-- SVG created with Arrow, by QuiverAI (https://quiver.ai) -->
  <path d="m176.1 53.79c0.65 5.18-0.86 10.45-2.95 15.04l3.04-5.32 4.65 7.2 1 0.9 5 2.78 2.9 5.8-0.6 7.52 4.3 7.2-0.3 5.2-3.2 6.9 1 8.1-2 6.8-2.5 5.8-1.1 5.4-5.4 3.8-9 1.5 0.4 6.4 5.5 12.1-0.5 8.2-4.4 3.2-11.1-1-8.7-2.2-10.3 3.6-15 3.8-20 1.7-20.1-0.9-17.8-3.5-7.9-2.3-12 4.3-10.3 0.4-3-3.9 1.2-9.4 3.1-4.3-0.7-7.5-9.3-1.4-7.7-3.3-3.2-8.1-4.6-6.5 0.4-7.2-2.9-8.5 2.9-10.7-0.8-7.7 3.8-6.5 6-1.9 4.7-9.1 1.1-21.1-4-14.1 2.2-6.1 6.8-1.5 15.1 2.5 6.4-5.4 18.8-5.8 21.8-2.1 18.2 0.3 17 2.8 20.7 8.8 1.9 0.9 16.2-5.3 8.9 1.5 2.4 5.2-2.2 9.2-3.84 7.78z" fill="#9ABDA1"/>
  <path d="m196 139.1c-1.6 3.2-4.1 5.7-7.3 6.4-0.9 0.22-0.6-0.4 0-0.8 3.5-2 5.3-3.7 6.5-6.2 0.5-1 1.5-0.7 0.8 0.6z" fill="#000"/>
  <path d="m195.2 130.5c0.6 2.5-2.4 9.6-9.5 12.6-1 0.4-1.3-0.4-0.3-0.9 5-2.6 7.3-5.2 9-11.1 0.3-1 0.6-1.4 0.8-0.6z" fill="#000"/>
  <path d="m196.8 45.19c-1.6 1.8-5.6 5.8-5.6 7.3 0 1 0.6 1.3 1.5 1.3 1.4 0 4 0 4 0.7 0 1-3.8 2.5-3.8 4.5 0 1.5 2.3 2 2.3 3.2s-1.7 2.6-2.9 3.2c-0.8 0.4-1-0.5-0.2-1 0.8-0.6 1.9-1.5 1.9-2.3 0-1.2-2.2-1.8-2.2-3.3 0-1.9 3.2-3.6 3.2-4s-2.6-0.1-3.9-0.1c-1 0-1.3-1.3-1.1-2.3 0.3-1.5 1-3.3 1.8-4.5-2 1.6-4.3 3-5 3-0.9 0-0.7-1.9 0.4-3.9 0.6-1.1 1.2-0.8 0.6 0.3-0.4 0.8-0.7 1.8-0.3 1.8 1.5 0 6.2-2.7 8.6-4.5 0.7-0.5 1.1 0.1 0.7 0.6z" fill="#000"/>
  <path d="m114.8 15.91c8.4-0.3 18.4 2.2 25.2 6.3 1.2 0.7 1.1-0.2 0-1.1-5.6-4.3-14.8-5.8-24-5.7-1.6 0-2.1 0.5-1.2 0.5z" fill="#000"/>
  <path d="m126.9 12.71c4.2-0.5 7.8 0.5 10.4 2.2 1.2 0.7 1-0.5-0.1-1.3-2.5-1.8-6-2.4-10.2-2-1.3 0.1-1.4 1.2-0.1 1.1z" fill="#000"/>
  <path d="m126 30.01c1.6 0.1 3.3 0.6 5 1.1 1 0.3 1.1-0.2 0-0.7-1.3-0.6-3.1-1.1-4.6-1.1-0.9 0-1.2 0.6-0.4 0.7z" fill="#000"/>
  <path d="m136.8 33.01c1.7 0.6 3.1 1.4 4.1 2 0.9 0.6 1.1 0 0.1-0.8-1.1-0.9-2.6-1.5-3.8-1.8-0.8-0.2-1.2 0.3-0.4 0.6z" fill="#000"/>
  <path d="m118.9 168.6c5.5-0.7 11.3-1.9 15-3.8 1-0.5 0.7-0.9-0.3-0.5-4.8 2-8.9 3-14.6 3.7-1.3 0.2-1.3 0.7-0.1 0.6z" fill="#000"/>
  <path d="m138.4 163.7c1 0 2-0.7 2.3-1.4s-0.5-0.9-1.5-0.3c-1.4 0.8-1.9 1.7-0.8 1.7z" fill="#000"/>
  <path d="m87.01 180c7.4 3.6 19.9 3 33.9-1.4 1.7-0.6 1.4-1.4-0.1-0.8-11.8 4.5-23.7 4.4-32.8 1.5-1.6-0.6-2.2 0-1 0.7z" fill="#000"/>
  <path d="m100.1 186.7c3.9 0.7 8 0.4 11.5-0.5 1.3-0.4 1-1.2-0.2-0.9-3.5 0.7-6.8 0.9-11 0.6-1.4-0.2-1.6 0.6-0.3 0.8z" fill="#000"/>
  <path d="m192.9 92.01c-2.6-4-3.7-4.1-2.9-8 1.4-6.7-2.2-11.1-9.3-13.1-0.9-3.7-3-7-4.4-8.7 0.3-2.6 0.4-5.3 0.2-7.9 4.2-6.6 7.8-12.6 5.8-19.4-1.6-5.8-8.4-6-14.6-4.4-4.6 1.2-9.8 3.4-13.8 4.6-0.5-2.1-5.7-4.5-17.8-8.5-10.3-3.5-22-5-33.2-5-19 0-40.2 4.4-51.9 10.9-1.2 0.7-2.1 1.6-2.8 2.5-5.5-1.6-10.4-2.8-14.3-2.4-6 0.5-8.8 2-9.5 6.3-1 6.3 2.4 12.1 5.3 16.4-2.4 3.2-1.8 15.6-0.8 19.8-2.5 2.7-3.9 5.9-4.2 9.8-6.9 1.4-11.7 5.8-10.6 13.9 0.5 3.6 0.8 3.1-1.7 8.3-2.2 4.8-1 6.6 1.3 10.2 2.1 3.4 0.5 4.6-0.2 8.5s2.9 6.6 4.2 8.4c1.9 2.8 1.1 5.6 2.9 8.1 3.1 4.4 9.4 5 17.3 5h0.9c-0.6 2.6-0.5 5.3 0.1 7.3-3.8 5.3-5.5 12.4-3.1 16.1 3 4.7 13.2 2.1 23.9-2.4 10.7 4.4 27.3 6.6 41.2 6.6 16.3 0 35.3-3.6 51.1-9.4 8.1 2.8 19.9 4.5 23.7 1.2 5.5-4.7 1.5-13.5-3.5-20.3 0.5-2.3 0.4-4.6-0.1-7.3 3.8-0.4 7.5-1.2 10.3-2.9 5.2-3 5.4-9.1 6.5-12.3 0.9-2.7 3.2-3.8 3.1-8.2-0.1-3.6-2.5-6.1-0.1-10 3-4.9 3.5-9.9 1-13.7zm-13.7-21.8c-2.4-0.5-4.6-0.8-6.9-1 1.6-2.2 2.9-4.5 3.9-6.8 1.2 1.8 2.4 4.6 3 7.8zm-150.5 6.6c0.5 2.1 1.2 4.1 2.1 6.1-1.3 0.2-2.7 0.5-4.1 0.8 0.2-2.6 0.8-4.9 2-6.9zm6.3 68.6c0.5-0.3 1-0.5 1.5-0.8h0.6c-0.7 0.4-1.4 0.7-2.1 0.8zm156.8-44.3c-2 4.1-3.5 5.8-1.9 11 1.5 5-0.8 7.7-2.1 9.5-2.1 3.1-1.5 8.1-4.4 11.2-1.8 2-4.8 3.1-6.5 3.9-10.6 0.3-23.8-1.1-32.6-5.6-4.2-2.2-4.1-5.8-2.5-7.5 1.2-1.3 5.8 0.1 8.3 0.6 6.5 1.4 8.8 0.2 13.1-0.3 3.7-0.4 5.6-0.4 10.5-1.5 1.2-0.3 1.1-1.7-0.2-1.3-4.5 1.2-10.5 1.4-13.4 1-6.3-0.9-15.7-2.6-24.5-5.7-5.6-2.1-5.5-8.2-2.3-9.8 2-1 4.9-0.4 7.1-0.3 9.5 0.4 17.7-0.3 31.5-0.2 1.3 0 2.9 1.1 4.2 1.4 0.8 0.2 0.7-0.8 0-1.1-1.4-0.7-2.5-1.3-4.5-1.3-10.5-0.1-20.3 0.5-37.5-1.2-6.2-0.6-6.7-4.9-5.2-8.3 1.7-3.9 8.3-5.3 15.8-6 6.3-0.6 9.1-1.9 14.2-1.8 5.4 0.1 10 0.9 18.4 1.1 1.2 0 1-1.3 0-1.2-6.3 0-12.2-1.1-17.7-0.8-4.7 0.3-10.8 1.7-18.9 1.7-5.9 0-7.6-4.8-4.3-7.9 6.3-5.8 19.6-10.6 34.8-9.8 8.4 0.4 15 1.5 17.6 6.2 2.4 4.4-1.1 9 0.5 12 1.4 2.7 5 6.8 2.5 12z" fill="#000"/>
  <path d="m142.7 53.41c-5 6.3-7 14-6.4 24.5-3.2 2.6-5.2 7.4-1.6 11-3.6 0.8-7.8 3.2-9.2 6.8-1.4 3.8-0.2 8.3 5.4 9.5-3.7 2-3.8 8.7 0 11.6 2.2 1.7 5 2.9 8.1 3.9-1.5 1-2.3 2.9-2 5-2.8 1.9-4.9 4.9-6.6 10.5-0.6 2.1 0.5 2.2 1.5 0.8 0.7-1 1.4-1.9 1.8-2.4s0-0.9-0.5-0.3c-0.6 0.7-1.6 1.8-2.2 2.5-0.8 0.9-1 0.3-0.8-1.2 1-5.7 4.6-10.7 7.8-13.2 0.7 0.2 1.4 0.5 2.1 0.7-2.1 2.5-1.5 6.8 3.6 9.4-0.3 3.2 1 6.9 2.2 8.8 0.8 1.3 2 0.1 1.4-1.4-0.5-1.3-0.7-1.7-0.9-2.2-0.3-0.7-0.8-0.6-0.6 0.1 0.2 0.6 0.5 1.6 0.7 2.3 0.2 0.8-0.3 0.8-0.9-0.3-1.2-2.2-1.8-4.4-1.8-6.9 7.7 3.8 14.9 5.2 25.1 5.3 0.8 1.7 1.2 3.7 1 6 0.4 0.5 0.8 1.1 1.2 1.6-0.4-1.7-0.5-4.1-0.2-7.6 0.3 0 0.7 0 1-0.1-0.3 1.9-0.8 4.3-1.7 6.8 4.8 6.9 7.5 14.2 4.6 19.4-3 5.4-18.7 1.2-26.6-1.9"/>
</svg>