<svg xmlns="http://www.w3.org/2000/svg" width="250" height="173" fill="none" viewBox="0 0 250 173">
<!-- SVG created with Arrow, by QuiverAI (https://quiver.ai) -->
  <path d="m248.3 23.79c-6.03 7.53-10.46 18.57-12.31 30.32l-0.77-0.21c1.5-11.09 4.89-20.96 11.95-29.39 0.4-0.49 1.33-1.12 1.13-0.72z" fill="#C293C4"/>
  <path d="m210 94.21c13.88-4.44 25.6-16.4 29.83-31.93 0.67-2.5 0.44-1.17 0.6-0.63-2.98 13.63-14.18 27.03-29.2 32.8-0.57 0.24-1.47-0.05-1.23-0.24z" fill="#D4A4CF"/>
  <path d="m213.9 99.15c9.78 8.82 15.07 22.43 14.23 35.9-0.18 2.93-2.2 2.43-1.98 0.63 1.4-12.07-3.21-25.95-12.84-35.75-0.4-0.4 0.37-1.04 0.59-0.78z" fill="#C699C6"/>
  <path d="m187.8 173 55.58-0.21-0.1-172.8h-44.9l-0.35 2.24 4.05-0.71 2.58 1.59-7.02 5.75 3.84 0.19 1.71 2.33-6.08 6.14 3.12 0.73-4 4.7 0.88 3.47-1.67 2.29 1.33 2.99-1.35 2.42 3.26 2.65 2.17 0.29-0.09 3.13-3.5 1.54-1.6 3.44 3.45 2.14 0.76 3.56-2.22 1.59 1.29 3.4-2.17 2.29 1.18 4.01-0.59 3.99 0.93 2.45-2.52 3.83 0.99 3.14-1.45 3.18 1.26 3.24-0.8 3.13 1.67 2.99-1.21 3.39 1.21 2.43-1.67 2.74 0.46 3.33 4.05 1.57-2.59 4.08 0.17 3.66 4.22 0.87 0.17 4.1-1.77 3.3 1.06 2.74-1.25 2.43 1.22 3.29h-4.4l-1.61 3.41 2.1 3.02-0.49 3.14-3.64 0.65-2.47 3.43-2.79-0.67-1.34-1.99 0.93 35.96z" fill="#F1D7EE" opacity=".35"/>
  <path d="m161.6 39.9c11.52-17.76 31.72-29.73 46.21-34.73 12.09-4.33 25.11-7.81 29.75-0.1 5.52 9.21-3.5 22.89-7.3 31.97-3.67 8.8-1.61 14.13-2.87 22.16-3.33 21.68-16.2 29.81-31.17 32.68 14.55 7.6 24.98 27.04 21.39 45.75-3.3 16.07-20.82 16.72-31.55 5.73-2.31-2.71-4.22-5.74-5.6-8.98-0.7-2.76 2.95 0.07 3.84 1.74 9.48 13.14 22.81 13.66 27.83 6.7 9.34-13.67-1.17-36.53-16.91-46.74-2.1-1.42-0.66-5.17 2.06-5.33 13.38-2.38 23.64-13.31 26.51-27.04 1.98-8.94-0.57-16.34 3.23-25.41 3.69-8.73 11.55-20.29 9.06-28.66-2.28-7.87-13.1-3.62-19.57-1.63-20.48 6.6-39.08 19.01-56.03 39.95-1.66 2.13-1.55-1.85 1.12-8.06z" fill="#C289C4" opacity=".6"/>
  <path d="m171.6 46.95c9.69-12.87 23.48-23.31 36.43-28.37 6.34-2.44 12.8-2.71 14.39 1.37 2.44 5.93-7.36 14.66-7.43 23.95 0 1.52 0.89 3.94 1.2 2.73 1.83-8.84 7.68-16.32 8.39-21.63 1.29-10.04-6.02-10.52-12.69-8.78-13.3 3.66-27.99 13.99-40.83 29.77-0.63 0.78-0.25 1.92 0.54 0.96z" fill="#DDB8E0" opacity=".6"/>
  <path d="m184.6 47.1c5.17-6.28 10.96-9.49 16.61-11.92 1.47-0.62 1.47-1.95 0.19-1.64-5.55 1.93-11.78 6.37-17.2 12.63-0.66 0.76-0.25 1.6 0.4 0.93z" fill="#D296CA" opacity=".6"/>
  <path d="m161.2 39.62c7.85-12.6 18.14-24.31 32.43-31.61 2.06-1.1 1.65-3.53-0.75-2.43-12.44 6.98-22.62 17.5-32.2 32.72-0.7 1.11-0.42 2.61 0.52 1.32z" fill="#C289C4" opacity=".6"/>
  <path d="m196.1 98.61c10.98 8.2 17.41 22.26 15.71 34.54-1.66 9.21-10.57 9.43-18.95 2.64-1.7-1.44-1.7-2.08-0.72-1.59 7.96 4.81 14.94 6.48 16.41-1.68 1.75-9.61-4.9-22.51-13.54-32.35-1.22-1.41-0.43-2.59 1.09-1.56z" fill="#CFA1CC" opacity=".6"/>
  <path d="m200.9 116c3.4 5.23 3.89 9.22 2.91 13.61-0.19 1.36 0.81 1.27 1.15-0.03 1.35-4.55-0.78-10.22-3.47-14.22-0.88-1.17-1.3-0.36-0.59 0.64z" fill="#B876B1" opacity=".5"/>
  <path d="m200.2 3.73c0.92 0.91 2.73-0.55 1.66-2.11-1.08-1.57-3.61 0.15-1.66 2.11z" fill="#C289C4"/>
  <path d="m216.7 54.18c0.77 1.49 3.01 0.58 2.1-1.17s-3.13-0.7-2.1 1.17z" fill="#C699C6"/>
  <path d="m239.7 57.13c0.97 1.64 2.94-0.69 1.37-1.94-1.1-0.86-2.19 0.57-1.37 1.94z" fill="#C299C6"/>
  <path d="m231.3 137.3-0.14 0.04 0.14-0.04z" fill="#C299C4"/>
  <path d="m225.1 145.1c1.56 0.97 2.64-1.99 0.94-2.79-1.58-0.76-2.58 1.74-0.94 2.79z" fill="#C699C6"/>
  <path d="m188 131.4c1.48 1.29 3.05-1.29 1.35-2.4-1.43-0.93-2.62 1.22-1.35 2.4z" fill="#C699C6"/>
  <path d="m4.29 0 40.62 0.04-0.02 2.37 2.12-0.8 3.07 0.78 0.06-2.39h9.64l-0.04 3.33 3.55-1.25 6.12 2.14 0.8-3.09 6.72 0.95 0.17 3.83 4.48 0.92 0.03 3.49 3.77 1.02-0.38 3.9 3.07 0.83-1.04 3.75 2.09 1.29-0.93 3.75 1.97 1.57-1.04 3.88 1.04 2.74-2.44 2.11 1.4 2.85-2.94 1.7 0.85 3.91-3.17 1.11 0.77 3.46-3.25 1.06 0.93 3.76-3.26 0.89-1.36 2.74-2.78-1.42-1.29 2.59-3.45-0.95-1.16 2.45-3.53-1.22-0.76 3.23-3.93 0.96-0.17 3.14-2.43 1.77 0.6 3.2-2.66 2.67 1.77 3.17-1.33 3.07 0.6 3.99-0.34 3.61 0.89 2.14-1.1 3.14 1.19 3.13-1.68 2.96 1.56 1.94-1.15 2.99 1.11 3.09-1.64 2.32 0.61 3.69-1.89 1.99 0.86 2.99-1.78 2.22 0.35 3.75-4.36 0.36-0.23 3.75-2.78 1.06-1.18 3.47-3.4-1.57-3.12 1.42-1.78 2.71-3.67-1.16-1.18 3.5-3.69-0.3-0.63 36.22-17.98 0.08-3.25-0.08-0.17-36.37-2.26-2.63 1.7-3.3-1.89-3.33v-127.1z" fill="#F1D7EE" opacity=".35"/>
  <path d="m37.51 92.7c-13.12-4.91-24.6-16.77-27.96-29.4-0.61-2.64 1.21-3.21 1.7-1.45 4.56 13.86 11.92 24.08 26.54 30.47 0.82 0.35 0.56 0.75-0.28 0.38z" fill="#CC9FCC"/>
  <path d="m35.18 99.81c-9.31 9.44-15 22.79-14.67 36.4 0.08 2.46 2.15 1.6 2.01 0.16-0.81-12.4 4.94-26.18 13.27-35.98 0.56-0.66 0.02-1.26-0.61-0.58z" fill="#CBA6CD"/>
  <path d="m53.71 90.45c-14.6-2.25-27.92-12.87-30.64-28.42-1.61-9.22 1.54-16.8-4.62-28.49-4.71-8.15-8.93-16.42-6.23-24.89 3.8-11.87 18.89-6.44 25.09-4.55 16.68 5.55 35.28 18.06 51.22 41 1.29 1.99 0 2.63-1.22 0.89-14.42-17.87-33.19-30.72-51.5-36.99-7.72-2.82-15.5-4.9-20.14-1.83-6.2 4.15-0.63 16.47 4.51 24.54 6.04 9.45 4.43 18.49 4.43 26.1 0 15.42 11.2 28.56 27.59 31.11 2.95 0.5 3.12 1.85 1.51 1.53z" fill="#C289C4" opacity=".6"/>
  <path d="m51.78 93.19c-12.86 9.07-23.06 25.53-21.74 43.45 1.2 15.55 16.58 18.25 27.13 10.18 4.05-3.2 6.98-6.74 9.05-10.73 1.14-2.38-0.32-2.53-1.5-0.73-8.25 11.46-15.63 14.75-24.69 10.36-10.26-5.06-6.32-28.61 8.9-44.84 1.88-2.12 5.43-4.61 5.43-5.57 0.12-1.1-0.52-3.38-2.58-2.12z" fill="#C289C4" opacity=".6"/>
  <path d="m53.18 99.01c-9.36 8.8-16.99 22.08-16.37 34.7 0.6 8.6 9.18 9.4 14.32 6.06 2.51-1.56 4.49-2.85 6.05-4.52 0.93-1.06-0.18-1.54-1.22-0.75-5.26 4.14-7.75 4.83-11.17 3.9-8.98-2.59-2.73-21.22 9.32-37.12 1.18-1.64 1.12-4.23-0.93-2.27z" fill="#C18BC4" opacity=".6"/>
  <path d="m51.28 85.13c-10.11-4.45-18.42-14.72-20.17-25.02-0.49-2.84 1.44-2.74 1.67-0.92 1.75 11.02 8.6 20.75 18.21 24.74 1.36 0.62 1.42 1.68 0.29 1.2z" fill="#C596C5" opacity=".6"/>
  <path d="m31.94 54.52c1.18 1.29 2.74-0.61 1.24-2.07-1.4-1.39-2.59 0.46-1.24 2.07z" fill="#C596C5" opacity=".6"/>
  <path d="m8.42 57.11c1.29 1.57 2.86-0.76 1.36-2.4-1.46-1.64-2.78 0.76-1.36 2.4z" fill="#C596C5" opacity=".6"/>
  <path d="m47.81 4.17c1.28 1.57 3.4-0.3 1.84-2.04-1.46-1.75-3.29 0.26-1.84 2.04z" fill="#C596C5" opacity=".6"/>
  <path d="m3.81 24.61c6.4 7.53 9.33 18.13 11.4 29.43l-1.42 0.37c-2.05-10.95-5.17-20.7-10.53-29.33-0.57-0.96-0.33-1.44 0.55-0.47z" fill="#C596C5" opacity=".6"/>
  <path d="m30.8 16.57c5.39-2.59 17.62 1.2 32.81 12.93 6.6 5.16 11.51 9.81 14.08 14.12 1.22 2.22 0 2.96-1.04 1.7-9.4-11.19-21.33-20.86-35.46-26.61-6.08-2.32-11-1.62-12.7 1.4-3.18 5.6 5.02 11.72 6.39 19.87 0.35 1.96-0.83 6.08-1.46 4.44-0.76-7.87-5.53-13.26-8-19.11-1.67-4.3 0.07-6.98 5.38-8.74z" fill="#C289C4" opacity=".6"/>
  <path d="m41.16 31.01c1.02-0.3 2.43-0.15 3.65 0.65 1.03 0.71 0.38 2-1.22 1.25-0.82-0.4-1.38-0.47-2.18-0.64-0.89-0.24-1.09-1.03-0.25-1.26z" fill="#C289C4" opacity=".6"/>
  <path d="m47.48 33.32c4.73 1.49 11.31 5.59 16.03 10.76 1.35 1.56 1.09 2.62-0.22 1.15-4.32-4.75-9.47-7.59-15.12-10.22-1.56-0.8-1.73-2.15-0.69-1.69z" fill="#C289C4" opacity=".6"/>
  <path d="m55.08 6.03c-1.03-0.96-0.17-2.85 1.63-1.81 10.98 6.09 21.25 15.96 31.48 32.97 0.93 1.67 0.23 2.47-0.81 0.72-9.16-13.67-19.36-24.39-32.3-31.88z" fill="#C289C4" opacity=".6"/>
  <path d="m216.8 59.91c-1.62 9.8-8.65 19.32-19 24.74-0.75 0.41-0.4 0.89 0.35 0.62 10.05-3.34 19.29-13.86 20.73-25.23 0.32-2.32-1.6-2.47-2.08-0.13z" fill="#C289C4" opacity=".6"/>
  <path d="m141.3 38.11c-0.24 9.3 3.87 16 14.6 18.14" stroke="#222" stroke-linecap="round" stroke-linejoin="round" stroke-width="1.5"/>
  <path d="m109.3 38.01c-0.17 9.64-5.88 17.11-17.41 17.88" stroke="#222" stroke-linecap="round" stroke-linejoin="round" stroke-width="1.5"/>
  <path d="m100 62.64c5.85 1.02 11.41 2.04 15.45 3.39" stroke="#222" stroke-linecap="round" stroke-linejoin="round"/>
  <path d="m135.2 65.59c4.3-0.86 9.44-1.71 13.13-2.95" stroke="#222" stroke-linecap="round" stroke-linejoin="round" stroke-width="1.2"/>
  <path d="m122.7 68.86c2.06 1.67 4.79 1.55 6.57-1.12" stroke="#222" stroke-linecap="round" stroke-linejoin="round" stroke-width="1.2"/>
  <path d="m121.5 102.9c-6.39-7.19-15.03-18.73-16.23-20.4-2.06-2.89-3.97-12.43-6.2-15.71-2.33-3.44-8.89-10.79-11.39-13.89-1.74-1.65-3.61 1.25-2.64 4.11l-8-2.01c-4.98-1.45-7.05 0.88-6.76 3.21-5.14-1.2-7.13 1.12-6.71 4.42-3.5 0.27-3.88 1.91-2.99 4.7 0.49 1.57 6.45 2.67 9.45 7.84 0.84 1.52-1.06 1.65-2.94 1.05l-6.92-3.17c-3.11-0.97-2.6 2.65-0.89 4.11 3.3 2.64 7.46 4.19 13.81 9.58 6.67 5.8 10.65 6.52 15.29 8.79 4.49 2.21 9.34 11.19 16.65 21.68" stroke="#222" stroke-linecap="round" stroke-linejoin="round" stroke-width="1.5"/>
  <path d="m60.96 65.42c3.44 0.19 8.58 2.7 11.27 4.59" stroke="#222" stroke-linecap="round" stroke-linejoin="round" stroke-width="1.2"/>
  <path d="m64.72 61.08c3.4 1.2 6.49 3.74 8.19 5.23" stroke="#222" stroke-linecap="round" stroke-linejoin="round" stroke-width="1.2"/>
  <path d="m71.12 57.32 7.21 4.48" stroke="#222" stroke-linecap="round" stroke-linejoin="round" stroke-width="1.2"/>
  <path d="m85.98 55.12 7.84 10.22" stroke="#222" stroke-linecap="round" stroke-linejoin="round" stroke-width="1.2"/>
  <path d="m92.81 98.07 7.26 24.34" stroke="#222" stroke-linecap="round" stroke-linejoin="round" stroke-width="2"/>
  <path d="m189.7 72.2c2.19 1.82-0.96 5.08-3.25 6.51-8.11 4.71-12 8.41-18.35 13.05-3.55 2.35-8.81 3.65-12.87 7.35-10.08 9.35-23.08 33.82-36.47 48.04-5.66 6.2-12.68 11.66-16.94 16.26-4.57 4.2-10.06 3.68-15.95-4.13-8.92-10.71-15.77-32.04-18.7-47.34-3.17-13.33-7.11-26.88-5.4-34.5" stroke="#222" stroke-linecap="round" stroke-linejoin="round" stroke-width="1.5"/>
  <path d="m122.7 144.2c6.04 8.53 15.09 17.65 22.98 24.37 4.71 3.76 10.96 0.39 17.49-9.7 11.42-16.39 16.13-33.75 23.12-57.27 3.55-11.06 4-16.75 2.85-26.43" stroke="#222" stroke-linecap="round" stroke-linejoin="round" stroke-width="1.5"/>
  <path d="m120.3 103.9c7.69-7.54 19.41-21.68 21.29-23.74 3.3-3.48 4.12-13.1 9.1-18.38 2.88-3.09 6.41-5.99 8.85-8.49 2.32-1.89 4.25 1.48 3.36 4.38l7.64-3.02c5.75-1.86 8.68 0.28 9.15 3.14 3.97-1.22 6.2 1.11 5.61 4.83 3.62 0 4.07 2.18 2.5 5.28-0.73 1.53-5.23 3.23-9.73 6.52-1.45 1.17-0.61 1.27 1.03 0.74l9.01-4.57c3.8-1.53 3.5 2.15-0.51 5.45" stroke="#222" stroke-linecap="round" stroke-linejoin="round" stroke-width="1.5"/>
  <path d="m187.1 64.21c-3.67 0.73-8.11 3.65-12.56 5.8" stroke="#222" stroke-linecap="round" stroke-linejoin="round" stroke-width="1.2"/>
  <path d="m182.8 58.71-12.79 3.83" stroke="#222" stroke-linecap="round" stroke-linejoin="round" stroke-width="1.2"/>
  <path d="m162 56.15-8.1 8.97" stroke="#222" stroke-linecap="round" stroke-linejoin="round" stroke-width="1.2"/>
  <path d="m157.7 97.21c-3.01 6.59-6.11 20.84-10.11 30.83" stroke="#222" stroke-linecap="round" stroke-linejoin="round" stroke-width="2"/>
  <path d="m138.3 120.7c7.68 7.19 15.32 9.25 17.54 21.29" stroke="#222" stroke-linecap="round" stroke-linejoin="round"/>
  <path d="m90.16 134.6c4.01-8.53 7.95-10.52 15.85-16.99 7.9-6.08 10.6-8.9 16.29-14.58" stroke="#222" stroke-linecap="round" stroke-linejoin="round" stroke-width="1.2"/>
</svg>