<svg xmlns="http://www.w3.org/2000/svg" width="200" height="200" viewBox="0 0 200 200">
<!-- SVG created with Arrow, by QuiverAI (https://quiver.ai) -->
  <path d="m99.39 3.61c5.79 8.07 10.73 23.35 11.72 31.21 0.8 6.79-0.99 15.25-1.35 20.1 1.53 0.8 3.95 0.35 5.49 0.27 1.16 1.53-1.97 3.15-6.82 2.44 3.38 6.08 9.55 12.43 13.8 17.63 2.59 3.28 2.68 7.86-1.05 11.05-2.33 2.15-6.07 3.4-6.96 5.37s1.61 6.55 2.95 8.26c1.88 2.51-0.18 7.98-3.56 9.95 1.96 2.23 3.92 7.08 0.1 11.08-1.26 1.35-2.97 1.71-3.5 4.13-0.8 3.64 1.43 7.81 0.81 13.37-1.16 10.69-10.41 13.38-23.93 12.58-7.35-0.54-12.56-1.62-18.73-2.78-6.44-0.45-13.15 5.01-16.02 13.47-4.16 11.05-4.7 25.55-7.02 34.53-0.36 0.99-1.8 0.99-1.71-0.45 0.8-9.61 2.33-25.16 6.36-35.66 2.78-6.79 7.21-10.53 11.95-12.68-8.11-1.71-18.04-4.82-23.16-7.32-5.7-2.78-11-7.89-13.33-12.15-0.36-1.08 0.71-1.44 1.42-0.9 5.61 7.4 11.12 11 22.06 13.87 10.95 3.28 23.1 5.7 35.15 7.03 8.02 0.89 17.96 0.53 22.11-3.39 3.34-3.28 3.24-8.84 1.99-12.9-0.89-3.29-0.54-6.8 0.9-9.31-7.35-1.26-12-5.09-18.35-8.46-1.25-0.63-0.89-2.25 0.46-3.23 4.75-2.06 9.96-7.08 14.61-9.76 2.24-1.17 4.03 0 5.47 0 1.96 0 2.67-0.8 1.87-2.51-1.25-2.68-2.95-5.64-1.51-8.51s6.56-3.77 8.61-6.82c1.7-2.51 1.25-5.11-0.8-7.08-5.5-5.55-13.34-15.26-16.3-21.34-1.71-3.64-1.45-7.57-0.74-10.85 0.36-0.89 1.98-0.62 1.89 0.45-0.62 3.83-0.35 8.08 3.39 10.4 1.25-4.93 1.61-9.87 1.79-16.04-1.53 0.09-2.6 1.07-4.04 1.7-1.25 0.45-2.23-0.8-1.16-2.51 1.16-1.8 2.78-2.69 5.02-2.78-1.53-9.8-5.71-20.94-10.74-30.39-0.71-1.25 0-2.14 0.86-1.07zm12.39 99.32c-1.79-0.62-3.32-1.25-5.37-0.18-3.49 1.97-7.4 5.46-10.36 6.99 4.07-0.98 9.36-1.88 13.76-1.08 2.96 0.36 5.01-4.75 1.97-5.73zm-1.66 8.41c-5.4-0.62-11.09 0.63-15.34 1.98 5.21 3.1 8.87 5.97 14.94 5.97 4.29 0 5.36-5.74 0.4-7.95z" fill="#000"/>
  <path d="m97.73 82.14c-1.25 2.68-0.27 6.93 3.98 6.93 1.07 0 1.25 1.35-0.28 1.62-4.56 0.45-5.81-5.01-4.19-8.29 0.54-0.98 1.07-1.07 0.49-0.26z" fill="#000"/>
  <path d="m105.1 86.22c1.53-1.97 3.58-2.6 6-2.51 1.79 0.09 2.32 2.06 0.62 2.51-2.78 0.36-3.95 0.89-5.65 2.24-1.35 0.98-2.5-0.37-0.97-2.24z" fill="#000"/>
  <path d="m53.87 42.05c8.11-7.4 18.79-9.91 27.59-8.29 3.65 0.62 6.79 1.7 8.49 2.41 2.06 0.9 2.41 3.86 0.8 4.22-1.79 0.45-4.48-1.26-8.73-2.51-8.98-2.15-17-0.9-27.08 5.35-1.7 1.16-2.32 0.09-1.07-1.18z" fill="#000"/>
  <path d="m62.58 55.9c1.16-0.54 3.85 1.26 8.5 1.97 5.4 0.8 9.65 0.26 13.94-2.61 1.16-0.18 2.6 0.72 3.85 1.25-2.78 3.55-9.76 5.35-15.65 4.18-4.25-0.71-7.81-2.06-10.68-3.23-1.16-0.63-0.98-1.43 0.04-1.56z" fill="#000"/>
  <path d="m159.4 69.08c4.55 3.38 14.21 19.9 14.21 39.85 0 18.99-9.84 35.69-18.73 45.39-1.44 1.26-2.24 0.55-1.35-1.07 2.87-4.94 18.12-20.49 18.12-44.32 0-15.98-7.17-30.3-13.14-37.61-1.16-2.06-0.45-3.04 0.89-2.24z" fill="#000"/>
  <path d="m151 77.11c6.17 6.6 11.67 19.6 11.67 31.82 0 13.84-6.89 28.08-15.38 36.72-1.62 1.16-2.24 0.09-1.35-1.62 5.88-6.74 14.08-17.32 14.08-35.28 0-10.87-5.02-22.17-10.23-29.49-0.99-1.88-0.27-3.22 1.21-2.15z" fill="#9994C4"/>
  <path d="m143.1 85.48c4.94 4.67 8.1 14.29 8.1 22.25 0 10.95-5.5 22.99-12.21 29.92-1.7 1.26-3.23-0.27-1.88-1.98 6.71-6.93 11.54-15.65 11.54-27.59 0-8.1-3.39-15.22-7.21-20.77-0.98-1.63-0.18-3.06 1.66-1.83z" fill="#9994C4"/>
  <path d="m134.8 93.74c3.74 3.64 5.89 10.71 5.89 16.27 0 7.86-4.25 15.36-8.99 19.52-1.71 0.89-2.96-0.82-1.61-2.26 4.94-4.35 8.27-10.61 8.27-17.89 0-5.11-2.14-10.14-4.83-13.7-0.89-1.43-0.09-2.87 1.27-1.94z" fill="#9994C4"/>
  <path d="m126.3 101c2.14 1.62 3.4 5.08 3.4 7.86 0 5.02-2.78 9.37-5.29 11.7-1.53 1.16-2.97-0.55-1.72-2.26 2.69-2.68 4.39-5.73 4.39-9.69 0-2.24-1.07-4.03-2.23-5.82-0.71-1.43 0.18-2.59 1.45-1.79z" fill="#9994C4"/>
  <path d="m64.02 158c1.35 0.62 0.81 2.24-0.35 4.04-4.94 6.74-6.81 13.67-6.36 22.39 0.27 3.93 1.16 6.71 1.87 9.03 0.45 1.71-1.69 2.51-2.5 0.72-1.87-3.84-2.41-8.95-2.14-14.41 0.62-7.5 3.58-15.45 8.23-21.01 0.45-0.62 0.9-0.89 1.25-0.76z" fill="#000"/>
  <path d="m70.64 164.4c1.25 0.54 0.89 2.07-0.36 3.78-3.55 5.2-4.53 11.94-2.75 19.71 0.54 2.06-1.61 3.04-2.32 0.8-2.78-7.96-1.34-16.78 3.96-23.62 0.53-0.62 0.98-0.8 1.47-0.67z" fill="#000"/>
  <path d="m77.08 170.1c1.16 0.71 0.54 2.33-0.53 3.86-2.33 3.19-2.59 6.83-0.89 10.7 0.36 1.44-1.6 2.42-2.4 0.89-2.78-5.29-0.99-11.32 2.4-15.19 0.45-0.44 0.98-0.53 1.42-0.26z" fill="#000"/>
</svg>