<svg xmlns="http://www.w3.org/2000/svg" width="250" height="237" fill="none" viewBox="0 0 250 237">
<!-- SVG created with Arrow, by QuiverAI (https://quiver.ai) -->
  <path d="m107.2 0 33.05 0.09-0.03 9.9-24.87-0.2-8.15-9.79z" fill="url(#paint0_linear_1311_2224)" opacity=".4"/>
  <path d="m140.2 16.61 13.8 0.05 5.09 9.25-6.45 9.16-12.44-0.06v-18.4z" fill="url(#paint1_linear_1311_2224)" opacity=".4"/>
  <path d="m157 33.41 9.99 1.51 75.98 0.09v-1.69l-85.97 0.09z" fill="url(#paint2_linear_1311_2224)" opacity=".4"/>
  <path d="m70.91 58.11c-0.7 0.2-0.09 2.27 0.52 4.13 5.29 12.95 12.89 27.57 13.19 37.67 0.1 4.05-0.2 5.81-1.65 9.56-2.74 7.24-4.19 11.49-6.53 19.65-1.13 4.15-6.32 9.75-8.56 10.87-4.89 2.45-10.69 5.79-10.79 9.64-0.05 1.65 0.66 2.77 1.37 3.48-1.37 1.66-0.86 5.71 2.3 6.72 0.41 3.15 3.15 6.2 10.15 7.11 5 0.71 9-0.61 12.47-3.86 2.85-2.74 4.11-2.03 7.57-3.25 5.9-2.05 7.66-6.1 8.78-13.95 1.22-8.86 4.16-12.81 9.26-16.46 7.72-5.5 13.12-8.45 12.92-16.1-0.2-6.19-5.6-11.99-8.05-16.78-4.79-9.06-4.38-18.53-5.09-38.13-0.1-2.15-0.31-2.35-0.71-2.35-0.92-0.1-1.02 1.55-1.12 5.95-0.41 14.1 0.41 25.97 4.89 34.93 3.25 6.5 7.43 10.75 7.43 16.35 0 5.7-4.05 8.75-11.3 13.84-7.05 5.1-9.1 10.7-10.86 21.77-0.92 5.8-2.87 10.05-8.87 10.86l0.51-1.42c0.2-0.91-0.51-1.32-1.63-0.3-2.64 2.24-5.69 5.29-7.54 6.61-2.64 1.75-9.45 1.55-11.1-0.51-1.55-1.95-0.73-4.49 3.02-5.41 4.69-1.22 6.54-3.57 7.26-5.82 0.3-1.12-0.41-1.32-1.12-0.41-2.05 2.55-3.9 3.47-7.55 4.59-4.05 1.22-4.66 3.37-4.36 5.52-1.85 0.1-3.6-0.81-3.6-3.16s1.75-3.37 5.31-5.22c2.85-1.45 3.76-3.31 4.06-4.83 0.2-1.02-0.61-1.02-1.12-0.1-1.65 2.54-3.3 2.95-6.25 4.27-3.05 1.32-4.06 2.54-4.37 4.06-1.01-0.51-1.32-2.76 0.21-3.98 1.75-1.42 3.8-1.93 5.75-3.05 1.55-0.91 2.16-2.03 2.16-2.84 0-0.71-0.51-0.71-1.02-0.1-1.12 1.12-2.97 1.83-5.62 2.64-1.95 0.61-2.66 1.12-2.86 1.63-0.61-2.15 1.34-4 6.03-6.45 3.56-1.85 9.56-6.44 13.21-13.88 2.15-6.5 3.27-11.5 7.86-22.57 1.95-4.79 2.36-9.79 0.41-16.39-2.85-9.16-9.05-21.53-13.84-32.6-0.41-1.22-0.71-2.03-1.12-1.93h-0.01z" stroke="#000" stroke-linecap="round" stroke-linejoin="round" stroke-miterlimit="10" stroke-width="1.001"/>
  <path d="m102.6 75.4c-0.3-0.1-0.3 1.85-0.2 3.71 0.41 7.14 1.02 12.64 3.76 18.04 2.25 4.45 3.8 7.29 1.65 12.19-0.51 1.22 0.2 1.12 0.61 0.31 1.65-2.95 2.47-6.4-0.28-11.8-3.15-6.2-4.17-8.84-5.08-20.61-0.1-1.12-0.2-1.83-0.46-1.84z" stroke="#000" stroke-linecap="round" stroke-linejoin="round" stroke-miterlimit="10" stroke-width=".5005"/>
  <path d="m118.1 139.4c-2.35 15.42-8.95 27.89-21.12 36.75-1.35 1.12-0.74 0.51 0.07-0.51 7.83-7.84 9.88-9.59 14.77-20.16 2.65-5.6 5.29-15.77 6.28-16.08z" stroke="#000" stroke-linecap="round" stroke-linejoin="round" stroke-miterlimit="10" stroke-width="1.001"/>
  <path d="m110 120c-7 5.3-11.09 14.06-11.09 21.91" stroke="#000" stroke-linecap="round" stroke-linejoin="round" stroke-miterlimit="10" stroke-width="1.001"/>
  <path d="m107.7 147.1c-5.9 17.82-21.35 29.84-42.95 30.55-1.32 0-0.91-0.3 0.21-0.4 19.09-1.75 35.02-12.33 42.74-30.15z" stroke="#000" stroke-linecap="round" stroke-linejoin="round" stroke-miterlimit="10" stroke-width="1.001"/>
  <path d="m175.4 61.46c0.31-1.01 0-0.71-0.3 0.1-6.9 17.82-14.73 36.05-13.72 48.42 0.31 3.95 1.43 5.8 3.48 10.49 2.95 6.7 4.27 10.35 6.32 16.65 1.85 6 5.3 8.95 10.2 10.07 4.59 1.12 6.44 1.42 6.85 4.57 1.55 0.71 3.1 2.46 2.59 5.11-0.3 1.22-0.91 1.83-1.42 2.24 1.22 1.12 0.91 4.77-2.14 5.07-0.51 0.1-0.81 0-1.12-0.1-0.1 2.35-2.45 4.3-8.55 4.1-3.85-0.1-6.5-3.15-10.55-5.2-0.61-0.41-0.3-0.81 0.31-0.51 3.55 1.65 4.77 2.67 9.67 3.58 4.15 0.81 9.44-0.1 10.15-2.95s-1.14-3.76-6.03-5.18c-3.46-1.01-5.41-2.13-7.36-3.88-0.71-0.71-0.3-1.12 0.41-0.41 2.15 1.95 4.79 2.77 9.18 3.89 3.65 0.91 5.6 1.22 5.81 3.67 1.12-0.61 1.32-3.46-1.02-4.78-2.15-1.12-4.2-1.32-6.95-3.27-1.45-1.02-1.55-1.93-0.54-1.42 2.45 1.22 4.5 1.52 7.24 2.03 0.81 0.2 1.02-0.2 0.82-1.01-0.61-2.55-2.66-3.26-6.52-4.38-5.29-1.55-8.04-3.2-10.58-11.04-2.74-8.86-5.49-14.06-7.73-20.55-3.65-9.97 1.85-22.14 9.78-44.05l1.75-6.7-0.03-4.56z" stroke="#000" stroke-linecap="round" stroke-linejoin="round" stroke-miterlimit="10" stroke-width="1.501"/>
  <path d="m146.5 62.91c0.71-0.2 0.71 3.55 0.71 10.89 0 8.46-1.01 16.92-2.03 18.87-0.41 0.81-0.41-0.31-0.31-1.96 1.02-9.26 1.02-14.56 1.32-25.63 0-1.46 0-2.17 0.31-2.17z" stroke="#000" stroke-linecap="round" stroke-linejoin="round" stroke-miterlimit="10" stroke-width=".5005"/>
  <path d="m141.3 58.22c0.51-0.1 0.41 3.05 0.51 7.95 0.2 11.67-1.12 28.59-4.57 36.03-3.55 7.44-8.55 13.04-8.04 19.14 0.61 6.7 5.51 9.44 11.71 12.99 7.83 4.55 10.18 9.95 12.72 19.62 1.75 7.14 5.1 10.79 13.56 11.1" stroke="#000" stroke-linecap="round" stroke-linejoin="round" stroke-miterlimit="10" stroke-width="3.002"/>
  <path d="m142.9 100.6c0.51-1.85 1.42-1.14 0.91 0.61-1.75 6.1-4.9 9.25-1.14 15.75 0.71 1.32-0.41 1.01-1.22-0.41-2.75-4.79-2.14-7.64-0.29-11.39 0.81-1.75 1.22-2.91 1.73-4.56h0.01z" stroke="#000" stroke-linecap="round" stroke-linejoin="round" stroke-miterlimit="10" stroke-width="1.001"/>
  <path d="m142.8 128c7.1 5 10.35 9.69 11.77 24.1" stroke="#000" stroke-linecap="round" stroke-linejoin="round" stroke-miterlimit="10" stroke-width="1.001"/>
  <path d="m141.2 147.7c6.7 18.43 19.68 29.4 43.62 30.72 1.45 0.1 0.64 0.71-0.48 0.71-21.2-0.2-36.64-10.37-44.37-29.1-0.71-1.85 0-3.4 1.22-2.33h0.01z" stroke="#000" stroke-linecap="round" stroke-linejoin="round" stroke-miterlimit="10" stroke-width="1.501"/>
  <path d="m131.1 140.5c1.85 12.67 7.35 27.29 21.67 36.75" stroke="#000" stroke-linecap="round" stroke-linejoin="round" stroke-miterlimit="10" stroke-width="1.501"/>
  <defs>
    <linearGradient id="paint0_linear_1311_2224" x1="107.2" x2="140.2" y1="4.995" y2="4.995" gradientUnits="userSpaceOnUse">
      <stop stop-color="#fff" stop-opacity=".6" offset="0"/>
      <stop stop-color="#fff" stop-opacity=".01" offset="1"/>
    </linearGradient>
    <linearGradient id="paint1_linear_1311_2224" x1="140.2" x2="159.1" y1="25.84" y2="25.84" gradientUnits="userSpaceOnUse">
      <stop stop-color="#fff" stop-opacity=".6" offset="0"/>
      <stop stop-color="#fff" stop-opacity=".01" offset="1"/>
    </linearGradient>
    <linearGradient id="paint2_linear_1311_2224" x1="157" x2="243" y1="34.22" y2="34.22" gradientUnits="userSpaceOnUse">
      <stop stop-color="#fff" stop-opacity=".6" offset="0"/>
      <stop stop-color="#fff" stop-opacity=".01" offset="1"/>
    </linearGradient>
  </defs>
</svg>