<svg xmlns="http://www.w3.org/2000/svg" width="200" height="200" viewBox="0 0 200 200">
<!-- SVG created with Arrow, by QuiverAI (https://quiver.ai) -->
  <path d="m96.91 151.3c-4.84-1.21 0.45-2.61 3.08-8.31 2.8-6.04 1.79-11.95-4.27-15.12-2.92-1.49-5.65-0.65-7.56 0.4-0.24 0.12-0.12-0.51 0.23-0.92 4.23-4.88 1.59-13.88-3.31-14.32-2.02-0.2-4.93 1.21-9.03 4.15-0.86 0.62-3.17 1.7-3.37 1.39 3.47-5.82 9.72-10.21 10.22-15.56 0.64-6.85-5.78-10.98-12.61-7.76-13.22 6.18-27.97 29.8-32.74 43.72-2.3 6.7 2.26 12.38 8.42 11.74 1.35-0.15 2.21-0.65 2.04-0.21-1.5 3.07-3.63 6.7-3.75 10.23-0.15 5.64 4.97 9.52 10.69 8.57 3.69-0.62 6.81-3.3 9.9-5.65-1.74 5.07 0.25 9.43 5.86 11.67 2.3 0.92 4.7 0.62 6.63-0.02 0.8 6.28 6.3 9.75 11.82 8.18 3.97-1.15 6.23-4.42 8.77-9.82 4.09-8.65 8.25-10.65 5.35-17.79-1.07-2.41-3.17-3.82-6.37-4.57z" clip-rule="evenodd" fill="#B97779" fill-rule="evenodd"/>
  <path d="m33.92 7.77c-1.53 0.2-1.23 2.42-1.16 3.91 0.44 8.5 0.77 17.06 0.4 25.55-1.07 26.36-4.51 53.38-4.62 79.73-0.09 20.27 3.21 44.47 3.77 65.27l0.15 12.48c0.01 1.48 0.72 2.22 2.46 1.86 10.14-2.26 20-1.89 29.56-1.96 9.42 0.27 19.58 1.01 29.39 0.9 23.31-0.18 43.94-1.83 71.14-4.71 2.97-0.47 4.37-1.02 4.65-3.69 1.55-14.67-1.61-32.56-2.03-49.03-0.61-23.57 2.93-46.83 3.13-68.92 0.1-9.05 0.02-15.99-0.93-26.05-0.16-1.82-1.96-3.15-2.88-4.13-10.25-10.61-20.03-20.55-31.4-32.51-0.93-1-2.24-1.52-3.46-1.55-30.5-0.89-66.37-3.01-98.17 2.85zm102.3 2.44c8.96 11.08 18.56 20.84 26.98 28.81-7.31-1.86-11.84-1.68-19.41-1.94-3.52 0.01-5.38-1.25-4.79-6.96 0.76-7.48-1.12-14.36-2.78-19.91zm-101.6-1.35c27.41-3.54 51.13-3.6 85.11-2.31l13.36 0.44c2.72 5.42 3.21 16.07 2.12 24.4-0.92 7.4 3.68 8.62 9.64 8.41 9.94-0.36 16.21 1.11 23.28 3.99 1.94 16.17 0.4 32.01-1.17 49.02-1.58 17.48-2.29 33.25-1.6 47.15 0.64 13.35 2.57 26.72 2.04 40.07-0.17 4.26-0.45 6.78-1.04 7.76-16.97 2.48-38.15 4.26-61.44 4.12-11.07-0.07-21.14-0.32-32.17-0.97-12.01-0.73-24.29-0.57-37.75 2.54 0.73-19.06-3.05-43.38-3.29-67.27-0.23-23.38 3.34-60.18 3.64-84.43 0.15-10.85-0.23-20.18-0.73-32.92z" clip-rule="evenodd" fill="#000" fill-rule="evenodd"/>
  <path d="m126.7 33.48c3.28-4.65 2.89-11.83-3.76-13.72-13.5-3.96-32.88 8.05-47.87 26.51-8.1 10.21-14.84 21.02-19.04 31.73-1.96 5.01 0.44 7.44 4.07 6.76 8.94-1 18.19-12.68 30.11-24.75 8.94-9.54 19.07-16.99 26.8-17.88 3.94-0.45 3.67 3.02 0.9 7.84-6.82 11.95-25.23 29-40.22 47.95-11.4 11.84-17.41 25.05-18.65 32.04-0.78 5.87 3.91 7.85 9.2 3.64 8.32-6.61 21.81-28.68 38.14-49.55 5.91-7.28 13.7-15.92 21.17-16.1 4.88-0.05 5.45 6.34 0.23 16.82l-0.48 1.42c-9.45 4.57-22.33 13.73-22.77 20.42-0.19 2.68 2.42 3.74 6.16 1.4 5.47-3.26 11.87-11.12 16.72-18.42 2.47-1.2 5.21-2.15 7.62-1.92 5.72 0.52 7.04 5.71 2.54 13.21-10.41 16.16-34.05 34.88-47.32 55.48-3.95 6.11-6.56 11.58-6.27 15.76 0.42 6.31 5.59 7.68 11.04 5.53 7.33-1.97 13.57-7.52 20.03-12.12 0.98 6.7 5.84 10.76 12.29 9.88 2.54-0.26 4.74-1.02 6.77-1.96 1.82 5.62 6.15 7.51 13.78 6.63v-1.01c-6.46-0.29-9.56-1.9-11.61-6.67 5.45-3.07 9.75-7.97 10.78-11.27 1.02-3.47-2.61-5.77-6.21-3.14-3.96 2.79-6.8 9.08-6.57 13.27v0.07c-3.36 1.78-8.06 2.74-11.1 1.68-3.37-1.2-5.46-4.26-6.04-8.7 9.53-7.81 19.19-17.03 22.39-23.36 2.72-5.59-1.28-7.86-6.69-5.24-8.84 4.72-17.49 18.12-17.98 28.16-7.47 6.36-13.5 11.69-21.37 12.67-5.48 0.68-7.81-2.16-7.07-7.08 1.32-9.58 14.36-24.31 30.99-41.01 10.27-10.53 21.47-21.59 24.84-30.2 3.01-7.79-1.1-12.67-8.58-11.76-1.58 0.23-3.22 0.78-4.86 1.42 5.86-10.66 5.76-17.48 0.17-21.14-6.25-1.9-16.9 6.5-30 23.94-14.75 20.27-24.13 38.08-32.78 43.58-3.86 1.99-5.97-0.95-5.14-5.48 1.83-9.1 14.12-24.84 27.65-39.92 13.2-14.97 28.15-30.18 32.27-40.6 2.75-6.74-0.96-8.96-6.93-6.88-10.91 4-21.97 15.3-32.41 26.88-8.24 8.73-15.66 14.86-20.56 14.18-2.39-0.35-3.44-2.37-2.35-5.57 4.83-13.65 13.03-23.61 23.46-38.42 4.73-6.79 7.84-12.26 5.04-17.59-1.98-3.25-6.28-2.87-11.28 0.39-13.07 7.81-30.78 30.9-33.78 45.83-0.71 3.29-0.14 3.95 0.51 3.95h0.68c-0.68-3.29 0.6-6.55 2.53-10.87 6.7-13.82 22.19-33.03 33.97-38.75 4.75-2.26 7.38-0.28 5.29 4.64-5.57 10.88-22.43 29.85-28.93 48.6-1.2 3.83-0.45 5.6 0.21 6.52-6.37 12.52-11.43 26.76-14.94 35.92l0.65 0.13c5.11-12.41 8.56-22.18 14.87-34.69 1.38 1.71 3.83 2.27 6.67 1.65 9.51-2.3 22.36-18.19 33.98-29 5.92-5.68 12.8-10.9 19.39-12.85 3.91-1.14 4.51 1.39 1.95 6.71-5.18 10.27-20.6 26.24-35.12 43.34-11.48 13.58-22.2 26.63-24.84 37.6-1.31 6.63 3.54 7.57 8.04 4.27 7.17-5.22 19.95-26.27 36.49-47.8 7.55-10.07 14.82-17.73 22.69-18.81 6.38-0.45 7.63 6.34 0.12 19.85-9.35 5.36-18.8 12.64-21.38 18.44-1.6 4.02 1.88 4.82 5.28 2.52 5.46-3.57 11.96-11.75 16.33-18.67 2.6-1.35 5.57-2.69 8.76-2.44 5.33 0.38 6.76 5.32 2.8 12.67-6.23 11.05-23.94 27.63-37.16 43.08-10.75 12.93-16.9 22.74-16.96 28.51-0.09 5.73 3.97 8.02 9.64 6.66 6.7-1.71 13.34-7.14 21.29-13.09 1.28 7.34 6.67 11.19 13.71 9.71 1.89-0.4 3.6-1.05 5.22-1.8 1.2 3.76 3.86 6.88 14.02 6.9v-1.1c-7.24-0.25-10.04-2.6-11.52-6.55 5.34-3 9.45-7.48 10.77-11.17 1.25-3.69-2.49-5.65-5.68-3.38-4.37 3-7.14 9.2-7.19 13.27-4.16 2.16-9.06 3.33-13.28 1.19-3.12-1.51-3.94-4.85-4.15-8.26 7.38-6.32 17.58-15.13 21.9-22.41 3.51-5.94-0.02-8.82-5.72-5.92-8.23 4.11-17.24 17.7-18.02 27.3-7.65 6.14-13.79 13.11-23.15 14.03-5.05 0.6-6.87-3-5.61-8.2 1.61-6.97 8.96-17.27 21.06-30.79 13.16-14.9 28.39-28.26 34.14-39.09 4.26-8.07 0.53-13.95-7.49-12.64-1.81 0.27-3.64 0.9-5.4 1.59l0.36-0.97c4.23-8.36 5.14-16.54 0.09-19.6-5.8-2.55-16.03 5.85-25.95 18.47-14.38 18.71-27 40.38-35.91 47.75-3.93 2.85-6.04 0.53-6-3.15 0.17-8.2 12.07-25.25 19.87-34.11l-1.02-0.8c-8.98 9.71-21.89 27.55-20.92 36.9 0.59 5.79 5.97 4.3 9.99 0.94 7.94-6.93 18.1-24.91 31.79-44.39 8.16-11.82 17.1-21.49 25.46-21 6.43 0.51 6.61 7.48-0.77 19.99-8.52 4.7-18.63 12.51-20.89 18.31-1.4 4.02 2.39 4.55 5.54 2.49 5.56-3.47 12.58-12.44 16.81-19.41 2.84-1.51 5.95-2.69 9.24-2.37 5.47 0.62 6.3 6.53 2.47 13.39-5.37 9.81-21.57 25.09-33.89 38.74-11.25 13-20.1 24.69-20.58 31.65-0.59 6.4 3.9 9 9.52 7.15 7.39-2.26 14.38-8.5 21.1-14.12 0.88-8.72 8.5-21.03 18.18-27.12 4.8-2.55 6.66 0.09 4.01 5.09-4.19 6.63-13.13 15.41-20.39 20.9l-0.14 1.36 0.38-0.3c0.56 4.05 2.1 7.34 5.75 8.81 3.68 1.41 8.62-0.01 11.78-1.72-0.45-3.87 2.38-9.84 6.61-12.93 3.7-2.79 5.99-0.15 4.55 2.83-2.05 3.96-6.55 8.05-9.92 9.94l-0.46 0.3 0.11 1.36c6.46-3.69 11.36-9.27 12.02-12.43 0.9-4.19-3.59-4.56-6.3-2.33-3.96 3.14-6.65 8.78-6.94 13.44-4.16 2.08-9.05 3.16-13.28 1.06-3.77-1.83-4.7-5.62-4.92-9.39 9.22-7.63 19.94-16.7 23.79-24.49 2.33-4.91-2.22-5.44-6.25-3.31-9.35 4.79-18.43 18.37-18.85 28.72l-0.35 0.3c-7.55 6.39-14.56 13.28-24.48 13.64-5.47 0.24-6.57-4.29-4.82-9.93 3.2-9.88 14.55-23.34 26.78-36.39 11.46-12.74 23.82-24.48 28.83-33.39 3.79-6.87 0.87-12.81-6.76-11.82-2.23 0.23-4.52 0.98-6.66 1.84 5.68-10.89 6.42-18.73-0.28-21.26-6.8-1.48-18.71 9.61-30.61 25.9-12.4 17.39-23.6 36.29-32.15 42.61-4.05 2.43-4.33-1.59-3.43-6.24 2.59-12.09 16.05-29.06 21.19-34.36l-1.21-0.63c-8.89 9.93-20.58 26.04-21.55 36.95-0.73 6.47 4.65 6.66 9.22 2.59 9.25-8.39 20.93-30.15 36.33-50.54 8.31-11.22 15.77-17.69 22.49-16.15 6.66 1.71 5.21 10.16-1.22 21.66-8.04 4.42-17.1 11.95-19.21 17.2-1.3 3.25 0.95 3.3 3.96 1.35 5.69-3.54 12.45-12.7 15.98-18.5l1.58-1.25-0.41 0.13c2.84-1.28 5.95-2.09 9.24-1.34 5.06 1.06 7.32 6.22 3.27 14.29-5.98 11.47-24.59 27.73-38.51 44.49-11.07 13.19-17.87 23.36-17.33 28.83 0.59 5.35 5.41 6.04 10.57 4.14 7.59-2.84 12.97-7.93 20.2-13.91 0.89-9.61 9.55-23.24 18.39-27.96 4.8-2.55 7.06 0.01 4.5 5.26-3.63 7.5-15.15 17.57-22.88 23.97" clip-rule="evenodd" fill="#000" fill-rule="evenodd"/>
  <path d="m142.1 60.72c4.77-5.47 8.19-7.59 11.24-7.4 5.26 0.37 6.77 7.2 2.48 22.1l-0.55 2.11c-0.56 2.11-0.13 1.3-0.23 2.64l0.89 2.39c3.95-9.84 5.37-18.28 4.19-23.6-1.45-6.07-5.45-8.79-11.29-5.35-2.63 1.57-4.99 3.76-7.62 6.56l0.89 0.55z" clip-rule="evenodd" fill="#000" fill-rule="evenodd"/>
</svg>