<svg xmlns="http://www.w3.org/2000/svg" viewBox="0 0 150 150">
<!-- SVG created with Arrow, by QuiverAI (https://quiver.ai) -->
  <style type="text/css">.cls-0 {fill:none;stroke:#130E0B;stroke-width:0.55;stroke-miterlimit:10;}
.cls-1 {fill:none;stroke:#C9949A;stroke-width:3;stroke-miterlimit:10;}</style>
  <path class="cls-0" d="m58.8 14.5c0.6-5.3 6.3-12.2 16.3-12.1 9.4 0 15.9 6.3 16 11.8l-1.6 4.8c-0.8-4.5-5.6-12.5-14.7-12.5-8.5-0.1-14.2 7.2-14.4 11.2l-1.6-3.2z"/>
  <path class="cls-0" d="m59.1 16.1c-2.5-4.7-10.2-8.4-18.8-4.9-7.7 3.3-12.8 11.8-9.7 18.7l4.1 4.1c-3.5-5.9-0.8-13.9 5.8-18.1 6.1-3.9 14.4-4.1 19.9 2.3l0.5 1-1.8-3.1z"/>
  <path class="cls-0" d="m30.9 30.9c-4.4-2-12.5-0.9-17.3 6.2-5.5 7.9-4.1 17.5 1.9 22.3l5.1 1.2c-5.1-1.7-10.6-10-7.5-18.8 2.6-7.1 10.3-13.1 17.8-10.9z"/>
  <path class="cls-0" d="m15.5 59.5c-4.4 0-11.5 5.2-11.6 14.9-0.1 10.3 7.2 16.8 12.1 17l5.1-1.4c-6 0-13.1-4.9-13.2-14.5 0-7.9 6.6-14.4 12.7-14.4l-5.1-1.6z"/>
  <path class="cls-0" d="m15.5 91.4c-3.9 2.5-6 8.2-4.4 15.1 2.3 8.4 10.3 15.6 19.8 13.4l3.6-3.7c-4.8 2.7-13.9 1.9-18.3-5.6-3.8-6.5-2.7-16.1 4.3-20.4l-5 1.2z"/>
  <path class="cls-0" d="m30.6 120.1c-1.9 5.6 0.5 13 7.5 17.5 6 3.8 15.3 4.8 20.8-1.2l1.5-5c-2.8 4.2-9 6.8-16.2 4.8-7.1-2-13.1-10.1-10.7-17.8l-2.9 1.7z"/>
  <path class="cls-0" d="m58.9 136c0.7 4.9 6.1 11.7 15.7 11.9 9.9 0.3 16.1-5.9 16.6-11.9l-1.3-5.3c0 4.9-4.4 12.8-14.4 12.8-9.3 0.1-14.6-5.8-15.3-11.9l-1.3 4.4z"/>
  <path class="cls-0" d="m91.2 135.7c2.3 2.8 7 4.9 12.2 4.3 9.3-0.6 17.1-8.4 16.6-17-0.1-1.6-0.4-2.9-1.1-3.9l-3.4-3.2c3.6 4.2 1.9 13.6-5.6 18.1-5.5 3.2-14.5 3.6-19.7-2.6l1 4.3z"/>
  <path class="cls-0" d="m118.9 119.1c6.7 2.3 13.7-0.6 17.7-6.4 3.5-5.3 5-14.6-1.5-22l-4.7-1.1c4.7 1.8 8.6 8.1 6 17.1-2 6.7-9.8 14.4-18 12.2l0.5 0.2z"/>
  <path class="cls-0" d="m134.5 90.4c4.6-0.3 11.6-5.7 11.7-14.9 0-10-7.1-16-11.2-16.5l-0.6-0.1-4.3 1c4.6-0.3 12 4.6 12 14.7 0 6.8-5.5 14.8-12 14.6l4.4 1.2z"/>
  <path class="cls-0" d="m134.5 58.7c3.1-2.2 5.2-6.3 5-12.6-0.4-8.2-7.9-16.1-15.4-16.4-1.7 0-3.5 0.2-5.1 0.8l-3.1 3.4c3.6-3.9 12-5.2 18.6 1.5 6 6.1 7.1 17.2 0 23.3z"/>
  <path class="cls-0" d="m119 30.4c2.5-5 0.5-13.3-6.1-17.5-6.7-4.8-15.7-5.3-21.5 0.8l-1 4.7c3-3.8 10.1-7.5 17.3-4.3 7.7 3.1 11.2 12 8.4 18.5l2.9-2.2z"/>
  <path class="cls-0" d="m60.5 19.1c-0.8-3.9 4.2-12.7 14.2-12.6 9 0 15.2 7.1 15 12.2l-1.3 4c0-4.6-5.3-12.2-13.7-12.3-7.5 0-13.1 6.7-13.3 10.3l-0.2 2.7-0.7-4.3z"/>
  <path class="cls-0" d="m61.9 25.5c0-5.1 5.2-11.4 12.7-11.4 8.3-0.1 13.3 6.3 13.4 10.4l-0.4 2.2c-0.5-3.7-4.7-8.3-13-8.3-6 0-11.5 3.6-12.2 8.3l-0.5-1.2z"/>
  <path class="cls-0" d="m62.9 27.4 1 5.2c0.5-4.2 5.2-8.5 11-8.5 5.7-0.1 11.2 3.8 11.2 8.6l1.5-6c-1.2-5-6.9-8.3-13-8.3-5.5 0-11.2 3.2-12.2 8.3l0.5 0.7z"/>
  <path class="cls-0" d="m64 33.6c0-4.1 5.1-9.5 11.4-9.5 6 0 10.5 3.8 10.7 8.6l-1.2 4.4c0.2-3.4-3-8.7-9.8-8.7-5.2 0-9.7 3.8-9.9 7.7l-1.2-2.5z"/>
  <path class="cls-0" d="m65.6 36.7c0.3-3.5 4.3-8.3 9.5-8.3 6 0 9.5 4 9.5 7.7l-0.9 3.8c-0.1-3.4-3.1-8.2-8.8-8.2-4.2 0-8.3 3.5-8.5 7.3l-0.8-2.3z"/>
  <path class="cls-0" d="m66.6 40.1c0.1-3.5 3.9-8.4 8.4-8.4 5.2 0 8.4 3.7 8.6 7.3l-1 4.1c0-3.2-2.7-7.2-7.6-7.2-3.9 0-7.6 3.1-7.8 6.1l-0.6-1.9z"/>
  <path class="cls-0" d="m67.1 43.6c0.3-3.1 3.6-7.7 8-7.7 4.5 0 7.4 3.1 7.5 6.1l-0.5 3.4c-0.1-2.4-2.5-6.4-7.2-6.4-3.3 0-7 2.9-7.4 5.6l-0.4-1z"/>
  <path class="cls-0" d="m68.1 46.7c0.3-2.6 3.3-7.7 7.6-7.7 3.7 0 6.4 2.7 6.5 5.1l-0.8 3.8c-0.2-2.4-2.4-5.3-6.5-5.3-3.3 0-6.2 2.4-6.5 5l-0.3-0.9z"/>
  <path class="cls-0" d="m68.9 49.5c0.3-2.6 3-5.4 6.2-5.4 3.5 0 6 2.3 6.1 4.6l-0.6 4c-0.2-2.1-2-4.3-5.4-4.3-2.7 0-5.2 1.7-5.7 4.3l-0.6-3.2z"/>
  <path class="cls-0" d="m69.5 52.7c0.9-2.3 2.9-4.3 5.6-4.3 2.8 0 4.3 1.2 5.1 4-1.6 0-3.3-0.3-5.3-0.3-1.8 0-3.5 0.3-5.4 0.6z"/>
  <path class="cls-0" d="m61.4 23.5c-2.3-3.8-6.9-6.5-11.9-6.5-7.4 0-13.6 6.5-13.6 13.5 0 3.2 1 5.6 3 7.9-1.5-4-0.8-9 3-13.3 5-5.7 14-6.7 20 0.4l0.2 1.1-0.7-3.1z"/>
  <path class="cls-0" d="m62.4 27.4c-1.8-2.5-4.5-3.5-7.9-6.9-7.4-1.8-12.1 1.9-14.4 5.4-2.2 3-3.2 9-0.4 13l4.8 4.7c-2.9-4.7 0.1-11 6.1-13.6 4.5-2 10.1-6.9 11.8-2.6z"/>
  <path class="cls-0" d="m63.9 33.4c-2-3.3-7-5-11.8-3-5 2.1-9.5 7.3-7.6 13.2l3.1 2.8c-1.7-3.5-0.7-8.5 4.1-11.2 3.8-2.2 9.4-2.8 13 1.2l-0.8-3z"/>
  <path class="cls-0" d="m65.4 38.4c-2-3.3-5.9-5.9-11-4.3-4 1.3-9.2 5.8-6.8 12.3l2.8 2.7c-2-3.5-1.3-8.2 2.7-11 3.5-2.7 9.5-3.5 13 1.8l-0.7-1.5z"/>
  <path class="cls-0" d="m66.4 41.6c-2.3-4.2-7-6.2-11.3-4.2-4 1.7-7.4 7-4.5 12l2.5 2.5c-1.7-3.5 0-8.8 4.6-11.4 2.9-1.4 7.2-1.4 9.4 2.6l-0.7-1.5z"/>
  <path class="cls-0" d="m67.4 44.6c-1.8-3.5-5.3-5.5-9.7-4.1-3.3 1.1-7.6 5.4-4.6 11.4l3 2.6c-2-3.4-0.5-9 4.3-11.4 2.7-1 6.5-0.5 7.5 3l-0.5-1.5z"/>
  <path class="cls-0" d="m67.9 46.6c-1.3-2.2-3.9-4.2-7.5-3.5-3.8 0.8-8.3 5.3-5.9 9.8l2.4 2.2c-1.5-2.7 0.2-7 3.7-8.7 2.5-1.3 6.1-1.4 7.8 1.7l-0.5-1.5z"/>
  <path class="cls-0" d="m68.4 48.6c-1-2-4.3-3.6-7.3-2.2-3 1.2-6.5 5.2-4.2 8.7l2.5 2.5c-1.3-2.2-0.3-6 2.7-7.5 2-1.2 5.3-2.5 6.8 0.3l-0.5-1.8z"/>
  <path class="cls-0" d="m68.9 52.4c-1-1-3.8-1.5-6.2 0-1.8 1.2-3.6 3.2-3.3 6.2h1c2.2-2 5-4 8.5-5v-1.2z"/>
  <path class="cls-0" d="m68.9 53.1c-2.8-2-6-1.5-7.8 0.3-1.5 1.5-2 3.2-1.2 4.7 2.5-2.2 5.5-4 9-5z"/>
  <path class="cls-0" d="m53.1 79.9c-0.5-2.5-0.7-6.5 0.3-10.4-5.5-0.8-7.5-10 0-12.5 1.2-0.4 3.5-0.4 5.2 1.4-4.2-0.8-9.2 5.2-5.5 10.5 1-3.5 3-6.8 5.8-9.5l-5.8-6.3c-3.5-2-8-0.5-10.5 3.5-2.2 3.8-1.2 9.5 4 11l6.5 1.9c-3.5-0.8-7.7 1.9-7.7 5.9 0 3 2.5 6 7.7 5.7v-1.2z"/>
  <path class="cls-0" d="m53.1 81.4c-2.7-0.5-4.4-2.8-4.2-6.4 0.2-2.4 1.7-4.6 4.2-5.1l-3.2-1.2c-2.5-0.6-5.8 2.2-7.5 5-1 3.9 1 8.9 6.2 8.9l4.5-1.2z"/>
  <path class="cls-0" d="m53.1 81.6c-2.7 0.5-7.7-2.5-7.7-6.5 0-3 2.5-6.2 5.7-6.2l-4.2-1.3c-2.5 0-5.3 3-5.8 6.8-0.2 4.2 2.6 8.2 6.8 8.5l5.2-1.3z"/>
  <path class="cls-0" d="m48.1 82.9c-3.7-0.3-6.5-3.3-6.5-7.5 0-3.8 3.3-7.5 6.3-7.5l-3.8-0.9c-2.7 0.1-6 3.4-6.1 8.1 0 4.3 3.1 8.3 7.1 8.8l3-1z"/>
  <path class="cls-0" d="m44.5 84.1c-4.4-0.2-10.9-4.5-10.9-8.7-0.2-4.8 4.8-8.8 8.3-8.8l3.5 0.8c-3.5-1-11.8-2-14.8 5.3-2 5.9 1.8 11.9 7.5 12.7l6.4-1.3z"/>
  <path class="cls-0" d="m38.4 85.6c-4.5-0.5-8.5-4.2-8.2-10.5 0.2-4.7 4.2-9.7 8.4-9.5l-3.6-1.1c-3.6-0.1-8.9 3.6-9 10.6 0 6.5 4.4 11.3 9 11.3l3.4-0.8z"/>
  <path class="cls-0" d="m33.9 86.7c-4.3-0.6-7.9-4.6-7.8-11.6 0.3-6.5 5.3-10.6 8.5-10.7l-6-1.4c-3.2 0-8.2 4.6-8.4 11.6-0.3 7.5 4.4 13.3 8.4 13.5l5.3-1.4z"/>
  <path class="cls-0" d="m28.6 88.1c-4.2 0.3-10.2-4.5-10.2-12.6 0-7.4 5.2-12.1 9-12.6l-2.5-1c-4-0.3-13.2 4.5-13.2 13.5 0 8 6.9 13.7 12.7 14l4.2-1.3z"/>
  <path class="cls-0" d="m24.9 89.4c-4.5 0.2-13.2-4.3-13.2-14 0-7.5 6.9-13.5 12.7-13.5l3 0.7c-4.3-0.5-12.8 4.5-11.7 14 0.7 6 6.4 11.5 11.7 11.5l-2.5 1.3z"/>
  <path class="cls-0" d="m24.1 89.4c-4.5 1.5-11 6.2-9.2 15.7 2 9.3 12 14.5 19 11.6l3.5-2.8c-3.8 1.7-14.5 2.2-18.5-7.8-2.3-6.7 0.5-14.5 5.2-16.7z"/>
  <path class="cls-0" d="m27.4 88.6c-4.3 1-9.8 6-9 13.4 1 9.1 10.7 14.9 19 11.9l2.7-2.5c-3.7 2-12 2.5-17-4.8-3.7-6-1.7-15 3.3-17.2l1-0.8z"/>
  <path class="cls-0" d="m28.6 88.1 5.5-1.4c-2.5 1.4-4 5.7-2.7 10.4 2 6 8.2 10.6 13.5 8.5l-4.5 4.8c-4 2.2-12.3-1-14.8-9.8-1.2-5 0-10.5 3-12.5z"/>
  <path class="cls-0" d="m34.6 86.7 3.8-1.1c-3 1.5-4.3 5.8-2.8 10.5 1.8 5 7.8 9 12 6.5l-2.7 3c-5 2.3-11.5-1.2-13.5-7.5-1.5-4.7 0-10 3.2-11.4z"/>
  <path class="cls-0" d="m39.1 85.4 3.5-1c-3 1.5-5.5 5.7-4 10.5 1.8 4.7 7.5 7.2 12 5l-3 2.7c-4.2 2-10.2-0.5-12.2-6-1.5-4.7 0.2-9.7 3.7-11.2z"/>
  <path class="cls-0" d="m42.6 84.6 4-1.2c-3 1.2-5.5 4.7-4.2 9.2 1.5 4.3 6.7 7 11 4.5l-2.8-88.1"/>
</svg>