<svg xmlns="http://www.w3.org/2000/svg" viewBox="0 0 150 150">
<!-- SVG created with Arrow, by QuiverAI (https://quiver.ai) -->
  <style type="text/css">.cls-0 {fill:none;stroke:#040000;stroke-width:1.25;stroke-linecap:round;stroke-linejoin:round;stroke-miterlimit:10;}
.cls-1 {fill:#E9AC72;stroke:#040000;stroke-width:1.0963;stroke-linecap:round;stroke-linejoin:round;stroke-miterlimit:10;}
.cls-2 {fill:none;stroke:#040000;stroke-width:1.25;stroke-linecap:round;stroke-miterlimit:10;}
.cls-3 {fill:#E9AC72;stroke:#040000;stroke-width:1.0963;stroke-linecap:round;stroke-miterlimit:10;}</style>
  <path class="cls-0" d="m90 146.8-46.8-4.6c-5.2-0.5-9.8-4.2-10.4-10.4l10.9-104.2c0.7-5.8 6.4-10.6 11.7-10.1l48.2 4.9c5.9 0.3 11 5.3 10.3 12.6l-10.8 101.5c-0.5 6.4-6.2 11.3-13.1 10.3z"/>
  <path class="cls-2" d="m66.9 25.3 22.4 2.3"/>
  <path class="cls-0" d="m10.2 80.9c2.3 0.2 5.1 0.7 7.2 0.3 5-0.9 6.8-6.3 9.3-10.8 3.2-5.7 3.6-4.2 3.3 2.7-0.3 6.7-2.1 19.2-0.5 19.3 2.1 0.1 5.2-12 6.6-12.5 0.8-0.2 0.7 2.9 2.4 3 2.9 0.1 6.4-8.6 8.9-9.2 3.5-0.4 0.2 19-0.6 22.4 0 0.2 0.3 0.3 0.4 0.1 2.3-6.3 11.1-36.5 15.1-46.2 4-10.1 3.6-2.9 2.4 6.6-2 15.8-8.1 48.5-7.5 61.7 0.1 0.4 0.5 1.1 1.1 0.3 3.1-4 9.8-35.2 14-44.7 2.3-5.2 2.1 0.7 1.1 12.2-1 12.3 1.3 9 5.4-3.2 3.3-9.6 9.8-31.1 11.7-34.4 1.8-2.4-3.6 18.9-6.7 36.2-2.7 15.4-2.8 24.7-1.2 25.1 2.7 0.7 10.8-35.5 15-39.2 2.1-0.7 0 14.5 3.2 14.5 2.6 0 6.5-7 8.8-9.5"/>
  <path class="cls-0" d="m109.5 75.9c1.4-1.3 4.2-5.1 5.1-4.5 2.7 0.9-1.2 18.5-1.3 22.9 0 6.6 2.3 3.1 4.8-3.3 2-4.9 4.3-11.6 5.3-11.3 1 0.4 0.2 6.9 2.5 6.9 2 0 3.8-4.3 8.1-4.5 1.9 0 3.6 0.2 5.6 0.3"/>
  <path class="cls-1" d="m114.4 9.1v-4.1l10.6-1.8v3.1l-10.6 2"/>
  <path class="cls-3" d="m114.4 16.8c-2.3-1.7-5.5 0.1-5.5 1.8 0 2.8 5.7 2.8 5.5-0.7v-1.1z"/>
  <path class="cls-3" d="m125 14.6c-2.3-1.7-5.6-0.3-5.4 1.8 0.3 3 5.8 2.5 5.4-1v-0.8z"/>
  <path class="cls-0" d="m114.4 8.3v9.3"/>
  <path class="cls-0" d="m125 6.3v9.6"/>
</svg>