<svg xmlns="http://www.w3.org/2000/svg" width="250" height="250" fill="none" viewBox="0 0 250 250">
<!-- SVG created with Arrow, by QuiverAI (https://quiver.ai) -->
  <path d="m114.2 204.1c3.02-4.08 7.93-12.88 13.57-13.3 5.65-0.42 8.05 4.06 5.87 9.32s-8.84 13.63-13.52 13.84c-6 0.27-9.69-3.91-5.92-9.86z" fill="#F0B97D"/>
  <path d="m137.9 206.2c4.57-7.17 7.31-20.05 13.31-20.47s6.74 19.93 15.97 20.47c6.93 0.42 13.7-24.15 20.26-27.48" stroke="#000" stroke-linecap="round" stroke-width="3.4"/>
  <path d="m149.3 200.1c-0.63 2.19-1.2 4.95 0 4.95s2.04-1.91 2.04-4.95c0-1.91-1.45-1.73-2.04 0z" fill="#000"/>
  <path d="m226.6 184.4c2.18-7.6 2.93-20.9 8.72-21.65 2.41-0.54 3.41 0 4.42 0.75" stroke="#000" stroke-linecap="round" stroke-width="3.4"/>
  <path d="m238.4 173c-0.43 1.91 0.35 3.18 1.36 3.18 1.45 0 1.02-1.58 1.02-3.18s-1.67-2.53-2.38 0z" fill="#000" stroke="#000" stroke-width="1.31"/>
  <path d="m220.6 167.9c-2.67 9.2-3.87 23-10.69 23.27-3.41 0.14-4.71-2.38-6.01-4.29" stroke="#000" stroke-linecap="round" stroke-width="3.4"/>
  <path d="m208 176.7c-0.57 2.19 0.28 3.17 1.29 3.17 1.45 0 1.45-2.26 1.17-4.17s-1.81-1.49-2.46 1z" fill="#000" stroke="#000" stroke-width="1.31"/>
  <path d="m188 196.1c-0.74 2.05-0.88 4.19 0.42 4.19s1.87-2.05 2.01-3.82c0.15-1.77-1.43-2.75-2.43-0.37z" fill="#000" stroke="#000" stroke-width="1.31"/>
  <path d="m191.7 187.3c-1.12 1.35 0.43 2.5 1.73 1.91s1.72-1.34 1.09-2.47c-0.64-1.13-1.8-0.57-2.82 0.56z" fill="#000" stroke="#000" stroke-width="1.31"/>
  <path d="m166.8 193.8 5.41-11.2" stroke="#000" stroke-linecap="round" stroke-width="3.4"/>
  <path d="m124.3 185.8c-7.45 2.59-10.21 20.96-21.09 21.38-3.81 0.14-5.52-2.18-6.15-5.08" stroke="#000" stroke-linecap="round" stroke-width="3.4"/>
  <path d="m102.3 192.1c-1.01 1.13 0.64 3.04 1.94 2.76s2.03-1.77 1.3-3.25c-0.74-1.48-2.32-0.8-3.24 0.49z" fill="#000" stroke="#000" stroke-width="1.31"/>
  <path d="m90.72 190.4-8.01 13.66" stroke="#000" stroke-linecap="round" stroke-width="3.4"/>
  <path d="m83.71 183.9c-4.68 7.06-9.62 16.11-13.7 19.69" stroke="#000" stroke-linecap="round" stroke-width="3.4"/>
  <path d="m73.74 180.8c-7.45 5.67-11.67 19.18-19.82 19.6-3.7 0.14-5.14-2.49-5.57-3.96" stroke="#000" stroke-linecap="round" stroke-width="3.4"/>
  <path d="m54.21 185.2c-0.75 1.83 0.45 3.15 1.9 2.81 1.44-0.35 2.29-1.83 1.72-3.16-0.56-1.32-2.61-1.81-3.62 0.35z" fill="#000" stroke="#000" stroke-width="1.31"/>
  <path d="m46.68 178.9-8.69 13.69" stroke="#000" stroke-linecap="round" stroke-width="3.4"/>
  <path d="m40.82 171.4-13.86 18.19" stroke="#000" stroke-linecap="round" stroke-width="2.6"/>
  <path d="m31.66 168.4c-5.41 5.26-9.49 15.37-16.05 15.37-2.9 0-3.91-1.59-4.34-3.83" stroke="#000" stroke-linecap="round" stroke-width="3.4"/>
  <path d="m15.61 170.4c-1.01 1.6 0.28 2.57 1.44 2.22s2.32-1.86 1.69-2.99-2.22-0.78-3.13 0.77z" fill="#000" stroke="#000" stroke-width="1.31"/>
  <path d="m10.51 163.2-5.11 5.6" stroke="#000" stroke-linecap="round" stroke-width="3.4"/>
  <path d="m126.9 196.3c-2.18 0-2.75 1.84-2.54 2.89 0.29 1.39 1.48 1.88 2.78 1.32 1.71-0.78 2.14-4.21-0.24-4.21z" fill="#000" stroke="#000" stroke-width=".66"/>
  <path d="m187.1 166.3c13.51-3.05 41.63-12.53 52.23-27.36" stroke="#000" stroke-linecap="round" stroke-width="3.11"/>
  <path d="m221.9 123c4.53 2.7 6.45 5.15 5.95 9.7-1.42 13.3-32.18 24.09-68.72 27.13-27.66 2.37-48.97 2.09-70.92-0.95-19.53-2.45-29.72-5.15-46.12-12.67-6.93-2.9-12.03-6.62-15.97-12.43-1.2-5.05 1.14-8.16 6.38-11.06" stroke="#000" stroke-linecap="round" stroke-width="3.4"/>
  <path d="m18.04 144.3c19.25 15.11 50.69 26.44 105.8 27.09 5.42 0.07 11.91-0.14 20.74-0.35" stroke="#000" stroke-linecap="round" stroke-width="2.2"/>
  <path d="m218.6 111.8c7.73 3.19 16.13 7.46 19.75 13.61" stroke="#000" stroke-linecap="round" stroke-width="3.4"/>
  <path d="m34.13 113.1c-10.46 4.33-21.87 9.38-23.07 18.28" stroke="#000" stroke-linecap="round" stroke-width="3.4"/>
  <path d="m245.1 61.28c-7.7 9.62-5.19 21.43-14.71 35.12-5.27 7.45-12.72 13.53-19.35 26.55-4.01 7.67-6.91 11.78-10.92 12.2s-6.99-2.91-4.01-9.5c4.01-9.34 5.99-16.72 10.27-25.64-9.38 10.93-16.47 29.16-22.89 37.6-3.87 2.9-11.39 0.41-10.2-6.25 1.91-10.53 9.85-24.2 16.62-36.94-8.79 10.11-16.31 20.36-24.32 38.55-2.66 5.81-5.88 5.81-8.78 5.39-4.82-0.75-6.8-3.8-5.35-9.61 3.77-15.67 13.22-30.58 25.85-45.41-11.23 13.87-19.5 26.79-25.85 41.89-2.52 2.9-9.48 2.08-10.11-4.2-0.35-5 9.38-24.91 24.24-47.53-8.78 13.3-11.76 16.77-19.28 18.68-6.93 1.49-13.28-1.41-14.02-5.87-0.57-3.39 1.45-5.2 5.7-6.26 9.76-2.49 14.39-6.41 23.7-14.64 11.53-9.97 23.47-10.25 36.99-22.34 3.15-3.11 4.24-4.66 5.83-6.85" stroke="#000" stroke-linecap="round" stroke-linejoin="round" stroke-width="3.4"/>
  <path d="m196.4 126.6c-1.61 3.12-0.7 6.69 2.36 6.49 3.05-0.21 4.06-4.36 3.32-7.39-0.74-2.31-3.9-2.7-5.68 0.9z" stroke="#000" stroke-width="2.6"/>
  <path d="m174.9 129.7c-1.45 3.37 0.32 6.41 3.55 6.2 3.22-0.21 4.16-3.99 3.15-7.19-1.08-2.69-5.26-2.41-6.7 0.99z" stroke="#000" stroke-width="2.6"/>
  <path d="m152.7 129.2c-2.05 3.87-0.43 7.33 3.27 7.26 2.98-0.07 3.72-3.25 3.29-7.75-0.5-3.03-4.82-3.03-6.56 0.49z" stroke="#000" stroke-width="2.6"/>
  <path d="m142.9 118c-1.3 3.72 0.29 6.76 3.44 6.62 3.16-0.14 3.72-3.46 2.98-6.97-1.09-2.73-4.93-3.22-6.42 0.35z" stroke="#000" stroke-width="2.2"/>
  <path d="m134.9 83.34c3.15 0 9.78-0.7 10.35-4.24" stroke="#000" stroke-width="2.6"/>
  <path d="m47.53 38.21c6.39 8.65 13.98 14.05 27.08 18.86 12.15 4.39 16.33 8.34 23.4 13.39 5.42 3.92 9.81 6 18.08 8.3 4.75 1.2 4.97 7.9 0.51 9.95-5.83 3.11-12.46 0.62-17.87-0.97" stroke="#000" stroke-linecap="round" stroke-linejoin="round" stroke-width="3.4"/>
  <path d="m87.03 73.71c9.69 13.3 21.08 29.41 25.16 43.42 1.56 6.69-3.12 9.8-8.22 9.08-6.96-16.08-10.52-23.09-28.45-41.71 9.69 12.85 17.39 20.52 24.21 38.7 2.98 6.21 5.09 13.09-1.57 15.58-4.75 1.48-7.34-2.21-11.73-11.17-6-12.54-13.52-21.05-23.28-32.28 7.52 11.23 13.52 23.32 18.94 35.4 2.83 6.28-0.76 9.53-4.77 8.95-6.28-0.9-9.43-12.49-19.2-26.96-3.08-4.58-5.98-7.7-10.8-10.95 5.49 9.62 9.74 16.96 12.64 25.42 2.66 6.62 0.75 9.96-3.26 9.82-5.55-0.22-9.46-8.88-13.15-15-6.93-11.5-17.53-18.16-22.49-27.67-5.31-10.11-4.64-20.77-11.85-29.42" stroke="#000" stroke-linecap="round" stroke-linejoin="round" stroke-width="3.4"/>
  <path d="m107.7 78.55c1.3 2.9 4.99 4.09 9.74 3.81" stroke="#000" stroke-width="2.6"/>
  <path d="m104.8 102.2c9.05-0.63 17.95-1.05 35.07-0.14" stroke="#000" stroke-linecap="round" stroke-width="3.4"/>
  <path d="m116.9 110.2c6.39-0.49 10.3-0.49 18.57 0" stroke="#000" stroke-linecap="round" stroke-width="2.6"/>
  <path d="m109.1 116c1.84 1.91 2.12 7-1.36 7.75-2.94 0.65-4-3.29-3.78-6.29 0.28-2.2 3.26-3.25 5.14-1.46z" stroke="#000" stroke-width="2.2"/>
  <path d="m101.7 128.3c1.7 2.46 1.26 8.09-2.43 8.66-3.3 0.53-4.11-1.99-4.11-6.2 0-3.12 4.29-5.01 6.54-2.46z" stroke="#000" stroke-width="2.6"/>
  <path d="m79.84 129.2c2.59 1.91 2.87 7.62-1.52 8.37-2.98 0.56-3.71-2.39-3.99-5.97-0.22-3.03 3-4.03 5.51-2.4z" stroke="#000" stroke-width="2.6"/>
  <path d="m58.33 127.8c2.41 1.91 2.52 7.47-0.92 8.05-3.27 0.56-4.64-2.34-4.89-6.06-0.21-2.98 3.35-4.02 5.81-1.99z" stroke="#000" stroke-width="2.6"/>
  <path d="m85.36 148.9c8.79 2.19 15.55 3.16 39.69 3.98" stroke="#000" stroke-linecap="round" stroke-width="2.6"/>
  <path d="m152.3 151.7c14.86-1.27 28.31-3.53 48.96-10.26" stroke="#000" stroke-linecap="round" stroke-width="3.4"/>
</svg>