<svg xmlns="http://www.w3.org/2000/svg" width="200" height="200" fill="none" viewBox="0 0 200 200">
<!-- SVG created with Arrow, by QuiverAI (https://quiver.ai) -->
  <rect transform="translate(15)" width="170" height="200" fill="#FEFFFE" fill-opacity=".6"/>
  <path d="m104.2 39.95c-2.34-3.04-6.32-6.14-6.14-9.33 0.17-3.19 2.19-3.71 4.87-3.59s7.76 0.7 9.72-1.92 3.54-9.7 7.51-9.7c3.96 0 5.42 9.52 7.26 11.5s10.81 0.94 12.53 4.79-0.36 5.71-3.79 8.27c-2.74 2.06-4.13 2.87-4.01 5.85 0.12 2.97 2.26 10.4-1.22 12.32-3.49 1.92-9.98-5.22-12.99-5.4s-9.02 4.37-12.92 3.39-3.34-4.71-2.44-7.69 2.73-7.01 1.62-8.49z" fill="#F9C082"/>
  <path d="m106.1 114.1c-2.06-0.72-5.07-1.52-7.19-0.95s-7.32 2.49-8.54 2.94" stroke="#14181A" stroke-linecap="round" stroke-linejoin="round" stroke-width="2"/>
  <path d="m122.9 120.5c1.52 0.84 16.99 6.09 19.49 7.19s11.53 15.18 11.94 18.91c0.33 3.04-1.26 2.69-10.23 8.22-6.23 3.04-21.76 10.24-25.01 10.65s-5.87-5.68-15.02-19.27c-0.93-0.78-0.15-1.19 1.97-2.03 5.95-2.92 31.7-12.9 36.69-14.88 0.96-0.5 0.82-1.15-1.02-1.86" stroke="#14181A" stroke-linecap="round" stroke-linejoin="round" stroke-width="2"/>
  <path d="m103.4 145.4c-2.19 1.73-9.02 15.87-11.7 18.37s-7.53-0.6-13.7-3.1c-6.16-2.5-20.04-8.03-22.99-9.39-4.25-1.92-8.15-3.22-8.04-5.2 0.11-2.44 8.09-13.32 10.53-17.11 1.16-1.84 3-1.73 5.26-1.04s36.98 16.05 40.46 17.18" stroke="#14181A" stroke-linecap="round" stroke-linejoin="round" stroke-width="2"/>
  <path d="m57.26 153c-0.18 3.67-0.47 20.92 0.53 24.59 0.83 3.19 3.84 3.66 9.55 5.98 5.72 2.32 15.47 7.3 23.57 9.62 7.28 2.32 9.96 3.22 13.03 2.38s24.85-9.91 31.2-12.41 8.13-3.19 8.54-8.49 0.23-16.18 0.23-19.1" stroke="#14181A" stroke-linecap="round" stroke-linejoin="round" stroke-width="2"/>
  <path d="m103.2 148.1c-0.24 4.09-0.8 21-0.51 25.15 0.56 7.73 0.39 13.94 0.06 22.11" stroke="#14181A" stroke-linecap="round" stroke-linejoin="round" stroke-width="2"/>
  <path d="m114.1 128.5c1.08-8.05 6.75-16.65 14.45-21.63" stroke="#14181A" stroke-linecap="round" stroke-linejoin="round" stroke-width="2"/>
  <path d="m87.32 128.3c-1.28-10.16-7.57-22.55-16.48-28.58" stroke="#14181A" stroke-linecap="round" stroke-linejoin="round" stroke-width="1.5"/>
  <path d="m79.34 120.4c-5.61 2.56-15.93 5.36-19.25 6.71" stroke="#14181A" stroke-linecap="round" stroke-linejoin="round" stroke-width="2"/>
  <path d="m120.6 159.5c4.43-1.57 13.53-5.9 18.32-8.16" stroke="#14181A" stroke-linecap="round" stroke-linejoin="round" stroke-width="2"/>
  <path d="m140.1 162.7c-0.47 2.37-0.35 7.41-0.47 10.15" stroke="#14181A" stroke-linecap="round" stroke-linejoin="round" stroke-width="2"/>
  <path d="m145.4 148.7c-0.61 0.35-1.28 0.7-1.75 0.87" stroke="#14181A" stroke-linecap="round" stroke-linejoin="round" stroke-width="2"/>
  <path d="m57.14 135.2c-1.9 2.92-4.02 7.07-5.43 9.15" stroke="#14181A" stroke-linecap="round" stroke-linejoin="round" stroke-width="2"/>
  <path d="m59.86 170.6c0 3.29 0.06 5.21 2.26 6.51 1.72 0.98 4.91 2.14 7.59 2.92" stroke="#14181A" stroke-linecap="round" stroke-linejoin="round" stroke-width="1.5"/>
  <path d="m74.38 181c0.9 0.29 1.74 0.7 2.86 0.99" stroke="#14181A" stroke-linecap="round" stroke-linejoin="round" stroke-width="1.5"/>
  <path d="m114.6 26.91c1.12-2.86 2.58-6.17 4.3-7.39" stroke="#14181A" stroke-linecap="round" stroke-linejoin="round" stroke-width="1.5"/>
  <path d="m128.4 44.72c0.57 2.74 1.25 5.6 0.41 8.02" stroke="#14181A" stroke-linecap="round" stroke-linejoin="round" stroke-width="1.5"/>
  <path d="m104.6 38.91c-2.34-3.04-6.9-6.14-6.55-9.33 0.34-3.19 2.19-3.54 5.3-3.54s7.27 0.7 9.23-1.92 3.24-9.06 7.57-8.71c3.9 0.35 5.02 8.52 6.54 10.84 1.89 3.04 11.22 0.9 13.28 5.88 2.06 4.99-5.39 7.96-7.69 10.82s1.89 10.29-1.06 14.14-10.11-4.93-14.07-5.45c-2.68-0.35-8.45 4.14-11.94 3.16-3.48-0.98-3.07-4.42-1.8-8.58 0.9-2.98 2.3-5.84 1.19-7.31z" stroke="#14181A" stroke-linecap="round" stroke-linejoin="round" stroke-width="2"/>
  <path d="m114.5 62.51c-2.5 5.24-4.7 12.2-5.32 17.12" stroke="#14181A" stroke-linecap="round" stroke-linejoin="round" stroke-width="1.5"/>
  <path d="m130.2 81.04c-5.39 0-14.16 8.84-14.16 21.88" stroke="#14181A" stroke-linecap="round" stroke-linejoin="round" stroke-width="1.5"/>
  <path d="m121.2 92.34c1.64-1.1 4.65-2.08 5.87-0.11 1.22 1.98-0.3 4.6-2.66 4.6-2.35 0-4.13-1.42-4.48-3.21" stroke="#14181A" stroke-linecap="round" stroke-linejoin="round" stroke-width="2"/>
  <path d="m136.3 112.6c1.95-5.54 7.51-7.8 11.05-6.94 3.54 0.85 5.12 2.38 4.77 4.94-0.35 2.12-2.07 3.1-3.47 2.75-2.62-0.69-2.44-4.54-1.48-7.16 1.84-4.98 10.55-7.3 15.89-2.32" stroke="#14181A" stroke-linecap="round" stroke-linejoin="round" stroke-width="2"/>
  <path d="m34.86 101.7c3.25-3.67 7.87-2.99 10.27-2.41 5.71 1.42 9.81 7.45 9.58 11.36s-2.59 5.51-5.09 5.1-3.34-2.77-2.78-5.1c0.78-2.92 5.17-4.09 9.07-3.51 5.45 0.78 7.95 2.76 9.91 7.48" stroke="#14181A" stroke-linecap="round" stroke-linejoin="round" stroke-width="1.5"/>
  <path d="m165.3 58.92c1.9-3.67 7.04-4.71 11.15-2.51 5.45 2.86 5.68 8.6 3.56 11.69-2.68 4.08-5.57 4.55-7.97 3.97-3.12-0.78-4.78-3.7-4.26-6.02 0.73-3.1 3.03-4 5.33-3.48s3.2 2.84 2.3 4.49-2.3 1.65-3.37 1.04" stroke="#14181A" stroke-linecap="round" stroke-linejoin="round" stroke-width="2"/>
  <path d="m153.7 23.36c2.3-1.22 3.31 0.63 3.48 1.89 0.35 2.36-1.37 3.78-3.03 3.66-2.12-0.17-2.85-1.88-2.44-3.41 0.29-0.98 0.93-1.76 1.99-2.14z" stroke="#14181A" stroke-linecap="round" stroke-linejoin="round" stroke-width="1.5"/>
  <path d="m136.5 67.41c0.84-0.29 0.78 0.23 0.32 0.52" stroke="#14181A" stroke-linecap="round" stroke-linejoin="round" stroke-width="3.5"/>
  <path d="m93.08 67.41c-2.4-1.3-2.57-4.16-1.45-6.08 1.01-1.87 4.61-0.89 4.67 0.95 0.06 1.48-0.84 2.84-2.24 2.84" stroke="#14181A" stroke-linecap="round" stroke-linejoin="round" stroke-width="1.5"/>
  <path d="m102 101.3c-1.52 0.78-1.64 2.7-0.63 3.86 1.4 1.7 3.9 1.01 4.19-0.85 0.24-1.41-0.29-2.57-1.4-2.98" stroke="#14181A" stroke-linecap="round" stroke-linejoin="round" stroke-width="1.5"/>
  <path d="m94.92 122.6c0.68 0 0.39 0.73 0.21 0.56" stroke="#14181A" stroke-linecap="round" stroke-linejoin="round" stroke-width="3.5"/>
  <path d="m53.5 59.85c-0.78 0.89-0.21 1.07 0.26 0.78 0.68-0.41 0.05-1.19-0.26-0.78z" stroke="#14181A" stroke-linecap="round" stroke-linejoin="round" stroke-width="3.5"/>
  <path d="m105.1 125.6c-1.95-0.78-3.28 0.69-3.4 2.16s1.21 5.41 2.61 5.7c0.73 0.18 0.32-3.49 2.44-5.7 1.17-1.24 0-1.76-1.65-2.16z" stroke="#14181A" stroke-linecap="round" stroke-linejoin="round" stroke-width="2"/>
  <path d="m159.6 41.01c-1.01-0.35-4.67 2.17-6.57 2.52-2.89 0.52-3.3 3.61-2.89 6.41 0.56 3.47-1.02 5.61-2.3 5.96-0.78 0.23-0.11 0.96 0.95 1.13 2.83 0.52 5.57-1.39 5.8-5.39 0.12-2.5 1.74-3.28 4.15-3.86 2.4-0.58 4.06-0.75 3.65-2.49-0.35-1.47-1.75-3.93-2.79-4.28z" stroke="#14181A" stroke-linecap="round" stroke-linejoin="round" stroke-width="2"/>
  <path d="m167.7 85.04c1.9-0.68 2.96 0.68 2.96 1.98 0 1.7-1.78 2.63-3.24 2.16" stroke="#14181A" stroke-linecap="round" stroke-linejoin="round" stroke-width="2"/>
  <path d="m76.44 30.5c3.31 1.98 6.68 7.64 7.74 9.9" stroke="#14181A" stroke-linecap="round" stroke-linejoin="round" stroke-width="2"/>
  <path d="m42.67 28.14c-3.31 1.98-4.93 6.59-3.92 8.18 1.46 2.5 3.7 1.41 6.44 0.53 2.74-0.87 4.94-1.1 5.84 1.28 1.22 3.36-2.98 5.52-2.75 7.92s1.85 2.34 4.11 2.86" stroke="#14181A" stroke-linecap="round" stroke-linejoin="round" stroke-width="1.5"/>
  <path d="m67.09 80.16c-0.23-6.03-5.21-9.38-10.06-9.26-6.11 0.17-9.84 6.26-9.72 10.64 0.17 5.6 4.01 8.85 8.63 8.85 5.77 0 7.67-3.54 7.67-7.27s-3.35-5.43-5.75-5.43c-2.85 0-4.63 2.03-4.63 4.45 0 2.26 1.52 3.47 3.18 3.29 1.4-0.17 2.13-1.15 1.95-2.42" stroke="#14181A" stroke-linecap="round" stroke-linejoin="round" stroke-width="1.5"/>
  <path d="m89.13 102c1.12-2.26 1.53-4.3-0.97-5.34s-3.01-1.88-2-4.4 1.57-4.17-0.93-4.69c-2.5-0.51-3.51-1.4-1.99-3.92s1.99-5.67-0.51-6.55c-1.9-0.69-3.3-0.06-3.65 0.66" stroke="#14181A" stroke-linecap="round" stroke-linejoin="round" stroke-width="1.5"/>
  <path d="m21.15 84.92c0.95-1.16 1.18-2.87 1.59-3.61 0.51-0.98 1.41-0.35 2.42 0.43s3.9 0.6 5.3-0.03c1.95-0.9 2.46 0.14 1.3 3.24-0.68 1.92-0.21 3.78-1.11 5s-2.56-0.54-3.63-1.63c-1.06-1.1-4.31-0.58-6.49-1.21-1.62-0.52-0.72-1.3 0.62-2.19z" stroke="#14181A" stroke-linecap="round" stroke-linejoin="round" stroke-width="1.5"/>
  <path d="m28.48 58.26 0.56-5.4c0.12-0.84 0.68-1.01 1.3-0.32l3.11 3.67 3.96-0.46c1.12-0.11 1.41 0.87 0.62 1.97l-1.56 2.2 2.35 3.79c0.62 1.04-0.06 1.82-1.52 1.47l-3.54-0.84-3.01 3.91c-0.62 0.84-1.3 0.49-1.3-0.61l-0.23-4.1-4.48-0.94c-0.62-0.12-0.5-1.16 0.62-1.9l3.12-2.44z" stroke="#14181A" stroke-linecap="round" stroke-linejoin="round" stroke-width="1.5"/>
  <path d="m68.71 47.75 0.73-5.4c0.18-1.1 1.29-1.16 2.25 0.2l2.74 3.96 3.68-0.92c1.34-0.35 1.86 0.63 0.8 2.16l-2.4 3.54 2 4.87c0.51 1.32-0.28 1.78-1.9 0.95l-3.6-1.86-2.95 4.31c-0.84 1.26-1.85 0.8-1.79-1.12l0.12-4.23-5.33-1.98c-0.9-0.35-0.67-1.29 0.79-1.81l4.86-2.67z" stroke="#14181A" stroke-linecap="round" stroke-linejoin="round" stroke-width="1.5"/>
  <path d="m95.25 83.12c1.17-0.78 2.07-1.99 2.48-3.25"/>
</svg>