<svg xmlns="http://www.w3.org/2000/svg" width="250" height="250" fill="none" viewBox="0 0 250 250">
<!-- SVG created with Arrow, by QuiverAI (https://quiver.ai) -->
  <rect transform="translate(0 24.54)" width="250" height="200.9" fill="#FEFFFE" fill-opacity=".7"/>
  <path d="m168.5 46.15c2.72-5.52 9.23-8.49 16.44-7.93 8.98 0.72 15.82 6.65 25.04 12.53 5.52 3.58 3.82 19.33-1.86 31.41-13.8 30.39-41.79 47.83-70.83 61.99-14.79 7.21-33.06 13.58-45.09 23.54-5.21 4.47-10.37 16.09-16.13 17.11-2.28 0.42-5.44-1.53-7.34-2.51 4.24-10.11 14.99-19.33 23.91-25.58 20.01-14.08 43.08-23.99 63.59-38.8 17.52-12.3 36.72-29.16 40.71-51.61 1.91-10.22-2.82-22.07-13.76-23.21-6.24-0.66-12.1 2.65-14.68 7.81v-4.75z" fill="#F5BF7B"/>
  <path d="m167.9 47.28c2.15-8.49 8.99-10.5 15.39-9.78 10.44 1.23 15.02 12.31 14 23.41-2.5 28.78-27.02 50.08-50.22 65.16-23.68 15.54-50.78 27.12-69.98 47.54-4.4 4.74-8.9 11.26-9.79 18.05-0.14 1.07 1.62 1.32 1.91 0.25 6.76-20.79 28.6-29.73 47.06-39.1 30.09-14.4 60.92-29.07 82.63-56.8 10.29-13.32 15.89-29.89 12.17-46.8-3.18-13.47-14.18-22.95-26.36-21.72-10.93 1.13-18.72 9.55-18.45 21.41" fill="#F5BF7B"/>
  <path d="m168.1 51.82c-1.2-9.09 4.8-14.89 13.55-14.71 11.35 0.25 16.67 11.7 15.75 23.08-2.3 28.78-26.53 50.08-50.1 65.16-23.98 15.54-51.28 27.12-70.68 47.54-4.45 4.74-8.04 9.97-9.41 16.05" stroke="#17171A" stroke-linecap="round" stroke-linejoin="round" stroke-miterlimit="10" stroke-width="2.7"/>
  <path d="m168.1 51.82c-0.27-8.1 5.31-12.56 13.1-12.12 9.5 0.58 14.82 9.11 14.75 19.01" stroke="#17171A" stroke-linecap="round" stroke-linejoin="round" stroke-miterlimit="10" stroke-width="2.7"/>
  <path d="m167.8 49.42c-1.02-11.51 7.45-20.99 19.63-21.28 12.7-0.44 22.06 10.51 23.5 23.83 2.8 25.18-13.72 48.14-33.05 64.94-19.8 17.72-44.15 28.53-67.58 40.82-8.33 4.74-17.39 10.82-21.37 17.34" stroke="#17171A" stroke-linecap="round" stroke-linejoin="round" stroke-miterlimit="10" stroke-width="2.7"/>
  <path d="m110 80.11c-2.09-5.3 1.63-13.4 12.07-13.99 10.44-0.43 15.23 11.02 15.1 20.92-0.47 15.81-11.05 29.87-24.19 39.18-15.06 11.85-34.86 20.38-44.63 40.51" stroke="#17171A" stroke-linecap="round" stroke-linejoin="round" stroke-miterlimit="10" stroke-width="2.7"/>
  <path d="m110 80.11c-3.49-5.83-1.4-14.92 7.07-21.06 3.85-2.54 10.69-2.26 16.01 0.57 10.71 5.83 12.54 19.3 10.04 29.2-5.17 18.86-19.41 32.63-35.93 43.94" stroke="#17171A" stroke-linecap="round" stroke-linejoin="round" stroke-miterlimit="10" stroke-width="2.7"/>
  <path d="m159.2 141.4c18.01-4.46 32.93-17.64 44.97-32.3 9.5-10.96 16.71-19.75 28.4-19.03 9.5 0.58 13.42 8.68 13.01 15.47-0.54 8.1-6.68 13.29-12.81 12.71-3.92-0.44-6.58-2.59-7.5-5.18" stroke="#17171A" stroke-linecap="round" stroke-linejoin="round" stroke-miterlimit="10" stroke-width="2.7"/>
  <path d="m97.66 178.9c23.67-10.53 50.5-25.74 74.18-27.75 5.39-1.13 11.25-1.28 16.64-1.28 23.68 0 46.13 18.01 46.47 40.97 0.13 11.52-8.34 29.82-26.54 30.25-8.98 0.29-15.54-4.75-20.2-10.89 3.49 2.16 7.54 3.62 11.97 3.18 13-1.13 21.98-14.16 21.85-23.76-1.02-17.44-16.08-29.54-37.72-30.41-22.05-1.03-46.28 5.91-60.39 10.94" stroke="#17171A" stroke-linecap="round" stroke-linejoin="round" stroke-miterlimit="10" stroke-width="2.7"/>
  <path d="m127.8 174.9c-10.93 20.98-29.98 39.28-51.78 38.44-1.94-0.14-3.44-0.29-5.37-0.72" stroke="#17171A" stroke-linecap="round" stroke-linejoin="round" stroke-miterlimit="10" stroke-width="2.7"/>
  <path d="m114.5 178.9c-7.21 16.28-20.68 24.97-37.47 24.97-29.61 0-56.97-26.9-63.81-78.1-0.14-0.71 0.75-1 1.29-0.72 16.66 8.68 39.66 12.98 72.75 10.97" stroke="#17171A" stroke-linecap="round" stroke-linejoin="round" stroke-miterlimit="10" stroke-width="2.7"/>
  <path d="m14.5 115.7c-7.79 3.17-9.72 9.97-9.99 17.48" stroke="#17171A" stroke-linecap="round" stroke-linejoin="round" stroke-miterlimit="10" stroke-width="2.7"/>
  <path d="m39.69 177.8c6.07-6.14 12.13-7.84 18.53-7.84 4.79 0 8.51 1.7 9.71 3.44" stroke="#17171A" stroke-linecap="round" stroke-linejoin="round" stroke-miterlimit="10" stroke-width="2.7"/>
</svg>