<svg xmlns="http://www.w3.org/2000/svg" width="181" height="232" fill="none" viewBox="0 0 181 232">
<!-- SVG created with Arrow, by QuiverAI (https://quiver.ai) -->
  <path d="m165.8 197c0-13.52 0.3-35.78 0.7-56.97 0.09-4.53-0.36-19.21-0.17-30.25 0.27-15.04 0-37-2.68-49.76-2.85-13.63-8.44-23.53-19.22-34.89-13.19-13.84-30.09-19.41-52.4-20.83-11.43-0.73-28.93 2.8-38.9 7.82-10.95 5.51-17 11.18-24.63 21.31-6.62 8.65-10.34 17.31-11.85 30.52-1.91 10.84-1.91 23.82-1.91 34.09 0 5.86-0.34 13.03-0.2 19.78 0.19 9.05-0.34 16.15 0 24.35 0.6 14.56 0.76 28.72 0.76 45.96 0 2.87-0.21 5.8 0.23 9.08" fill="#FEFEFE"/>
  <path d="m165.8 197c0-13.52 0.3-35.78 0.7-56.97 0.09-4.53-0.36-19.21-0.17-30.25 0.27-15.04 0-37-2.68-49.76-2.85-13.63-8.44-23.53-19.22-34.89-13.19-13.84-30.09-19.41-52.4-20.83-11.43-0.73-28.93 2.8-38.9 7.82-10.95 5.51-17 11.18-24.63 21.31-6.62 8.65-10.34 17.31-11.85 30.52-1.91 10.84-1.91 23.82-1.91 34.09 0 5.86-0.34 13.03-0.2 19.78 0.19 9.05-0.34 16.15 0 24.35 0.6 14.56 0.76 28.72 0.76 45.96 0 2.87-0.21 5.8 0.23 9.08" stroke="#000" stroke-linecap="round" stroke-linejoin="round" stroke-width="2.5"/>
  <path d="m152.9 187.2c0 1.69-0.24 0.47-0.24 1.22s-0.11 1.3-1.4 1.3h-8.34c-5.96 0-12.09-0.45-18.05-0.45s-11.52-0.14-17.48-0.14-11.92-0.18-17.88-0.18-11.92 0.32-17.88 0.32-11.88-0.45-17.84-0.45-12.43 0.13-18.39-0.09c-2.3-0.09-4.24-0.09-7.74-0.45 0-6.3-0.23-14.33 0-21.09 0.34-10.84-0.54-29.7-0.54-42.99 0-11.58 0.54-25.83 0.54-41.67 0-0.71 0.8-0.51 1.71-0.51 6.41 0.31 14.66 0.31 21.08 0.18 7.34-0.18 15.58 0 22.92 0 2.89 0 5.78-0.22 8.67-0.13 8.25 0.22 16.97 0 25.21 0.13 9.68 0.18 19.85 0.18 29.54 0 4.09-0.09 8.66-0.09 15.66-0.36 1.3-0.05 1.5 1.08 1.5 6.25s0.54 17.2 0.54 23.86c0 14.83-1.02 34.19-1.02 47.48 0 9.05-0.04 17.2-0.57 27.77z" fill="#FEFEFE" stroke="#000" stroke-linecap="round" stroke-linejoin="round" stroke-width="2.5"/>
  <path d="m152.9 71.86c-2.61-27.7-23.07-56.03-62.85-56.55-35.34-0.48-58.8 24.56-62.39 56.55-0.27 1.85 10.19 0.91 17.12 0.69 9.25-0.31 28.87-0.13 38.12-0.13 9.25 0.31 19.22 0.31 28.47 0.09 10.24-0.27 26.86-0.65 41.53-0.65z" fill="#FEFEFE" stroke="#000" stroke-linecap="round" stroke-linejoin="round" stroke-width="2.5"/>
  <path d="m6.28 198.7c2.63-1.07 12.05-1.07 15.93-0.93 6.8 0.27 21.01 0 26.57 0.13 7.25 0.18 12.94 0 17.43 0 3.95 0 12.7 0.18 18.12 0.18 4.39 0 14.63-0.31 20.59-0.31h20.02c5.96 0 13.93-0.18 19.89 0 4.32 0.13 7.95-0.18 11.31-0.18 4.46 0 10.77-0.27 15.99 0.18 4.32 0.36 5.09 1.62 5.09 8.43 0 4.46-0.98 5.77-2.03 5.77-1.91 0.62-12.4-0.27-21.08-0.27-6.2 0-15.69 0.67-23.79 0.27-6.27-0.31-11.49 0.26-17.45 0.26s-14.44-0.13-20.4-0.13-14.21 0.79-20.17 0.79-14.88-0.18-20.84-0.18-14.44 0.31-21.24-0.18c-4.81-0.34-12.51 0.36-18.47 0.18s-7.97-1.45-7.97-5.33-0.13-7.39 2.5-8.68z" fill="#FEFEFE" stroke="#000" stroke-linecap="round" stroke-linejoin="round" stroke-width="2.5"/>
  <path d="m53.61 169c1.6-2.87 14.17-6.91 18.61-8.47 7.06-2.55 14.56-4.99 21.62-7.75 6.02-2.44 23.28-9.87 29.97-10.5 3.11 1.4 8.27 13.35 10.6 18.4 3.57 8.07 7.5 17.06 12.65 26.11 1.85 3.39 3.7 10.09 4.13 13.1-1.03 2.76-15.48 7.09-21.98 9.85-8.1 3.01-17.13 5.39-24.38 9.27-4.72 2.57-14.82 7.04-23.77 8.68-3.11 0-6.22-8.99-8.98-13.91-3.82-6.94-7.25-16.68-11.97-25.67-1.99-3.83-6.5-15.03-6.5-19.11z" fill="#B0C6A9"/>
  <path d="m76.91 162.2 2.4 1.77 1.91-1.77 3.49 2.21-2.4 2.76-3 0.93-1.91 2.76 2.4 0.45 3.95-3.21 3.46-1.39 5.42-4.96 4.95-4.42 4.95-0.93 4.95-2.76 5.42-0.49 5.96-2.76 3.95-3.21 0.97 4.12-3.46 3.21-2.96 0.93-3.95 1.81-3.95 0.45-4.45 0.93-3.46 0.93-4.45 1.77-3.95 2.72-3.95 2.71-2.96 1.34-1.53-2.76-2.96-0.93-2.96-0.4-1.88-1.81z" fill="#B9CEB8"/>
  <path d="m96.55 175 2.4-1.39 1.91 0.93-1.91 2.25h-2.4v-1.79z" fill="#B9CEB8"/>
  <path d="m109.9 196.1 3.46-0.93 1.91 1.35-2.4 1.81h-2.4l-0.57-2.23z" fill="#B9CEB8"/>
  <path d="m104.9 200.6 2.96-1.81 1 1.35-2.4 2.25h-1.56v-1.79z" fill="#B9CEB8"/>
  <path d="m133.1 202.4 3.95-1.79 1.45-2.24 2.96-0.45 2.4 0.88-1.45 2.72-4.95 1.81-4.36-0.93z" fill="#B9CEB8"/>
  <path d="m84.21 209 2.4-1.81 1.91 0.93 2.4-0.93 2.4 0.93 2.96-0.93 2.4-1.76 1.91 0.88-2.96 2.69-3.95 0.45-2.4-0.93-2.4 1.39-2.4-0.46-2.27-0.45z" fill="#B9CEB8"/>
  <path d="m82.76 226.8 3.46-1.81 2.4 0.93 2.96-1.81 2.96 0.45 2.96-1.39 1.91 0.45-2.46 2.26-5.42 0.45-2.96 0.93h-2.96l-2.85-0.46z" fill="#D4E1D6"/>
  <path d="m53.61 169c2.4 1.81 7.62 5.88 12.57 7.69 8.1 2.54 17.78 7.19 25.88 10.52 5.7 2.29 12.86 4.37 17.04 2.29 4.95-2.43 6.96-12.86 9.72-20.32 2.76-7.47 6.39-13.24 4.99-26.27" stroke="#000" stroke-linecap="round" stroke-linejoin="round" stroke-width="2.5"/>
  <path d="m54.66 169c4.12 8.25 9.94 19.87 13.6 28.1 3.95 9 9.91 18.99 10.4 28.82" stroke="#000" stroke-linecap="round" stroke-linejoin="round" stroke-width="2.5"/>
  <path d="m88.12 185.4c-1.91 8.99-4.67 18.48-7.07 26.56-1.24 4.47-1.77 7.97-1.24 13.96" stroke="#000" stroke-linecap="round" stroke-linejoin="round" stroke-width="2.5"/>
  <path d="m117.6 175.4c6.41 3.1 10.49 7.17 17.59 10.27 5.96 2.76 11.92 8.18 15.03 13.61" stroke="#000" stroke-linecap="round" stroke-linejoin="round" stroke-width="2.5"/>
</svg>