<svg xmlns="http://www.w3.org/2000/svg" width="250" height="250" fill="none" viewBox="0 0 250 250">
<!-- SVG created with Arrow, by QuiverAI (https://quiver.ai) -->
  <path d="m26.33 173.1c4.31 2.72 17.95 3.29 28.45 0.46 5.32-1.47 18.56-7 27.26-13.7 12.52-9.94 20.04-22.55 35.06-29.87 11.65-4.49 16.82-4.43 25.62-0.84 4.48 1.85 3.7 14.23 11.45 15.48 8.99 1.46 13.33-6.67 13.33-13.72 0-6.18-2.71-11.8-7.04-15.58-3.03-2.64-7.15-8.23-15.71-10.49-8.71-1.73-21.93 0.09-37 7.89-14.38 8.09-19.13 15.47-28.58 26.03-7.94 8.99-18.58 20.25-28.02 25.14-8.08 4.48-14.38 6-20.99 6.53-2.8 0.29-4.28 1.61-3.83 2.67z" fill="#64996C" opacity=".4"/>
  <path d="m144.2 129.2c3.16-0.79 8.66-0.17 10.97 1.99 3.59 3.3 3.48 5.99 4.11 7.71 0.89 2.57-2.22 4.38-5.81 3.19-4.01-1.35-4.44-5.02-6.41-8.8-1.04-1.98-2.86-4.09-2.86-4.09z" fill="#64996C" opacity=".4"/>
  <path d="m5.54 167.3c6.18 3.48 12.92 5.84 22.72 5.62 10.03-0.23 19.02-3.08 26.58-7.71 14.54-8.44 22.27-18.84 32.83-30.03 9.91-10.27 20.54-19.76 37.17-23.19 6.92-1.9 16.26-2.06 23.48 1.02 8.85 3.81 14.65 11.01 13.69 22.01-0.19 2.01-1.19 3.47-1.6 2.01-1.62-5.78-6.61-9.45-15.6-8.16-10.9 1.6-16.75 12.01-16 22.16 1.2 13.08 12.4 21.62 29.1 22.44 14.35 0.28 28.92-8.38 40.91-10.49 7.06-1.66 14.21-1.41 22.07 1.33 8.15 2.99 12.22 4.93 24.43 4.77 0.86-0.05 0.56-0.65 0.56-0.65" stroke="#1D1D1B" stroke-linecap="round" stroke-width="1.2"/>
  <path d="m107.6 92.18c2.36-3.33 6.84-6.56 10.81-7.54 3.66-0.91 5.76 0.14 7.8 0.18 4.08 0.23 6.2 1.54 13.37 0.79 0.82-0.19 0.08 0.21-0.35 0.49-2.41 1.73-6.13 1.85-10.82 0.71-2.38-0.6-3.07 0.91-3.29 1.82-0.43 1.34-1.31 3.53-1.34 4.79-0.04 1.72 0.83 2.34 2.29 3.02 1.55 0.79 4.12 1.48 5.11 2.57 1.67 1.86 2.96 7.41 4.09 9.3" stroke="#030000" stroke-linecap="round" stroke-linejoin="round" stroke-width="1.2"/>
  <path d="m120.4 86.09c-1.23 2.12-2.22 6.99-2.55 8.7-0.6 3.04 1.44 4.85 3.41 5.89 2.3 1.08 3.05 1.43 2.52 4.33-0.49 2.53-1.38 6.45-1.38 6.45" stroke="#030000" stroke-linecap="round" stroke-linejoin="round" stroke-width="1.2"/>
  <path d="m125.2 97.69c1.19 1.13 4.23 1.57 5.25 2.91 1.27 1.77 2.75 5.81 4.47 7.06" stroke="#030000" stroke-linecap="round" stroke-linejoin="round" stroke-width="1.2"/>
  <path d="m108.2 114.4c12.39-1.04 29.77-5.69 41.5-11.34 0.3-0.2-0.04 0 0.49-0.46 0.41-0.26-0.49 0.34-0.49 0.34" stroke="#030000" stroke-linecap="round" stroke-width="1.2"/>
  <path d="m124.9 73.19c2.54 0 2.57 3.38 2.29 4.37-0.55 2.28-1.57 3.13-2.9 3.05-2.54-0.17-2.54-2.96-2.19-4.42 0.55-1.71 1.29-3 2.8-3z" stroke="#030000" stroke-linecap="round" stroke-linejoin="round" stroke-width="1.01"/>
</svg>