<svg xmlns="http://www.w3.org/2000/svg" width="200" height="200" fill="none" viewBox="0 0 200 200">
<!-- SVG created with Arrow, by QuiverAI (https://quiver.ai) -->
  <path d="m197.1 66.16-2.04 5.95-36.85-7.38-3.34-12.02-20.78 0.5-6.04-8.17 1.86-13.13-9.82-10.14-0.9-1.98-46.97 1.9-1.32 4.42 47.87-1.69 7.82 9.29-1.52 12.4 7.92 8.99 18.4-1.15 5.38 8.75 40.33 3.46z" fill="url(#paint0_linear_101_2561)" opacity=".2"/>
  <path d="m113 98.82c3.18-2.79 3.82-4.93 3.82-8 0-6.5-4.92-10.81-12.54-10.81-8.32 0-13.13 5.6-13.13 9.47 0 2.86 2.12 4.11 4.09 4.11 2.16 0 2.94-1.35 3.7-2.91 0.98-2.14 2.03-2.92 4.16-2.92 2.57 0 3.86 1.59 3.86 3.96 0 3.06-2.03 4.07-4.75 4.34-2.13 0.23-3.61 1.04-3.61 3.32s1.51 2.96 3.75 3.19c3.72 0.37 5.55 1.62 5.55 5.24 0 2.93-2.03 5.24-5.14 5.24-2.79 0-4.3-1.42-5.55-4.24-0.91-2.21-2.03-2.85-3.64-2.85-2.37 0-3.96 1.79-3.96 4.39 0 4.78 5.09 9.8 14.44 9.8 9.25 0 14.75-6.36 14.75-11.84 0-4-1.69-7.45-5.8-9.49z" fill="#C1D9EA"/>
  <path d="m109.4 69.61 2.93-6.32" stroke="#000" stroke-linecap="round" stroke-linejoin="round" stroke-width="2.5"/>
  <path d="m93.38 51.34c8.21 0 14 7.33 15.53 16.37" stroke="#000" stroke-linecap="round" stroke-linejoin="round" stroke-width="2"/>
  <path d="m103.3 65.72 5.58 4.31 1.27-2.97" stroke="#000" stroke-linecap="round" stroke-linejoin="round" stroke-width="2.5"/>
  <path d="m65.31 33.46 2.26-6.26" stroke="#000" stroke-linecap="round" stroke-linejoin="round" stroke-width="2.2"/>
  <path d="m50.11 16.26c7.8 0 12.63 5.07 15.07 13.68" stroke="#000" stroke-linecap="round" stroke-linejoin="round" stroke-width="1.7"/>
  <path d="m59.18 28.71 6.13 4.75 1.3-3.37" stroke="#000" stroke-linecap="round" stroke-linejoin="round" stroke-width="2.2"/>
  <path d="m73.91 65.72h-1.7c0-2.8-0.1-7.49-0.1-11.51 0-3.06 0.23-5.76 0-8.59-0.3-3.73-1.99-5.61-5.3-5.61-3.06 0-4.75 2.21-6.62 5.34l-12.43 19.29c-1.15 1.94-1.55 3.19-1.55 4.44 0 2.47 1.45 3.55 3.82 3.55h13.58v4.46c0 2.92 1.25 4.54 4.01 4.54s4.01-1.9 4.01-4.54v-4.46h1.69c2.59 0 3.5-1.52 3.5-3.52s-1.11-3.39-2.91-3.39zm-10.4 0h-9.55l7.05-12.01c1.15-2.1 1.45-2.64 1.96-2.64 0.61 0 0.64 0.74 0.64 2.85l-0.1 11.8z" stroke="#000" stroke-linecap="round" stroke-linejoin="round" stroke-width="2"/>
  <path d="m103.7 120c8.32-0.43 12.64-6.65 12.64-12.13 0-4-1.69-7.46-5.8-9.5 3.18-2.78 3.82-4.92 3.82-7.99 0-6.5-4.92-10.41-12.14-10.08-8.32 0.38-12.23 5.3-12.23 8.9 0 2.47 1.76 4.02 3.73 3.92 2.16-0.1 2.94-1.42 3.7-2.97 0.98-2.14 2.03-2.92 4.16-3.02 2.57-0.13 3.86 1.77 3.86 4.14 0 3.06-2.03 4.08-4.75 4.34-2.13 0.24-3.17 1.19-3.17 2.99 0 1.81 1.11 2.55 3.35 2.68 3.72 0.24 6.29 1.49 6.29 5.74 0 3.19-2.44 5.5-5.55 5.64-2.79 0.12-4.3-1.56-5.55-4.39-0.91-2.21-2.34-2.65-3.95-2.58-2.37 0.1-3.66 2.24-3.56 4.42 0.23 5.01 5.25 10.4 15.15 9.89z" stroke="#000" stroke-linecap="round" stroke-linejoin="round" stroke-width="2"/>
  <path d="m150.8 106.4 2.73-6.82" stroke="#000" stroke-linecap="round" stroke-linejoin="round" stroke-width="2.5"/>
  <path d="m135.1 88.25c7.62 0 13.22 6.66 15.53 15.46" stroke="#000" stroke-linecap="round" stroke-linejoin="round" stroke-width="2"/>
  <path d="m145.8 101.1 5.19 5.19 1.01-3.14" stroke="#000" stroke-linecap="round" stroke-linejoin="round" stroke-width="2.5"/>
  <path d="m193.4 137.7-2.73 6.82" stroke="#000" stroke-linecap="round" stroke-linejoin="round" stroke-width="2.5"/>
  <path d="m175 125.9c8.12 0 13.72 6.66 15.78 15.46" stroke="#000" stroke-linecap="round" stroke-linejoin="round" stroke-width="2"/>
  <path d="m185.4 139.5 5.47 4.85 1.15-2.97" stroke="#000" stroke-linecap="round" stroke-linejoin="round" stroke-width="2.5"/>
  <path d="m155.2 147.4h-12.01c-1.05 0-1.42-0.2-1.42-0.64 0-0.61 0.98-1.48 3.38-3.21 8.52-5.73 13-9.06 13-15.62 0-7.26-5.39-12.41-12.65-12.41-8.52 0-12.7 6.43-12.7 10.98 0 2.47 1.66 4.02 3.93 4.02 1.93 0 2.91-1.15 3.59-3.52 0.88-2.86 2.53-4.24 5.46-4.24 3.49 0 5.04 2.47 5.04 5 0 3.53-2.86 6-8.27 9.89-7.06 5.02-10.55 9.55-10.55 13 0 2.31 1.65 3.46 4.94 3.46h18.06c2.86 0 3.37-2.14 3.37-3.66s-0.91-3.05-3.17-3.05z" stroke="#000" stroke-linecap="round" stroke-linejoin="round" stroke-width="2"/>
  <path d="m190 160.4c0.14-4.25-1.66-5.57-3.66-5.57-2.03 0-3.01 0.81-4.16 3.28-1.45 2.76-3.85 3.94-7.03 4.48-1.69 0.34-2.5 1.28-2.5 2.87 0 1.9 1.25 3.15 3.48 3.15h5.31c0.41 0 0.61 0.34 0.61 1.05v20.72c0 3.59 1.55 5.28 4.31 5.28s4.01-2.31 4.01-5.14c-0.34-9.07-0.57-18.22-0.37-30.12z" stroke="#000" stroke-linecap="round" stroke-linejoin="round" stroke-width="2"/>
  <path d="m158.1 175.1 3.75 4.39-5.05 4.02" stroke="#000" stroke-linecap="round" stroke-linejoin="round" stroke-width="2.5"/>
  <path d="m147.3 170.1c1.41 5.38 5.6 8.38 11.6 8.65" stroke="#000" stroke-linecap="round" stroke-linejoin="round" stroke-width="2.2"/>
  <path d="m116.9 140.5 3.17 4.18-4.98 3.33" stroke="#000" stroke-linecap="round" stroke-linejoin="round" stroke-width="2.5"/>
  <path d="m105.1 134.9c1.76 5.6 6.11 8.8 12.01 9.41" stroke="#000" stroke-linecap="round" stroke-linejoin="round" stroke-width="2"/>
  <path d="m33.87 68.6 4.42 4.12-4.98 3.79" stroke="#000" stroke-linecap="round" stroke-linejoin="round" stroke-width="2.5"/>
  <path d="m23.63 62.96c2.06 5.7 5.88 8.76 12.18 9.47" stroke="#000" stroke-linecap="round" stroke-linejoin="round" stroke-width="2"/>
  <path d="m75.21 103.4 3.82 3.99-5.15 3.46" stroke="#000" stroke-linecap="round" stroke-linejoin="round" stroke-width="2.5"/>
  <path d="m63.98 97.91c2.07 5.4 6.15 8.26 11.63 8.7" stroke="#000" stroke-linecap="round" stroke-linejoin="round" stroke-width="2"/>
  <path d="m12.01 3.61c-1.9 0.47-2.68 1.62-3.08 4.45l-2.37 14.92c-0.54 3.46 1.15 5.33 4.15 5.33 2.37 0 3.52-1.02 5.17-2.27 1.38-1.01 2.53-1.35 4.19-1.35 4.15 0 6.38 3.22 6.38 8.03 0 5.02-3.31 7.39-6.62 7.39-2.99 0-4.51-1.35-6.02-4.04-1.08-1.94-2.4-2.34-4.09-2.34-2.63 0-4.21 2.21-4.21 4.55 0 4.82 5.22 9.63 14.57 9.63s15.84-6.83 15.84-15.6c0-9.2-6.2-15.39-14.79-15.19-2.16 0-4.19 0.34-6.69 1.42l0.98-7.1h13.3c4.05 0 5.74-1.72 5.74-4.42 0-2.47-2.03-4.02-5.4-4.02h-14.35c-1.38 0-2.12 0.13-2.7 0.61z" stroke="#000" stroke-linecap="round" stroke-linejoin="round" stroke-width="2"/>
  <path d="m127.9 90.09c2 0 2.5-1.32 2.5-2.4 0-1.25-0.98-2.33-2.6-2.33s-2.5 1.15-2.5 2.4c0 1.15 0.81 2.33 2.6 2.33z" fill="#000"/>
  <path d="m85.88 53.81c2 0 2.64-1.59 2.64-2.67 0-1.52-1.25-2.6-2.7-2.6-1.69 0-2.37 1.39-2.37 2.37 0 1.45 1.05 2.9 2.43 2.9z" fill="#000"/>
  <path d="m43.91 17.93c2 0.54 2.81-0.88 2.95-1.82 0.26-1.59-0.82-2.33-2-2.53-1.62-0.31-2.7 0.74-2.84 1.82-0.23 1.25 0.41 2.26 1.89 2.53z" fill="#000"/>
  <path d="m22.52 59.73c1.59 0.2 2.1-1.05 2.17-1.92 0.1-1.25-0.88-2.06-1.86-2.13-1.32-0.1-2.06 0.98-2.13 1.86-0.1 1.08 0.54 2.05 1.82 2.19z" fill="#000"/>
  <path d="m63.41 94.61c1.52 0.34 2.06-0.91 2.13-1.79 0.1-1.42-0.88-2.09-1.86-2.16-1.32-0.1-1.96 1.05-1.96 1.93-0.1 1.01 0.54 1.89 1.69 2.02z" fill="#000"/>
  <path d="m104.4 132.1c1.62 0 1.92-1.35 1.92-2.23 0-1.25-1.15-1.99-2.13-1.99-1.35 0-1.99 1.15-1.99 2.03 0 1.08 0.78 2.19 2.2 2.19z" fill="#000"/>
  <path d="m146.4 166.7c1.76 0 2.13-1.42 2.1-2.4-0.1-1.35-1.25-1.99-2.23-1.92-1.45 0.1-1.99 1.25-1.93 2.29 0.07 1.05 0.78 2.03 2.06 2.03z" fill="#000"/>
  <path d="m168 128.1c2.06 0 2.64-1.69 2.64-2.77 0-1.62-1.39-2.7-2.74-2.7-1.76 0-2.64 1.49-2.64 2.67 0 1.45 1.08 2.8 2.74 2.8z" fill="#000"/>
  <defs>
    <linearGradient id="paint0_linear_101_2561" x1="134.3" x2="171.6" y1="20.01" y2="73.08" gradientUnits="userSpaceOnUse">
      <stop stop-color="#FEFFFE" offset="0"/>
      <stop stop-color="#C1D9EA" offset="1"/>
    </linearGradient>
  </defs>
</svg>