<svg xmlns="http://www.w3.org/2000/svg" width="250" height="250" fill="none" viewBox="0 0 250 250">
<!-- SVG created with Arrow, by QuiverAI (https://quiver.ai) -->
  <path d="m0.01 128.4 101-1.5v-5l-101 5.5v1z" fill="url(#paint0_linear_163_2116)" opacity=".2"/>
  <path d="m196.5 0 2.5 37.41-14.5 10 0.5 49-14 1.5-6-3 0.5-10.5 9-0.5 2.5-5-5.5-5-2.5-5-7-1.5-3.5-6.5-8-3.5-9 1-6.5 7.5-5 0.5-7-4-11-2.5-11 2-8 6.5-4.5 8-7.5 1.5-6.5 5-2.5 7-8 3.5-3.5 5.5 2 5 9 2.5 40.5-1 0.5 13.5 9 1 54.5-1 11.5-2.5 1.5-8-8-4.5-2.5-7.5-7.5-2.5-5 1-2-7.5-8-6-10 0.5-3.5-3-3.5-4.5-8.5-1-5.5-7-5-5-11-2.5-10.5 2.5-9.5 12.5-3 2-8 1-6 6.5-1 5.5-8.5 2.5-3 6.5 1.5 5.5 6.5 3 43.5-1 0.5 13.5 7 1 57-1 12-2.5 2-7.5-7.5-5.5-1.5-7.5 5.5-1.5 12.5-8 0.5-45-1.5-41.41h-1z" fill="url(#paint1_linear_163_2116)" opacity=".2"/>
  <path d="m130 127.6c-3.85 7.57-10 8.5-19.57 8.7-1.82 0.04-2.33 0.75-2.13 3.07 0.16 1.95 0.66 5.8 0 6.83-0.83 1.3-3.3 0.8-3.8 2.45s0.5 4.25 0.5 4.25" stroke="#292A2B" stroke-linecap="round" stroke-linejoin="round" stroke-width="1.08"/>
  <path d="m104 152.9c-1-0.5-2.5-0.5-2.5 1.5s0.5 4-3.5 7-4.5 8 2.5 12.5c5.27 3.42 7.4 3.2 11 9 2.2 3.6 2.5 8 2.5 8.5" stroke="#292A2B" stroke-linecap="round" stroke-linejoin="round" stroke-width="1.08"/>
  <path d="m105 153.4c1.5 0.5 2.9 3 4 4" stroke="#292A2B" stroke-linecap="round" stroke-linejoin="round" stroke-width=".75"/>
  <path d="m103.5 176.4c8 4 21 8.5 32.5 6.65 2.4-0.39 5.5-1.45 5.5-1.45" stroke="#292A2B" stroke-linecap="round" stroke-linejoin="round" stroke-width=".75"/>
  <path d="m137 129.4c10 0 17.75 8.7 19.9 18.5" stroke="#292A2B" stroke-linecap="round" stroke-linejoin="round" stroke-width="1.08"/>
  <path d="m133 136.9c6.9 0 9.9 4.5 11.9 15" stroke="#292A2B" stroke-linecap="round" stroke-linejoin="round" stroke-width="1.08"/>
  <path d="m128.8 138.8c1.75-0.7 6.25-0.9 7.75 0.1" stroke="#292A2B" stroke-linecap="round" stroke-linejoin="round" stroke-width=".75"/>
  <path d="m129.5 144.4c2 2.5 5.5 5 9 5.5" stroke="#292A2B" stroke-linecap="round" stroke-linejoin="round" stroke-width=".75"/>
  <path d="m135.7 145.6c2.71 0 3.83-2.2 3.83-3.7s-1.6-3-3.2-3-3.8 1-3.8 3.2c0 1.8 1.4 3.5 3.17 3.5z" stroke="#292A2B" stroke-linecap="round" stroke-linejoin="round" stroke-width=".75"/>
  <path d="m135.7 144.6c1.94 0 2.8-1.5 2.8-2.5s-1.1-2.2-2.3-2.2-2.7 0.7-2.7 2.3c0 1.2 0.9 2.4 2.2 2.4z" fill="#292A2B"/>
  <path d="m128 68.11c1.75-2.5 5-2.5 7-2 2-5.5 7-8.7 12-8.7 7.5 0 12 6 12.8 12 0.2 1.2 0.7 0.7 1-0.5 0.7-1.5 2.7-1.8 4.2-1.8 4.5 0 5.5 3.8 5.5 6.3 4-0.3 6.5 1.2 6.5 5.2s-3.5 5.3-12.5 5.3" stroke="#1D1D1B" stroke-linecap="round" stroke-linejoin="round" stroke-width="1.08"/>
  <path d="m142 78.91c-3.5-6.5-9-6-14.5-4.3-3-9.5-9-15.7-20-15.7-12.5 0-18 8.5-20 17.5-7.5-2.5-16.5 1-16.5 12.5 0 0.8 0.2 0.5-1.5 0.5-6 0.5-9.6 4-9.6 9 0 5.5 4.6 8 15.6 8 8 0 22.5-0.8 33-0.8" stroke="#1D1D1B" stroke-linecap="round" stroke-linejoin="round" stroke-width="1.08"/>
  <path d="m122 103.4c-1.5-6 3-11 8.5-10.5 2 0.2 3 0.7 3 0.7 2.5-9 8.5-12.7 16-12.7 8 0 15 6 16.5 14.5 0.2 1 1 0.2 1.5-0.3 1.2-1.2 3-1.7 4.5-1.7 5.5 0 8 5 8 9.5 6 0 9 2.5 9 7.5 0 6-6 8.7-19 8.7s-24-0.2-47.5 1c-8.5 0.3-11-3.7-11-7.7 0-5 4.5-9 10.5-9z" fill="url(#paint2_linear_163_2116)" stroke="#1D1D1B" stroke-linecap="round" stroke-linejoin="round" stroke-width="1.08"/>
  <defs>
    <linearGradient id="paint0_linear_163_2116" x1="-.4863" x2="101" y1="125.7" y2="125.7" gradientUnits="userSpaceOnUse">
      <stop stop-color="#F1F1F1" offset="0"/>
      <stop stop-color="#F1F1F1" stop-opacity=".25" offset="1"/>
    </linearGradient>
    <linearGradient id="paint1_linear_163_2116" x1="198.8" x2="178.3" y1="-1.09" y2="100.9" gradientUnits="userSpaceOnUse">
      <stop stop-color="#F1F1F1" offset="0"/>
      <stop stop-color="#F1F1F1" stop-opacity=".25" offset="1"/>
    </linearGradient>
    <linearGradient id="paint2_linear_163_2116" x1="135" x2="148" y1="80.41" y2="120.4" gradientUnits="userSpaceOnUse">
      <stop stop-color="#D3DFD5" offset="0"/>
      <stop stop-color="#9BC0A5" offset="1"/>
    </linearGradient>
  </defs>
</svg>