<svg xmlns="http://www.w3.org/2000/svg" width="192" height="192" fill="none" viewBox="0 0 192 192">
<!-- SVG created with Arrow, by QuiverAI (https://quiver.ai) -->
  <rect width="192" height="192" fill="#FEFFFE" fill-opacity=".6"/>
  <path d="m108.5 3c9.53 0.25 22.71 10.28 23.3 27.06 0.65 19.03-11.62 27.92-22.8 34.65-7.69 4.9-11.2 11.2-10.1 20.12 0.3 2.63 3.03 5.92 3.03 5.92-4 0-10.44-8.63-10.44-19 0-9.58 5.7-16.04 10.64-21.02 6.7-6.77 11.8-11.65 11.8-19.77 0-6.84-3.49-10.25-7.1-10.25-3.03 0-4.9 2.45-4.9 4.9 0 1.35-0.14 2.18-0.14 2.18-2.06-1.1-2.83-2.68-2.83-4.7 0-3.61 3.17-5.32 5.78-5.32 6.2 0 10.07 5.59 10.07 13.52 0 8.06-4.57 12.94-13.08 21.73-6.27 6.63-10.04 11.69-10.04 20.81 0 1.23-0.2 2.55-0.4 2.55l-2.33-0.14c-1.23-3.01-0.76-10.05 3.37-17.64 3.53-6.43 14.64-15.12 17.54-21.38 1.87-4.16 2.54-14-3.79-15.09-3.34-0.59-5.4 2.72-5.4 4.43 0 1.1 0.07 2.09 1.05 3.37-1.39 1.22-2.68 1.48-4.68 1.29-4.06-0.4-8.19-5.91-7.89-11.06 0.57-9.97 9.58-17.43 19.34-17.16z" fill="#F1BF8E"/>
  <path d="m107 3.01c10.98-0.26 20.98 11.78 20.71 27.81-0.27 14.53-6.74 23.13-19.18 30.59-11.51 7.04-13.24 16.95-6.17 29.53-5.2-1.78-12.26-11.13-12.83-18.99-0.77-10.44 5.63-17.54 10.77-22.49 7.69-7.3 12.16-12.45 11.89-20.51-0.2-5.79-3.53-8.94-6.63-8.87-3.06 0.07-4.58 2.88-4.52 4.83 0.04 1.36 0.34 2.45 1.12 4.04-1.99 1.87-2.9 2.53-5.5 2.66-4.07 0.2-8.7-5.18-8.83-10.4-0.27-9.97 8.65-17.96 19.17-18.2z" stroke="#000" stroke-linecap="round" stroke-linejoin="round" stroke-miterlimit="10" stroke-width="2"/>
  <path d="m88.11 90.02c-5.1-3.87-7.97-12.06-7.97-15.46-0.4-7.59 3.94-14.42 7.3-22.55 2.4-6.03 0.88-16.4-9.02-16.4-5.47 0-8.47 5.93-8.33 10.64 0.07 3.47 2.67 6.48 5.67 6.41 3.13-0.06 4.59-2.64 4.45-5.16-0.07-0.86-0.54-0.86-0.98-0.86" stroke="#000" stroke-linecap="round" stroke-linejoin="round" stroke-miterlimit="10" stroke-width="2"/>
  <path d="m98.12 76.84c18.22 0 40.59 2.58 40.59 10.87 0 6.9-20.78 9.71-43.47 9.71-21.09 0-44.52-3.8-44.52-9.71 0-7.56 15.39-9.88 29.63-10.54" stroke="#000" stroke-linecap="round" stroke-linejoin="round" stroke-miterlimit="10" stroke-width="2"/>
  <path d="m138.7 87.71c1.36 6.37 1.97 12.93 1.97 19.63 0 7.99-0.95 15.78-2.57 23.31" stroke="#000" stroke-linecap="round" stroke-linejoin="round" stroke-miterlimit="10" stroke-width="2"/>
  <path d="m48.76 99.61c-1.01 5.75-1.01 10.27-1.01 14.14 0 6.3 0.61 11.32 1.48 17.1" stroke="#000" stroke-linecap="round" stroke-linejoin="round" stroke-miterlimit="10" stroke-width="2"/>
  <path d="m47.34 99.74c-10.23 1.19-13.43 6.41-18.13 14.54-3 5.18-11.72 13.64-11.72 25.48 0 8.39 6.93 14.59 18.37 14.59 11.48 0 29.17-9.19 35.04-13.73 4-3.08 5.01-4.53 4.87-7.54-0.13-3.34-2.66-5.56-7.83-5.36-6.33 0.2-11.73 4.1-21.63 5.23-5.2 0.59-7.4 1.12-12.2-0.07-2.1-0.53-4.09-1.39-4.9-1.79" stroke="#000" stroke-linecap="round" stroke-linejoin="round" stroke-miterlimit="10" stroke-width="2"/>
  <path d="m141.8 98.02c3.26-2.88 6.96-4.4 12.06-4.4 9.9 0 15.64 9.02 15.64 16.59 0 9.97-7.13 18.83-13.53 24.39-2.8 1.25-8.9-0.4-13.77-2.18 7.5-3.18 18.09-12.3 18.09-21.88 0-4.19-3.2-7.83-6.97-7.63-6.13 0.26-9.66 5.15-11.12 6.9" stroke="#000" stroke-linecap="round" stroke-linejoin="round" stroke-miterlimit="10" stroke-width="2"/>
  <path d="m166.9 123.8c4 4.07 6.06 12.2 5.86 17.85-0.33 9.12-7.76 14.34-18.29 14.34-10.52 0-26.23-8.43-31.47-12.59-5.1-4.02-7.16-4.75-7.16-8.92 0-3.5 2.53-5.42 7.97-5.29 4.93 0.13 8.26 1.98 14.07 3.18" stroke="#000" stroke-linecap="round" stroke-linejoin="round" stroke-miterlimit="10" stroke-width="2"/>
  <path d="m164.3 155.7c0.5 7.4-4.04 16.91-15.54 16.91-9.97 0-27.11-9.38-30.91-11.53-5.37-2.94-13.89-8.39-13.89-15.16 0-3.77 3.1-6.44 7.1-6.24 6.17 0.26 9.1 2.34 12.5 4.62" stroke="#000" stroke-linecap="round" stroke-linejoin="round" stroke-miterlimit="10" stroke-width="2"/>
  <path d="m109 155.5c-3.83 0-5.49 2.94-5.09 5.65 1 6.56 9.25 12.59 13.95 15.34 6.2 3.47 13 6.18 19.2 6.18s11.14-6.77 12.14-9.32" stroke="#000" stroke-linecap="round" stroke-linejoin="round" stroke-miterlimit="10" stroke-width="2"/>
  <path d="m109 170.1c-3.23 0.53-3.83 3.35-3.23 5.57 1.73 6.43 12.61 12.02 21.07 12.02 5.17 0 8.03-2.61 8.57-3.8" stroke="#000" stroke-linecap="round" stroke-linejoin="round" stroke-miterlimit="10" stroke-width="2"/>
  <path d="m114.6 144.8c2.07 1.88 2.61 7.87-1.73 7.87-3 0-4.8-0.86-5.47-1.46" stroke="#000" stroke-linecap="round" stroke-linejoin="round" stroke-miterlimit="10" stroke-width="2"/>
  <path d="m113.7 162.7c1.27 2.25-0.13 4.03-2.73 4.03-2.06 0-3.07-0.73-3.84-1.26" stroke="#000" stroke-linecap="round" stroke-linejoin="round" stroke-miterlimit="10" stroke-width="2"/>
  <path d="m112.7 175.5c1.13 0.73 0.8 3.21-1.46 3.21" stroke="#000" stroke-linecap="round" stroke-linejoin="round" stroke-miterlimit="10" stroke-width="2"/>
  <path d="m124.6 133.6c3.63 1.65 4.17 5.35 2.07 7.07-0.87 0.73-1.47 0.73-2.34 0.73" stroke="#000" stroke-linecap="round" stroke-linejoin="round" stroke-miterlimit="10" stroke-width="2"/>
  <path d="m82.61 153c3.83 0 5.5 3.21 5.1 5.92-1 5.79-9.25 12.76-13.95 15.77-6.2 3.93-13 6.87-19.2 6.87s-11.14-5.89-12.5-9.59" stroke="#000" stroke-linecap="round" stroke-linejoin="round" stroke-miterlimit="10" stroke-width="2"/>
  <path d="m83.15 168.9c3.23 0.53 3.49 3.74 2.56 5.96-2.6 6.16-12.76 11.48-20.75 11.28-4.6-0.13-7.6-2.22-8.8-4" stroke="#000" stroke-linecap="round" stroke-linejoin="round" stroke-miterlimit="10" stroke-width="2"/>
  <path d="m83.15 153c-3.83 3.87-6.7 6.22-13.13 9.67-8.52 4.55-17.9 8.55-25.46 8.55-10.52 0-17.42-5.65-17.42-15.62 0-1.06 0.07-1.72 0.27-2.51" stroke="#000" stroke-linecap="round" stroke-linejoin="round" stroke-miterlimit="10" stroke-width="2"/>
  <path d="m77.45 161.1c-0.4 2.45 1.47 3.57 3.27 3.24 1.46-0.27 2.33-0.79 2.93-1.39" stroke="#000" stroke-linecap="round" stroke-linejoin="round" stroke-miterlimit="10" stroke-width="2"/>
  <path d="m77.65 174.4c0 2.09 1.8 2.62 2.8 2.29 1.2-0.4 1.87-0.99 2.27-1.59" stroke="#000" stroke-linecap="round" stroke-linejoin="round" stroke-miterlimit="10" stroke-width="2"/>
  <path d="m82.12 150.7c3.99-2.71 5.66-5.56 5.53-7.97-0.21-3.79-3.3-5.51-7.3-5.31-4.17 0.2-7.2 2.71-11.73 5.72" stroke="#000" stroke-linecap="round" stroke-linejoin="round" stroke-miterlimit="10" stroke-width="2"/>
  <path d="m76.65 143.2c-1.9 1.94-2.7 6.99 2 6.99 1.87 0 3.47-0.27 4.47-0.8" stroke="#000" stroke-linecap="round" stroke-linejoin="round" stroke-miterlimit="10" stroke-width="2"/>
  <path d="m67.68 132c-3.63 0.6-4.83 3.74-3.96 5.82 0.67 1.65 2 1.98 2.87 1.98" stroke="#000" stroke-linecap="round" stroke-linejoin="round" stroke-miterlimit="10" stroke-width="1.5"/>
  <path d="m53.99 100.9c-0.47 3.7-0.54 6.84-0.2 10.47" stroke="#000" stroke-linecap="round" stroke-linejoin="round" stroke-miterlimit="10" stroke-width="1.5"/>
  <path d="m53.99 117.9c-0.14 1.25-0.07 1.91 0.2 3" stroke="#000" stroke-linecap="round" stroke-linejoin="round" stroke-miterlimit="10" stroke-width="2"/>
  <path d="m58.09 91.21c5.63-3.9 19.03-6.78 34.98-6.78 14.84 0 31.57 2.29 36.34 6.78" stroke="#000" stroke-linecap="round" stroke-linejoin="round" stroke-miterlimit="10" stroke-width="2"/>
  <path d="m83.12 179.4c3.83 1.18 6.73 1.58 12.06 1.58 5.14 0 8.07-0.66 11.97-1.58" stroke="#000" stroke-linecap="round" stroke-linejoin="round" stroke-miterlimit="10" stroke-width="2"/>
  <path d="m161.7 133.6c-2 1.25-4 1.52-5.99 1.52" stroke="#000" stroke-linecap="round" stroke-linejoin="round" stroke-miterlimit="10" stroke-width="2"/>
</svg>