<svg xmlns="http://www.w3.org/2000/svg" width="250" height="202" fill="none" viewBox="0 0 250 202">
<!-- SVG created with Arrow, by QuiverAI (https://quiver.ai) -->
  <path d="m250 0h-250v201h250v-201z" fill="#FEFFFE"/>
  <path d="m62.01 0.01-0.1 6h-10v-6h10.1z" fill="#F5F5F5"/>
  <path d="m96.91 0v6h10v-6h-10z" fill="#F5F5F5"/>
  <path d="m136.9 0v6h8v-6h-8z" fill="#F5F5F5"/>
  <path d="m177.9 0v6h8v-6h-8z" fill="#F5F5F5"/>
  <path d="m195.9 0v6h6v-6h-6z" fill="#F5F5F5"/>
  <path d="m159.9 0v2h-6v-2h6z" fill="#F5F5F5"/>
  <path d="m124.9 2v2h-4v-2h4z" fill="#F5F5F5"/>
  <path d="m12.91 86v4h-4v-4h4z" fill="#F5F5F5"/>
  <path d="m22.91 86v4h-4v-4h4z" fill="#F5F5F5"/>
  <path d="m22.91 94v4h-4v-4h4z" fill="#F5F5F5"/>
  <path d="m229.9 72v4.63l-1 0.38v-5.01h1z" fill="#F5F5F5"/>
  <path d="m245.9 63v2.63l-13 0.37v-3h13z" fill="#F5F5F5"/>
  <path d="m6.91 164 3 10.63-1 2.38-4-3.38 2-9.63z" fill="#F5F5F5"/>
  <path d="m14.91 188 4 5.63-1 5.38-6-3.01 3-8z" fill="#F5F5F5"/>
  <path d="m30.05 55.21c0.64 11.7 8.77 17.25 19.18 17.25 3.04 0 5.96-0.59 8.64-1.7 5.29 8.73 13.94 15.45 25.42 15.45 11.57 0 22.51-5.5 26.52-13.32 5.16 3.05 9.88 3.52 15.97 2.89 9.43-1.02 14.91-14.91 14.91-35.62 0-13.98-10.36-28.05-25.98-28.05-7 0-11.29 1.97-15.8 5.02-5.07-5.02-11.03-7.22-18.85-7.22-13.98 0-25 9-27.55 20.97-1.1-0.33-2.29-0.49-3.52-0.49-9.84 0-19.77 9.35-18.94 24.82z" fill="#FCC172"/>
  <path d="m133.9 72.81c-8.77-0.85-11.75-9.77-11.75-12.15 9.59-3.92 16.18-12.93 15.68-25.93-0.59-15.62-12.2-28.26-25.4-28.26-8.69 0-12.19 3.59-14.69 6.64-5.5-6-11.5-8-20.5-8-13 0-25 9.5-26 22.5-0.75-0.2-1.52-0.3-2.31-0.3-10 0-18.53 7.78-18.53 20.28 0 11.02 8.34 19.52 18.34 19.52 4.72 0 8.19-1.3 10.5-3 4.5 9 13 16 24.5 16 11.57 0 21.39-6.5 24.39-13 5.61 5.5 14.61 6.5 25.77 5.7z" stroke="#1D1D1B" stroke-linecap="round" stroke-linejoin="round" stroke-width="2.8"/>
  <path d="m113.2 14.61c10.5-0.5 18 9 17 20" stroke="#1D1D1B" stroke-linecap="round" stroke-linejoin="round" stroke-width="1.2"/>
  <path d="m38.72 39.11c-5 7.5-2.5 16.5 4.5 20" stroke="#1D1D1B" stroke-linecap="round" stroke-linejoin="round" stroke-width="1.2"/>
  <path d="m128.7 42.11-2 3.5" stroke="#1D1D1B" stroke-linecap="round" stroke-linejoin="round" stroke-width="1.2"/>
  <path d="m67.22 66.61c5.5 8 14 8.5 22 6.5" stroke="#1D1D1B" stroke-linecap="round" stroke-linejoin="round" stroke-width="1.2"/>
  <path d="m99.22 69.11-2.5 1.5" stroke="#1D1D1B" stroke-linecap="round" stroke-linejoin="round" stroke-width="1.2"/>
  <path d="m245.4 126.8c-1.6-5.7-5.5-8.2-12.4-6.8-1.8-2.5-4.3-3.8-5.1-3.9 7.3-10.1-0.5-30.7-16.1-45.7l-0.9-0.8c9.7-6 14.8-15.9 14.3-26.4 9.5-1 14.7-9.5 12.7-17-2.5-10-6.5-14-14.5-14.5-6-0.4-10 3.5-11.5 6.5-9-7-18.5-10.5-28.5-9.5-6 0.6-10 2-13.5 4-1-5.5-5.5-8.5-10-8.5-4 0-6 2-7.5 4-4.5 2.5-7.5 9-7 14.5 0.5 4.5 3 7.5 6 9-5 11.5-4 27 8 36-10.5 7-29 16.5-30 28.5-1 10 6.5 11 10 10 2.7-0.8 5.5-2.5 8-4.5-0.5 3.5-0.4 6.9 0 9.9l-7.5 2c-3-4.5-7.5-6-12.5-5.5-6.5 0.7-9 8.2-8.5 18.2-12.5-3.5-21-10-41.5-9.5-22 0.5-33 10.5-45 19-9.5 7.2-17.5 11.5-27.5 16.2 20.5-7.5 25-12 35-19.5 11-8.5 22-15 38-15s25 6.5 38 10c9 2.5 16.5 2 25.5 2 7 0 14.5 0 22 1.5 1-10 7-18.5 15.5-18 7.5 0.5 11 4 13 15-0.5-6.5 1-12 11.5-11.5" stroke="#1D1D1B" stroke-linecap="round" stroke-linejoin="round" stroke-width="2.8"/>
  <path d="m227.8 116.1c-3.5 3.5-7.5 4-11.5 2.5-7.5-3-9.5-8.5-10-16.5-0.5-7.5-4.5-13-6-16-1-2-1-4-1-5" stroke="#1D1D1B" stroke-linecap="round" stroke-linejoin="round" stroke-width="1.2"/>
  <path d="m218.3 25.21c2-2.5 4-4.5 6.5-4 4 1 5.5 5 5 8.5-0.5 3-3.5 5.5-6.5 5.5-1.5 0-1-6-5-10z" stroke="#1D1D1B" stroke-linecap="round" stroke-linejoin="round" stroke-width="2.8"/>
  <path d="m157.9 23.21c-5 6-9 13-8 25.5s10.5 24.5 30 26c21.5 1.5 38-8.5 43.5-23.5 1-3 1.5-7 1-8.5" stroke="#1D1D1B" stroke-linecap="round" stroke-linejoin="round" stroke-width="2.8"/>
  <path d="m154.4 27.71c-3-1.5-3.5-4.5-3-7.5 1-5 4-6.5 6.5-6.5s4 1.5 5.5 3" stroke="#1D1D1B" stroke-linecap="round" stroke-linejoin="round" stroke-width="1.6"/>
  <path d="m186.4 13.21-4 5.5" stroke="#1D1D1B" stroke-linecap="round" stroke-linejoin="round" stroke-width="1.2"/>
  <path d="m178.4 27.21c-1.5 3-2.5 8.5-2.5 11" stroke="#1D1D1B" stroke-linecap="round" stroke-linejoin="round" stroke-width="1.2"/>
  <path d="m165.9 38.21c-2.5 0.5-3 2.5-3 4 0 2 1 3.5 3 3.5s3-2 3-4-0.5-4-3-3.5z" fill="#1D1D1B"/>
  <path d="m190.9 41.21c-2.5 0.5-3 2.5-3 4 0 2 1 3.5 3 3.5s3-2 3-4-1-4-3-3.5z" fill="#1D1D1B"/>
  <path d="m180.9 46.21c8 2 12.5 8.5 12 16-0.5 8-8.5 10-14 10" stroke="#1D1D1B" stroke-linecap="round" stroke-linejoin="round" stroke-width="1.2"/>
  <path d="m173.9 46.21c-9.5 1-14 7-14 13 0 7.5 7.5 12 17 12" stroke="#1D1D1B" stroke-linecap="round" stroke-linejoin="round" stroke-width="1.2"/>
  <path d="m166.9 53.21c0.5-3 3-3.5 6-3.5 4 0 6 1.5 6 3.5 0 3-3 4.5-6 5-2.5 0.5-6.5-2.5-6-5z" fill="#1D1D1B"/>
  <path d="m167.9 62.71c2.5 2.5 10.5 3 14.5 0.5" stroke="#1D1D1B" stroke-linecap="round" stroke-linejoin="round" stroke-width="1.6"/>
  <path d="m163.4 70.21c-10 8.5-17 22-16.5 36 0.5 7 2.5 12.5 6 18-4-11.5-3-24 5.5-37 4.5-6 9.5-7.5 14.5-7 7.5 1 13 6 15 14.5 2.5 8.5 2 15-0.5 21.5" stroke="#1D1D1B" stroke-linecap="round" stroke-linejoin="round" stroke-width="1.2"/>
  <path d="m173.4 79.21-3 6.5" stroke="#1D1D1B" stroke-linecap="round" stroke-linejoin="round" stroke-width=".8"/>
  <path d="m137.4 94.71c-2.5 2.5-3.5 4.5-3.5 6.5" stroke="#1D1D1B" stroke-linecap="round" stroke-linejoin="round" stroke-width=".8"/>
  <path d="m146.9 96.21c-3 4.5-6 6.5-10.5 6" stroke="#1D1D1B" stroke-linecap="round" stroke-linejoin="round" stroke-width=".8"/>
  <path d="m212.3 76.61c5 4.5 9 12.5 10.5 20" stroke="#1D1D1B" stroke-linecap="round" stroke-linejoin="round" stroke-width=".8"/>
  <path d="m224.3 102.6c0.5 2 0.5 5 0 7" stroke="#1D1D1B" stroke-linecap="round" stroke-linejoin="round" stroke-width="1.2"/>
  <path d="m217.3 54.11c-4 8-9.5 13-15.5 15" stroke="#1D1D1B" stroke-linecap="round" stroke-linejoin="round" stroke-width=".8"/>
  <path d="m219.8 47.61-0.5 2" stroke="#1D1D1B" stroke-linecap="round" stroke-linejoin="round" stroke-width="1.2"/>
  <path d="m197.8 89.61 3 3.5" stroke="#1D1D1B" stroke-linecap="round" stroke-linejoin="round" stroke-width=".8"/>
  <path d="m203.8 117.6 2 1.5" stroke="#1D1D1B" stroke-linecap="round" stroke-linejoin="round" stroke-width=".8"/>
  <path d="m121.4 126.5c-1.5-6 1-10.5 5-10 5 0.5 7.5 6 9 11.5" stroke="#1D1D1B" stroke-linecap="round" stroke-linejoin="round" stroke-width="1.6"/>
  <path d="m165.9 129.5c1.5-6.5 4.5-9.5 9.5-9" stroke="#1D1D1B" stroke-linecap="round" stroke-linejoin="round" stroke-width="1.6"/>
  <path d="m177.9 123c5.5 0.5 7.5 5.5 7.5 11 0 4-1.5 7.5-4 11" stroke="#1D1D1B" stroke-linecap="round" stroke-linejoin="round" stroke-width="1.6"/>
  <path d="m210.8 127.5 1-2.5" stroke="#1D1D1B" stroke-linecap="round" stroke-linejoin="round" stroke-width="1.6"/>
  <path d="m230.8 126.5c-4.5-3-16.5-0.5-30 11-6 4-14 7-22 12-5 4-11.5 5.5-24.5 6.5-9.5 0.5-16-2.5-30-2-7.5 0-12 1-16.5 2 2.5-3 12.5-4 21.5-4 8 0 15.5 2 24.5 1.5 9.5-0.5 17.5-1 22.5-6 3.5-3.5 2.5-11-5.5-12-6.5-1-10.5-1-11.5 1-1.5 2.5-1.5 10 0.5 12 1.5 1 6.5 1.5 11.5 1" stroke="#1D1D1B" stroke-linecap="round" stroke-linejoin="round" stroke-width="2.1"/>
  <path d="m244.8 126.5c2 3.5-14.5 16-24 25-15.5 14-19.5 19.5-34.5 25.5s-28.5 11-39 16c-7.5 3.5-11 4-19 2.5-15-3-37-11-56.5-15-9.5-2-16-1-26 4-9.5 4-14.5 6.5-24 13-0.5-2 4-6 15-11.5s18.5-9.5 29.5-9c9 0.5 21 5 34 8.5 12 3.5 25 7.5 36 7 6-0.5 11-4 18-7 13.5-6 29-10.5 38-15.5 7-4 10-7.5 18.5-15 11-9.5 23-19.5 24-24 1-3.5-3-6.5-7.5-5" stroke="#1D1D1B" stroke-linecap="round" stroke-linejoin="round" stroke-width="2.8"/>
  <path d="m243.8 125.5c-4 0.5-9 4-11.5 8.5" stroke="#1D1D1B" stroke-linecap="round" stroke-width="1.6"/>
</svg>