<svg xmlns="http://www.w3.org/2000/svg" width="200" height="200" fill="none" viewBox="0 0 200 200">
<!-- SVG created with Arrow, by QuiverAI (https://quiver.ai) -->
  <path d="m39.01 27.61-2.29 72.5 0.71 36.88 2.02 41.02c0 8.9 5.33 17.65 19.57 18.07 11.86 0.37 23.69-1.07 35.59-1.36 12.11-0.44 22.71-0.24 36.1 0.44 8.2 0.64 28.01 1.57 29.08-17.54l3-68.51-2.08-77.39c-0.53-11.41-1.6-24.59-13.65-26.39-9.35-1.42-20.96-1.92-43.97-2.21h-9.41c-9.5 0.09-21.42 0.44-33.2 1.27-14.56 0.75-22.17 7.43-21.47 23.22z" clip-rule="evenodd" fill="#FEFFFE" fill-rule="evenodd" opacity=".6"/>
  <path d="m60.97 197.4c-1.98 0-3.86-0.09-5.63-0.31-11.97-1.5-17.13-8.64-17.13-18.95l-1.2-40.99c-0.8-12.49-0.8-25.01-0.3-37.51l1.17-72.09c-0.7-14.61 5.53-23.5 19.74-24.31l2.76-0.22c10.39-0.78 21.68-1.15 33.29-1.15h9.44c17.68 0.25 30.8 0.77 40.61 2.02l3.55 0.52c12.24 1.88 13.94 13.34 14.55 25.83l2.17 78.81-2.68 68.7c-0.6 11.97-8.5 19.24-23.3 18.77l-7.2-0.43c-12.84-0.75-23.63-0.75-36.16-0.25l-9.87 0.57c-7.67 0.55-16.37 0.99-23.81 0.99zm32.71-193c-11.5 0-22.67 0.37-33.06 1.13l-2.79 0.22c-12.71 0.74-17.97 8.39-17.34 21.67l-1.78 72.22c-0.5 12.42-0.5 24.85 0.2 37.25l1.07 41.1c0 9.05 4.63 15.2 14.73 16.47 8.4 1.08 20.98-0.17 29.87-0.77l9.93-0.58c12.65-0.5 23.55-0.5 36.45 0.25l7.13 0.4c12.12 0.5 20.22-4.97 20.72-16.27l2.1-68.45-1.8-77.27c-0.7-13.48-2.4-23.58-12.32-25l-3.4-0.53c-9.7-1.25-22.73-1.75-40.31-1.97l-9.4 0.13z" clip-rule="evenodd" fill="#000" fill-rule="evenodd"/>
  <path d="m46.21 35.81 0.3 68.35-0.7 27.8v31.7c0 6.55 4.1 9.3 12.3 9.05l24.7-1.15 14.4-0.25 15.8 0.25 25.7 1.35c10.4 0.25 14.3-2.5 14.7-12.9l0.2-5.8-0.9-31 1.1-68.35-0.9-26.4c-0.9-11.3-4.2-15.6-15.6-16.95-4-0.35-8.02-0.3-12 0.2-1.1 0.1-1 0.5-1 1.6-0.1 4.6-3.1 6.7-8 6.6l-25.7 0.1c-8.5 0-14.7-0.8-15.3-7.6-0.1-0.9-0.4-0.9-1.2-0.9l-12.1 0.5c-13.3 0.7-15.8 7-15.8 23.8z" clip-rule="evenodd" fill="#FEFFFE" fill-rule="evenodd" stroke="#000" stroke-linecap="round" stroke-linejoin="round" stroke-width="2.5"/>
  <path d="m57.71 95.11c0.2-8 0.6-19.1 4.7-24.4 3.7-4.8 9.9-6 16.6-7.1 8.4-1.2 16.9-1.3 24.4-1.3 6.7 0 15.1 0.4 23.2 1.7 8.4 1.4 12.8 6 14.2 14.6 1.8 10.5 1.8 23.5 0 35-1.4 8-5.1 12.3-14.2 14.1-9.8 1.8-20.6 2.4-32.1 2-4.1-0.2-4.8 0-7.5 2.9s-6 6.1-8.9 8.3c-2 1.5-2.5 0.5-2.3-1.2 0.4-3.5 0.4-6.6 0-9.9-0.2-1.5-0.9-1.5-3.6-2-8.4-1-12.2-6.6-13.6-16.3-0.8-5.4-1-10.9-0.9-16.4z" clip-rule="evenodd" fill="#A8CCB2" fill-rule="evenodd" stroke="#000" stroke-linecap="round" stroke-linejoin="round" stroke-width="2.2"/>
  <path d="m86.51 96.11c-0.9-3.1-1.9-8.1 1-11.5 4.6-5.3 11.2-0.9 12.2 3.3 1.3-3.5 4.1-6.2 8.4-5.4 6.7 1.3 7.3 8.2 4.6 13.9" clip-rule="evenodd" fill-rule="evenodd" stroke="#000" stroke-linecap="round" stroke-linejoin="round" stroke-width="2"/>
  <path d="m80.11 100 11.7-0.4 3.5-8.3 4.9 12.2 3.6-8.2 2.5 4.7 13.1-0.7" clip-rule="evenodd" fill="#A8CCB2" fill-rule="evenodd"/>
  <path d="m80.11 100 11.7-0.4 3.5-8.3 4.9 12.2 3.6-8.2 2.5 4.7 10.1-0.5" stroke="#000" stroke-linecap="round" stroke-linejoin="round" stroke-width="2"/>
  <path d="m89.11 100.1c2.9 4.8 7 8.5 10.6 11.8 4-4 8-8.2 10.6-12.4" clip-rule="evenodd" fill-rule="evenodd" stroke="#000" stroke-linecap="round" stroke-linejoin="round" stroke-width="2"/>
</svg>