<svg xmlns="http://www.w3.org/2000/svg" width="174" height="314" fill="none" viewBox="0 0 174 314">
<!-- SVG created with Arrow, by QuiverAI (https://quiver.ai) -->
  <g fill="#D8E7E2" opacity=".5">
    <path d="m0.67 48.95 11.41-1.62 3.12 2.7 7.5-2.19 5.26 3.51v2.74l-3 2.34-7.06-1.5h-4.61l-1.34 2.79-4.86-0.41-3.91 0.61-3.18-2.6 0.67-6.37z" opacity=".2"/>
    <path d="m13.82 60.59 6.66-1.46 7.02 0.9 4.99-2.72 5.44 1.48 4.19 2.42v3.4l-2.95 2.49-7.49-0.68-4.79 0.8-3.97-1.91-4.85 0.69-4.25-1.84v-3.57z" opacity=".2"/>
    <path d="m0.27 131 7.84-1.8 3.7 2.51 4.68-2.29 3.35 2.77v2.82l-2.61 2.5-5.68-0.85-4.79 1.37-3.35-0.96-3.14-1.56v-4.51z" opacity=".2"/>
  </g>
  <path d="m96.57 70.6c8.21-9.47 16.42-20.57 16.42-35.3 0-19.16-9.18-30.88-24.58-30.88-16.92 0-27.76 12.19-27.76 31.65 0 10.81 5.32 22.66 12.04 31.09 1.26 7.52 0.39 13.95-9.71 20.1-8.81 5.57-19.24 4.85-25.8 10.98-6.94 6.62-8.99 17.74-8.6 28.47 0.73 21.05-2.32 37.94-4.68 42.6-6.73 13.6-12.18 38.93-13.79 52.7-1.12 10.11-3.71 29.26-5.83 35.8-1.89 6.12-2.49 7.4-1.54 11.33 1.97 8.37 4.89 12.73 9.97 17.21 3.91 3.47 9.14 7.36 11.21 3.56 0.77-1.42-0.77-5.02-3.79-7.78-4.39-3.95-4.05-10.91-1.04-18.51 1.48 6.47 2.32 11.42 3.16 13.3 1.37 3.2 4.61 2.79 4.81-0.84 0.17-3.26-0.58-12.31-0.44-18.31 0.09-3.51-3.74-8.54-3.21-13.69 0.93-9.26 13.57-26.88 18.68-39.87 4.5-11.49 3.87-16.72 5.83-26.99l0.67-6.19-0.53-4.45-0.14-9.11 0.67-6.19" stroke="#222" stroke-miterlimit="10" stroke-width=".7"/>
  <path d="m46.38 151.1c2.53 6.91 6.65 23.74 6.08 31.98-0.93 14.16-10.77 27.67-14.85 42.77-6.34 24.1-3.13 39.61 3.3 64.14 1.57 6.26 4.72 12.03 7.81 18.85" stroke="#222" stroke-miterlimit="10" stroke-width=".7"/>
  <path d="m125.8 310.1c6.13-13.35 11.14-31.39 12.3-38.76 3.06-10.69 1.75-24.49-0.78-35.18-3.55-14.73-13.28-32.71-15.99-45.03-2.46-10.84 1.76-26.25 4.5-35.37" stroke="#222" stroke-miterlimit="10" stroke-width=".7"/>
  <path d="m126.1 152.8c2.12 8.95 4.17 25.3 4.64 33.66 0.66 12.25 14.32 32.39 17.53 40.36 1.83 4.83 4.19 7.34 5.24 10.58 1.31 4.35-3.22 10.36-5.58 19.97-0.83 3.53 0.97 7.92 0.6 13.91-0.46 6.91 4.15 6.24 5.65 1.65 0.96-3.12 0.22-6.18 2.19-11.5 3.84 5.71 1.73 13.71-0.73 16.96-3.18 4.22-5.81 7.85-5.04 9.5 1.02 1.97 6.89-3.35 12.12-10.69 5.22-7.34 4.89-12.76 3.31-20.1-0.93-4.36-1.63-4.91-2.23-13.21-0.8-11.16-2.57-20-4.43-33.05-1.97-13.55-4.93-23.45-11.7-40.8-4.22-10.94-2.07-26.62-2.7-39.75-0.44-9.01-3-24-9.94-30.04-6.73-5.94-18.85-5.54-26.27-10.26-8.95-5.76-8.84-12.18-7.43-19.84" stroke="#222" stroke-miterlimit="10" stroke-width=".7"/>
  <path d="m72.82 68.07c4.5 6.75 7.54 7.04 14.96 7.04-6.94 0.12-10.95-1.42-14.96-7.04z" fill="#222"/>
  <path d="m127.5 126.3c6 12.45 0.14 30.22-16.42 29.82-2.08-0.07-3.39-0.4-3.39-0.4 8.55 2.18 21.06-6.63 20.72-18.31-0.2-6.22-0.91-8.1-1.78-11.96" stroke="#222" stroke-miterlimit="10" stroke-width=".7"/>
  <path d="m47.32 125.4c-5.6 11.76-3.96 28.26 9.97 30.39 3.66 0.56 6.69 0.03 7.39-0.47-7.42 1.35-16.6-3.91-18.46-11.21-1.47-6.16-0.61-11.76 1.1-18.71z" stroke="#222" stroke-miterlimit="10" stroke-width=".7"/>
  <path d="m80.03 251.1c5.36 4.01 11.09 2.58 13.68 0.21-5.08 7.08-6.4 20.64-7.13 32.43-0.27 4.52-0.27 20.75-0.47 26.36-0.55-6.01 0.68-22.85 0.47-33.24-0.2-8.51-2.03-18.21-6.55-25.76z" stroke="#222" stroke-miterlimit="10" stroke-width=".7"/>
  <path d="m73.42 109.4c-5.83-2.84-17.45-1.44-19.41 7.24-1.19 5.48 0.67 10.69 2.72 12.6-3.13 1.5-5.82 7.8-4.48 12.42 2.65 9.5 14.57 7.47 20.44 4.2 3.67 5.22 8.29 5.37 11.35 5.37 6.29 0 8.73-5.05 10.2-5.46 2.88 2.25 7.97 3.3 13.2 1.99 8.45-2.29 12.64-10.63 9.39-15.45-1.34-2.23-1.57-3.25-2.31-3.71 3.24-4.36 3.31-11.17-1.3-15.24s-10.47-3.35-9.87-3.05c-4.46-1.28-2.89-8.39-14.16-9.44-7.56-0.67-14.44 4.89-15.77 8.53z" fill="#7A9B8D" stroke="#7A9B8D" stroke-miterlimit="10" stroke-width=".7"/>
  <path d="m73.3 109c-5.44-1.95-15.51-1.48-18.75 6.36-2.23 5.77 0.49 11.54 2.06 12.88-4.15 2.28-6.37 9.46-3.65 14.78 4.97 9.78 17.35 4.46 19.39 2.49 3.18 4.88 7.41 5.44 10.73 5.37 6.03-0.14 8.38-3.11 11.43-6.9 3.41 2.45 7.53 4.3 13.33 2.83 8.79-2.4 10.98-9.34 8.55-15.38-0.93-2.46-1.67-2.75-2.47-3.46 4.29-3.93 3.55-12.49-3.77-16.63-3.93-2.28-9.23-1.32-10.57 0.14-2.12-5.91-5.94-10.5-13.47-10.5-6.62 0-11.88 4.7-12.81 8.02z" stroke="#222" stroke-miterlimit="10" stroke-width=".5"/>
  <path d="m71.96 191.1c-5.51-2.13-10.48 0.67-13.01 6.17-1.54 3.6-0.49 6.35 1.21 8.81-4.01 1.59-6.47 7.92-5.22 12.14 2.72 9.33 12.45 7.56 14.98 5.2 3.24 5.57 7.73 8.1 14.26 7.8 5.73-0.3 10.26-2.23 12.15-7.05 5.45 3.4 11.97 0.56 14.6-1.52 5.44-4.03 8.02-11.97 1.79-15.77l-1.34-0.6c2.53-2.08 4.65-9.31-0.21-13.23-4.32-3.53-9.23-3.64-11.65-1.9-2.12-6.01-6.58-10.57-14.8-9.97-5.57 0.6-10.36 4.76-12.76 9.92z" stroke="#222" stroke-miterlimit="10" stroke-width=".5"/>
  <path d="m72.69 26.18c-1.54-1.22-3.01-4.34-0.27-7.4 3.52-3.56 7.54-1.05 8.14-0.03 1.77-2.84 4.33-4.2 8.42-3.91 3.25 0.21 5.43 2.18 6.74 4.74 2.81-0.83 4.93 0.25 6.19 1.27 2.72 2.26 0.86 6.26-0.16 6.96 1.76 1.57 3.3 5.07 0.76 8.32-2.69 3.53-6.85 1.87-8.49 0.74-2.15 1.32-2.42 4.31-9.08 4.49-4.65 0.11-6.32-2.45-8.18-4.63-3.06 1.75-6.76 0.53-7.75-1.51-1.94-3.95-0.1-7.48 3.68-9.04z" stroke="#222" stroke-miterlimit="10" stroke-width=".5"/>
</svg>