<svg xmlns="http://www.w3.org/2000/svg" width="250" height="250" viewBox="0 0 250 250">
<!-- SVG created with Arrow, by QuiverAI (https://quiver.ai) -->
  <path d="m184.7 105.2c-2.54-18.94-18.34-36.49-36.96-36.28-4.6-0.2-9.75 0.06-14.59 1.92-14.94 5.87-23.94 19.06-23.71 33.08 0.22 12.26 9.34 26.24 24.07 26.07 11.24-0.14 18.5-9.18 18.55-16.18 0.04-6.14-4.81-10.84-8.84-10.3l-1.07 0.26c4.77 1.62 5.56 5.41 4.99 9.53-0.95 6.89-7.87 8.99-11.53 8.68-9.52-0.82-14.31-9.28-14.13-17.47 0.23-10.6 11.62-18.38 22.82-18.3 12.9-0.13 23.5 12.52 23.91 26.52 0.6 16.66-15.21 32.2-36.87 32.68-12.82 0.04-22.42-5.25-32.86-9.44-10.71-4.64-20.28-7.46-32.45-7.45-29.72 0.17-53.93 26.23-53.57 59.49l0.38 9.97 0.21-1.17c3.98-28.69 21.22-58.1 53.12-58.14 11.68 0.1 20.84 5.55 31.58 10.42 10.16 5.1 19.18 10.07 33.12 10.2 27.1-0.18 57.15-23.2 53.83-54.09z" fill="#8BB09B"/>
  <path d="m192.7 121.6c-6.97 27.17-26.99 49.15-70.08 49.87l-0.4 0.69c29.02 5.45 64.7-12.07 70.56-48.87l-0.08-1.69z" fill="#000"/>
  <path d="m235.5 186.4c-6.7-30.25-10.08-61.3-6.83-91.08 3.47-31.86 10.3-49.22 4.97-70.11-4.6-16.91-17.89-20.28-33.5-18.67-19.3 1.8-33.52 5.57-56.7 7.34-10.3 0.9-15.94 1.05-26.91 1.12-14.45-0.09-26.68-0.27-39.86-2.31-11.62-1.79-15.95-2.05-20.53-2.19-7.76-0.35-16.03-0.64-23.84 2.15-13.48 4.68-20.03 17.25-20.26 31.28-0.29 15.75 5.03 35.44 6.45 55.84 0.7 8.38 0.75 14.23 0.28 21.13-0.43 6.9-1.37 14.9-1.32 21.17l0.46-0.07c5.11-18.37 4.24-42.71 1.03-63.91-2.2-13.81-3.79-24.84-3.61-34.07 0.41-11.74 6.65-26.82 22.3-29.57 9.79-2.02 22.17-0.54 31.49 0.96 11.93 1.95 23.77 2.82 37.46 2.96 21.67 0.43 44.65-2.31 63.19-5.16 13.45-2.12 21.34-3.08 27.35-3.35 9.73-0.57 16.53 0.35 22.75 5.19 9.99 7.63 11.9 20.25 8.84 40.64-3.63 17.09-6.22 39.25-6.22 58.09-0.05 20.72 2.75 43.32 7.93 66.41 3.37 15.56 4.71 25.66 1.24 38.41-4.51 11.33-12.78 16.4-28.54 16.44-10.09-0.67-21.81-4.39-44.36-6.57-22.71-1.64-43.68 1.03-58.89 4.2-16.84 3.44-24.95 6.54-39.68 7.13-9.55 0.4-15.07-1.9-23.49-6.9 4.37 5.95 11.44 10.39 26.17 10.52 15.5-0.01 25.8-3.77 45.5-6.45 15.02-2.57 25.69-3.77 40.71-3.39 19.3 0.52 34.09 3.36 47.99 5.32 10.18 1.48 21.6 0.95 30.17-6.07 11.63-9.92 11.63-28.58 8.26-46.43z" fill="#000"/>
  <path d="m146.8 76.51c-17.36-0.3-30.63 13.77-30.72 27.22-0.09 10.73 7.51 21.31 18.89 21.43 9.18-0.1 14.9-7.7 14.9-13.65 0-4.59-3.12-7.95-5.98-8.38l-3.32 0.78c3.97 0.91 4.2 4.1 3.9 6.35-0.79 3.73-4.25 5.51-7.98 5.32-6.72-0.3-10.3-6.82-10.12-11.87 0.32-9.74 10.3-17.37 20.28-17.31 13.42 0.16 27.99 13.98 28.22 28 0.55 21.52-18.57 40.61-44.5 40.91-16.49 0.08-26.79-7.3-42.22-13.44-7.92-3.25-13.43-4.86-22.46-4.71-28.72 0.6-51.78 24.92-52.42 61.3 0.48 13.32 6.11 32.55 19.56 41.24l0.57-0.21c-12.33-11.77-17.02-26.18-17.2-39.4 1.67-30.01 19.11-57.64 47.54-57.96 10.93 0 17.6 3.76 25.84 7.76 11.27 5.43 21.15 10.42 38.19 10.6 27.96-0.36 52.08-20.32 51.25-48.06-0.63-17.44-14.86-35.72-32.22-35.92z" fill="#000"/>
</svg>