<svg xmlns="http://www.w3.org/2000/svg" width="200" height="200" fill="none" viewBox="0 0 200 200">
<!-- SVG created with Arrow, by QuiverAI (https://quiver.ai) -->
  <path d="m81.69 75.16c-1.74-4.97-3.86-14.39-1.91-21.97s7.08-12.71 12.94-19.58l5.11 0.2 2.58 5.12 1.37 6.63v13.8l3.55-0.08c1.83 0.19 3.25 3.55 4.59 5.77l4.04 4.76-4.85 7.02-4.88 5.17h-8.68l-6.99-2.31-6.87-4.53z" fill="#5EB6E4" opacity=".2"/>
  <path d="m134.1 9 4.63 1.43 6.15 6.83 1.1 5.69-1.27 7.99-7.59 8.83-7.32-0.76-6.36-4.14-1.94-7.66 2.84-8.14 4.46-7.27 5.3-2.8z" fill="#5EB6E4" opacity=".2"/>
  <path d="m146.3 49.99c-3.55-1.65-9.48-1.08-9.25 0.6 0.24 1.68 1.76 3.34 0.77 6.53-1 3.19-4.11 5.71-3.76 8.97 0.34 3.27 3.14 7.11 8 6.89 4.85-0.22 6.02-1.09 7.97-3.62s3.9-5.51 2.79-9.85c-1.12-4.35-3.63-8.3-6.52-9.52z" fill="#5EB6E4" opacity=".2"/>
  <path d="m65.79 17.94-5.25 9.68v8.2l3.33 7.42 4.19 2.32h7.5l4.18-4.55 2.93-9.32-3.02-9.32-4.94-10.02-1.77-3.48-2.69 1.98-4.46 7.09z" fill="#5EB6E4" opacity=".2"/>
  <path d="m73.94 5.14c2.1 8.57 10.53 18.12 10.53 25.85 0 8.01-4.58 12.92-10.55 12.92-6.61 0-11.61-4.49-11.61-11.54 0-7.93 8.08-16.96 11.63-27.23z" stroke="#1D1D1B" stroke-linecap="round" stroke-linejoin="round" stroke-width="1.6"/>
  <path d="m131.7 4.26c2.14 8.72 9.2 15.95 9.2 23.42 0 6.67-4.78 10.56-9.03 10.51-6.34-0.08-11.01-4.21-11.01-10.35 0-8.03 6.46-12.57 10.84-23.58z" stroke="#1D1D1B" stroke-linecap="round" stroke-linejoin="round" stroke-width="1.6"/>
  <path d="m103.2 17.1c4.29 16.51 18.3 29.17 18.3 45.3 0 9.4-6.69 19.6-18.08 19.6-11.13 0-18.66-7.11-18.66-19.41 0-12.31 11.97-24.77 18.44-45.49z" stroke="#1D1D1B" stroke-linecap="round" stroke-linejoin="round" stroke-width="1.6"/>
  <path d="m139.4 50.26c1.68 5.47 6.57 11.6 6.57 16.09 0 4.54-3.22 6.63-6.11 6.55-4.04-0.12-6.78-3.04-6.78-6.21 0-5.08 4.64-10.04 6.32-16.43z" stroke="#1D1D1B" stroke-linecap="round" stroke-linejoin="round" stroke-width="1.6"/>
  <path d="m67.38 30.3c-0.25 2.78 1.89 7.02 5.44 7.98" stroke="#1D1D1B" stroke-linecap="round" stroke-linejoin="round" stroke-width="1.6"/>
  <path d="m135.9 26.46c-0.08 3.03-1.29 5.65-3.24 7.15" stroke="#1D1D1B" stroke-linecap="round" stroke-linejoin="round" stroke-width="1.6"/>
  <path d="m91.33 55.52c-1.59 6.2-0.14 16.72 9.84 19.08" stroke="#1D1D1B" stroke-linecap="round" stroke-linejoin="round" stroke-width="1.6"/>
  <path d="m104.9 75.25 0.42-0.09" stroke="#1D1D1B" stroke-linecap="round" stroke-linejoin="round" stroke-width="1.6"/>
  <path d="m23.42 111.5c6.64-15.46 17.56-27.57 35.16-30.7" stroke="#1D1D1B" stroke-linecap="round" stroke-linejoin="round" stroke-width="1.2"/>
  <path d="m5.71 142c12.2-7.07 21.54-13.34 29.8-22.93 10.67-12.43 20.3-26.98 42.58-27.83 8.99-0.36 11.68 0.46 21.02 0.46 11.74 0 18.98-2.24 25.87-4.19 5.41-1.35 7.51 1.33 6.37 4.58-1.61 4.91-10.47 10.97-23.83 13.79" stroke="#1D1D1B" stroke-linecap="round" stroke-linejoin="round" stroke-width="1.6"/>
  <path d="m8.13 166c9.08-8.58 21.97-18.17 30.64-28.69 10.54-12.65 17.18-25.12 33.39-30.96 10.3-3.82 18.97-3.7 26.85-1.97 8.12 1.82 14.23 4.67 24.42 5.03 8.75 0.32 13.31-0.37 20.33-6.57s12.56-10.6 18.57-9.81c3.32 0.44 3.86 1.45 0.45 5.22-4.63 5.16-8.68 9.19-14.55 13" stroke="#1D1D1B" stroke-linecap="round" stroke-linejoin="round" stroke-width="1.6"/>
  <path d="m125.7 108.3c9.25-3.03 19.97-13.05 25.75-17.08s9.2-9.8 15.71-11.52c5.08-1.4 8.11-0.78 9.14 1.17 1.68 3.19-3.18 8.11-5.04 10.78" stroke="#1D1D1B" stroke-linecap="round" stroke-linejoin="round" stroke-width="1.6"/>
  <path d="m116.2 99.94c9.79-2.37 17.54-7.92 27.92-16.78 5.13-4 9.92-5.23 12.25-5.53 3.96-0.5 7.5 0.34 8.67 3.75" stroke="#1D1D1B" stroke-linecap="round" stroke-linejoin="round" stroke-width="1.6"/>
  <path d="m145.8 120.4c8.75-3.48 20.05-15.16 25.07-21.18 4.8-5.88 6.86-10.24 12.03-9.99 4.2 0.2 3.02 1.8 2.8 2.49" stroke="#1D1D1B" stroke-linecap="round" stroke-linejoin="round" stroke-width="1.6"/>
  <path d="m100.1 130.8c4.94-4.12 11.58-5.3 23.6-5.3 6.73 0 8.33 1.31 18.13-0.53 9.07-1.8 14.33 0 20.3-6.2 6.84-7.3 11.02-14.77 20.6-18.81 5.54-2.41 10.25-2.09 11.01-0.7 1.64 2.92-2.6 7.66-6.42 12.72-4.41 5.16-10.14 13.36-15.44 19.65-6.3 7.33-17.44 9.8-28.83 14.72-9.16 4.18-13.97 6.38-29.13 6.51-9.24 0.09-21.83 2.1-29.09 4.3-16.21 5.16-27.34 22.69-34.84 38.89" stroke="#1D1D1B" stroke-linecap="round" stroke-linejoin="round" stroke-width="1.6"/>
  <path d="m191.8 88.18c4 0.55 3.11 3.51 1.49 6.63-1.4 2.64-2.92 5.24-4.29 6.91" stroke="#1D1D1B" stroke-linecap="round" stroke-linejoin="round" stroke-width="1.6"/>
  <path d="m192.9 100.8c-4.26 1.46-7.9 6.93-7.23 12.28" stroke="#1D1D1B" stroke-linecap="round" stroke-linejoin="round" stroke-width="1.6"/>
  <path d="m139.2 112.4c3.07-1.21 9.49-1.33 12.19 0.68 3.18 2.23 2.51 6.59-1.61 8.03-2.98 1.05-8.24 0.76-9.97-1.03-1.55-1.6-2.6-6.78-0.61-7.68z" stroke="#1D1D1B" stroke-linecap="round" stroke-linejoin="round" stroke-width="1.6"/>
  <path d="m70.46 157.1c-9.98 7.07-16.78 17.67-24.54 29.85" stroke="#1D1D1B" stroke-linecap="round" stroke-linejoin="round" stroke-width="1.2"/>
  <path d="m78.34 180.9c6.88-7.3 17.6-10.64 31.37-10.64 9.34 0 18.92 2.92 35.13 3.05 12.45-0.25 20.93-2.33 28.97-6.82" stroke="#1D1D1B" stroke-linecap="round" stroke-linejoin="round" stroke-width="1.2"/>
  <path d="m153 162.9c14.06-3.2 24.12-11.25 33.97-22.39" stroke="#1D1D1B" stroke-linecap="round" stroke-linejoin="round" stroke-width="1.6"/>
  <path d="m106.3 184.1c1.55-3.12 4.07-2.8 5.75-1.96 2.37 1.21 5.87 1.88 10.32-2.35 0 2.76 0.44 5.34 4.21 4.51 2-0.44 2.75-1.75 3.42-2.4 0.22 1.96 1.06 4.01 3.81 3.55 1.36-0.24 2.45-0.89 2.89-1.88" stroke="#1D1D1B" stroke-linecap="round" stroke-linejoin="round" stroke-width="1.6"/>
  <path d="m27.11 77.66c1.07-3.68 3.11-5.13 5.86-5.36 4.14-0.33 4.99 1.61 6.26 3.05 1.82-3.17 4.23-5.04 7.56-5.04 2.89 0 3.14 1.5 4.18 1.87 1.36-1.32 1.98-3.01 4.09-2.61 1.31 0.28 1.43 0.86 1.52 1.17" stroke="#1D1D1B" stroke-linecap="round" stroke-linejoin="round" stroke-width="1.6"/>
  <path d="m78.95 76.82c-3.03-2.94-3.79-10.05-3.74-16.82" stroke="#1D1D1B" stroke-linecap="round" stroke-linejoin="round" stroke-width="1.6"/>
  <path d="m71.76 74.4c-1.28-2.69-1.85-5.25-2.14-7.37" stroke="#1D1D1B" stroke-linecap="round" stroke-linejoin="round" stroke-width="1.6"/>
  <path d="m50.83 134.5c8.48-12.38 15.98-21.63 35.28-24.76" stroke="#1D1D1B" stroke-linecap="round" stroke-linejoin="round" stroke-width="1.2"/>
</svg>